{
.appVersion = "1056";
copyright = "2018 - Juliette Duhe, Lea Pradine";
customParameters = (
{
name = vendorID;
value = VTF;
},
{
name = panose;
value = (
0,
0,
0,
0,
0,
0,
0,
0,
0,
0
);
},
{
name = unicodeRanges;
value = (
0,
1,
2,
3,
5,
7,
31,
33,
35,
36,
37,
38,
45,
62
);
},
{
name = codePageRanges;
value = (
1252
);
},
{
name = glyphOrder;
value = (
.notdef,
uni0000,
uni000D,
space,
exclam,
quotedbl,
numbersign,
dollar,
percent,
ampersand,
quotesingle,
parenleft,
parenright,
asterisk,
plus,
comma,
hyphen,
period,
slash,
zero,
one,
two,
three,
four,
five,
six,
seven,
eight,
nine,
colon,
semicolon,
less,
equal,
greater,
question,
at,
A,
B,
C,
D,
E,
F,
G,
H,
I,
J,
K,
L,
M,
N,
O,
P,
Q,
R,
S,
T,
U,
V,
W,
X,
Y,
Z,
bracketleft,
backslash,
bracketright,
asciicircum,
underscore,
grave,
a,
b,
c,
d,
e,
f,
g,
h,
i,
j,
k,
l,
m,
n,
o,
p,
q,
r,
s,
t,
u,
v,
w,
x,
y,
z,
braceleft,
bar,
braceright,
asciitilde,
exclamdown,
cent,
sterling,
yen,
brokenbar,
section,
dieresis,
copyright,
ordfeminine,
guillemotleft,
logicalnot,
registered,
macron,
degree,
plusminus,
uni00B2,
uni00B3,
acute,
uni00B5,
paragraph,
periodcentered,
cedilla,
uni00B9,
ordmasculine,
guillemotright,
onequarter,
onehalf,
threequarters,
questiondown,
Agrave,
Aacute,
Acircumflex,
Atilde,
Adieresis,
Aring,
AE,
Ccedilla,
Egrave,
Eacute,
Ecircumflex,
Edieresis,
Igrave,
Iacute,
Icircumflex,
Idieresis,
Eth,
Ntilde,
Ograve,
Oacute,
Ocircumflex,
Otilde,
Odieresis,
multiply,
Oslash,
Ugrave,
Uacute,
Ucircumflex,
Udieresis,
Yacute,
Thorn,
germandbls,
agrave,
aacute,
acircumflex,
atilde,
adieresis,
aring,
ae,
ccedilla,
egrave,
eacute,
ecircumflex,
edieresis,
igrave,
iacute,
icircumflex,
idieresis,
eth,
ntilde,
ograve,
oacute,
ocircumflex,
otilde,
odieresis,
divide,
oslash,
ugrave,
uacute,
ucircumflex,
udieresis,
yacute,
thorn,
ydieresis,
dotlessi,
Lslash,
lslash,
Eng,
eng,
OE,
oe,
Scaron,
scaron,
Ydieresis,
Zcaron,
zcaron,
florin,
circumflex,
caron,
breve,
dotaccent,
ring,
ogonek,
tilde,
hungarumlaut,
uni0394,
uni03A9,
pi,

glyphs = (
{
glyphname = .notdef;
lastChange = "2018-07-05 08:09:39 +0000";
layers = (
{
annotations = (
{
position = "{-16, -45}";
type = Arrow;
}
);
layerId = "2B3DFD70-41A3-4B85-88D0-92073D9863EC";
paths = (
{
closed = 1;
nodes = (
"160 600 LINE",
"160 700 LINE",
"150 700 LINE",
"150 600 LINE"
);
},
{
closed = 1;
nodes = (
"200 600 LINE",
"200 700 LINE",
"190 700 LINE",
"190 600 LINE"
);
},
{
closed = 1;
nodes = (
"240 655 LINE",
"195 655 LINE",
"195 645 LINE",
"240 645 LINE"
);
},
{
closed = 1;
nodes = (
"260 700 LINE",
"195 700 LINE",
"195 690 LINE",
"260 690 LINE"
);
},
{
closed = 1;
nodes = (
"335 600 LINE",
"335 650 LINE",
"325 650 LINE",
"325 600 LINE"
);
},
{
closed = 1;
nodes = (
"370 655 LINE",
"290 655 LINE",
"290 645 LINE",
"370 645 LINE"
);
},
{
closed = 1;
nodes = (
"300 650 LINE",
"300 700 LINE",
"290 700 LINE",
"290 650 LINE"
);
},
{
closed = 1;
nodes = (
"370 650 LINE",
"370 700 LINE",
"360 700 LINE",
"360 650 LINE"
);
},
{
closed = 1;
nodes = (
"400 700 LINE",
"410 700 LINE",
"410 600 LINE",
"400 600 LINE"
);
},
{
closed = 1;
nodes = (
"405 690 LINE",
"405 700 LINE",
"470 700 LINE",
"470 690 LINE"
);
},
{
closed = 1;
nodes = (
"405 600 LINE",
"405 610 LINE",
"470 610 LINE",
"470 600 LINE"
);
},
{
closed = 1;
nodes = (
"465 700 LINE",
"475 700 LINE",
"475 600 LINE",
"465 600 LINE"
);
},
{
closed = 1;
nodes = (
"505 700 LINE",
"515 700 LINE",
"515 600 LINE",
"505 600 LINE"
);
},
{
closed = 1;
nodes = (
"510 600 LINE",
"510 610 LINE",
"580 610 LINE",
"580 600 LINE"
);
},
{
closed = 1;
nodes = (
"575 700 LINE",
"585 700 LINE",
"585 600 LINE",
"575 600 LINE"
);
},
{
closed = 1;
nodes = (
"160 450 LINE",
"160 550 LINE",
"150 550 LINE",
"150 450 LINE"
);
},
{
closed = 1;
nodes = (
"195 460 LINE",
"155 460 LINE",
"155 450 LINE",
"195 450 LINE"
);
},
{
closed = 1;
nodes = (
"200 450 LINE",
"200 515 LINE",
"190 515 LINE",
"190 450 LINE"
);
},
{
closed = 1;
nodes = (
"235 460 LINE",
"195 460 LINE",
"195 450 LINE",
"235 450 LINE"
);
},
{
closed = 1;
nodes = (
"240 450 LINE",
"240 550 LINE",
"230 550 LINE",
"230 450 LINE"
);
},
{
closed = 1;
nodes = (
"395 450 LINE",
"395 550 LINE",
"385 550 LINE",
"385 450 LINE"
);
},
{
closed = 1;
nodes = (
"465 450 LINE",
"465 550 LINE",
"455 550 LINE",
"455 450 LINE"
);
},
{
closed = 1;
nodes = (
"405 510 LINE",
"415 510 LINE",
"415 550 LINE",
"405 550 LINE"
);
},
{
closed = 1;
nodes = (
"390 550 LINE",
"390 540 LINE",
"410 540 LINE",
"410 550 LINE"
);
},
{
closed = 1;
nodes = (
"420 480 LINE",
"430 480 LINE",
"430 520 LINE",
"420 520 LINE"
);
},
{
closed = 1;
nodes = (
"405 520 LINE",
"405 510 LINE",
"425 510 LINE",
"425 520 LINE"
);
},
{
closed = 1;
nodes = (
"435 450 LINE",
"445 450 LINE",
"445 490 LINE",
"435 490 LINE"
);
},
{
closed = 1;
nodes = (
"420 490 LINE",
"420 480 LINE",
"440 480 LINE",
"440 490 LINE"
);
},
{
closed = 1;
nodes = (
"440 460 LINE",
"440 450 LINE",
"460 450 LINE",
"460 460 LINE"
);
},
{
closed = 1;
nodes = (
"530 450 LINE",
"530 550 LINE",
"520 550 LINE",
"520 450 LINE"
);
},
{
closed = 1;
nodes = (
"565 550 LINE",
"485 550 LINE",
"485 540 LINE",
"565 540 LINE"
);
},
{
closed = 1;
nodes = (
"615 450 LINE",
"615 550 LINE",
"605 550 LINE",
"605 450 LINE"
);
},
{
closed = 1;
nodes = (
"625 510 LINE",
"635 510 LINE",
"635 550 LINE",
"625 550 LINE"
);
},
{
closed = 1;
nodes = (
"610 550 LINE",
"610 540 LINE",
"630 540 LINE",
"630 550 LINE"
);
},
{
closed = 1;
nodes = (
"640 480 LINE",
"650 480 LINE",
"650 520 LINE",
"640 520 LINE"
);
},
{
closed = 1;
nodes = (
"625 520 LINE",
"625 510 LINE",
"645 510 LINE",
"645 520 LINE"
);
},
{
closed = 1;
nodes = (
"640 490 LINE",
"640 480 LINE",
"660 480 LINE",
"660 490 LINE"
);
},
{
closed = 1;
nodes = (
"715 550 LINE",
"705 550 LINE",
"705 450 LINE",
"715 450 LINE"
);
},
{
closed = 1;
nodes = (
"685 550 LINE",
"685 510 LINE",
"695 510 LINE",
"695 550 LINE"
);
},
{
closed = 1;
nodes = (
"690 540 LINE",
"710 540 LINE",
"710 550 LINE",
"690 550 LINE"
);
},
{
closed = 1;
nodes = (
"670 520 LINE",
"670 480 LINE",
"680 480 LINE",
"680 520 LINE"
);
},
{
closed = 1;
nodes = (
"675 510 LINE",
"695 510 LINE",
"695 520 LINE",
"675 520 LINE"
);
},
{
closed = 1;
nodes = (
"660 480 LINE",
"680 480 LINE",
"680 490 LINE",
"660 490 LINE"
);
},
{
closed = 1;
nodes = (
"655 450 LINE",
"665 450 LINE",
"665 490 LINE",
"655 490 LINE"
);
},
{
closed = 1;
nodes = (
"755 450 LINE",
"755 550 LINE",
"745 550 LINE",
"745 450 LINE"
);
},
{
closed = 1;
nodes = (
"815 550 LINE",
"750 550 LINE",
"750 540 LINE",
"815 540 LINE"
);
},
{
closed = 1;
nodes = (
"815 460 LINE",
"750 460 LINE",
"750 450 LINE",
"815 450 LINE"
);
},
{
closed = 1;
nodes = (
"820 450 LINE",
"820 550 LINE",
"810 550 LINE",
"810 450 LINE"
);
},
{
closed = 1;
nodes = (
"845 450 LINE",
"855 450 LINE",
"855 500 LINE",
"845 500 LINE"
);
},
{
closed = 1;
nodes = (
"850 550 LINE",
"850 540 LINE",
"895 540 LINE",
"895 550 LINE"
);
},
{
closed = 1;
nodes = (
"920 450 LINE",
"930 450 LINE",
"930 500 LINE",
"920 500 LINE"
);
},
{
closed = 1;
nodes = (
"850 500 LINE",
"850 490 LINE",
"925 490 LINE",
"925 500 LINE"
);
},
{
closed = 1;
nodes = (
"845 500 LINE",
"855 500 LINE",
"855 550 LINE",
"845 550 LINE"
);
},
{
closed = 1;
nodes = (
"890 500 LINE",
"900 500 LINE",
"900 550 LINE",
"890 550 LINE"
);
},
{
closed = 1;
nodes = (
"960 450 LINE",
"960 550 LINE",
"950 550 LINE",
"950 450 LINE"
);
},
{
closed = 1;
nodes = (
"1000 505 LINE",
"955 505 LINE",
"955 495 LINE",
"1000 495 LINE"
);
},
{
closed = 1;
nodes = (
"1020 550 LINE",
"955 550 LINE",
"955 540 LINE",
"1020 540 LINE"
);
},
{
closed = 1;
nodes = (
"1020 460 LINE",
"955 460 LINE",
"955 450 LINE",
"1020 450 LINE"
);
},
{
closed = 1;
nodes = (
"160 150 LINE",
"160 250 LINE",
"150 250 LINE",
"150 150 LINE"
);
},
{
closed = 1;
nodes = (
"215 250 LINE",
"155 250 LINE",
"155 240 LINE",
"215 240 LINE"
);
},
{
closed = 1;
nodes = (
"215 160 LINE",
"155 160 LINE",
"155 150 LINE",
"215 150 LINE"
);
},
{
closed = 1;
nodes = (
"250 150 LINE",
"250 250 LINE",
"240 250 LINE",
"240 150 LINE"
);
},
{
closed = 1;
nodes = (
"310 250 LINE",
"245 250 LINE",
"245 240 LINE",
"310 240 LINE"
);
},
{
closed = 1;
nodes = (
"310 160 LINE",
"245 160 LINE",
"245 150 LINE",
"310 150 LINE"
);
},
{
closed = 1;
nodes = (
"315 150 LINE",
"315 250 LINE",
"305 250 LINE",
"305 150 LINE"
);
},
{
closed = 1;
nodes = (
"355 150 LINE",
"355 250 LINE",
"345 250 LINE",
"345 150 LINE"
);
},
{
closed = 1;
nodes = (
"425 150 LINE",
"425 250 LINE",
"415 250 LINE",
"415 150 LINE"
);
},
{
closed = 1;
nodes = (
"365 210 LINE",
"375 210 LINE",
"375 250 LINE",
"365 250 LINE"
);
},
{
closed = 1;
nodes = (
"350 250 LINE",
"350 240 LINE",
"370 240 LINE",
"370 250 LINE"
);
},
{
closed = 1;
nodes = (
"380 180 LINE",
"390 180 LINE",
"390 220 LINE",
"380 220 LINE"
);
},
{
closed = 1;
nodes = (
"365 220 LINE",
"365 210 LINE",
"385 210 LINE",
"385 220 LINE"
);
},
{
closed = 1;
nodes = (
"395 150 LINE",
"405 150 LINE",
"405 190 LINE",
"395 190 LINE"
);
},
{
closed = 1;
nodes = (
"380 190 LINE",
"380 180 LINE",
"400 180 LINE",
"400 190 LINE"
);
},
{
closed = 1;
nodes = (
"400 160 LINE",
"400 150 LINE",
"420 150 LINE",
"420 160 LINE"
);
},
{
closed = 1;
nodes = (
"485 150 LINE",
"485 250 LINE",
"475 250 LINE",
"475 150 LINE"
);
},
{
closed = 1;
nodes = (
"520 250 LINE",
"440 250 LINE",
"440 240 LINE",
"520 240 LINE"
);
},
{
closed = 1;
nodes = (
"645 150 LINE",
"645 250 LINE",
"635 250 LINE",
"635 150 LINE"
);
},
{
closed = 1;
nodes = (
"700 250 LINE",
"640 250 LINE",
"640 240 LINE",
"700 240 LINE"
);
},
{
closed = 1;
nodes = (
"700 160 LINE",
"640 160 LINE",
"640 150 LINE",
"700 150 LINE"
);
},
{
closed = 1;
nodes = (
"765 150 LINE",
"765 250 LINE",
"755 250 LINE",
"755 150 LINE"
);
},
{
closed = 1;
nodes = (
"800 250 LINE",
"720 250 LINE",
"720 240 LINE",
"800 240 LINE"
);
},
{
closed = 1;
nodes = (
"160 60 LINE",
"170 60 LINE",
"170 100 LINE",
"160 100 LINE"
);
},
{
closed = 1;
nodes = (
"145 100 LINE",
"145 90 LINE",
"165 90 LINE",
"165 100 LINE"
);
},
{
closed = 1;
nodes = (
"175 30 LINE",
"185 30 LINE",
"185 70 LINE",
"175 70 LINE"
);
},
{
closed = 1;
nodes = (
"160 70 LINE",
"160 60 LINE",
"180 60 LINE",
"180 70 LINE"
);
},
{
closed = 1;
nodes = (
"175 40 LINE",
"175 30 LINE",
"195 30 LINE",
"195 40 LINE"
);
},
{
closed = 1;
nodes = (
"220 100 LINE",
"220 60 LINE",
"230 60 LINE",
"230 100 LINE"
);
},
{
closed = 1;
nodes = (
"225 90 LINE",
"245 90 LINE",
"245 100 LINE",
"225 100 LINE"
);
},
{
closed = 1;
nodes = (
"205 70 LINE",
"205 30 LINE",
"215 30 LINE",
"215 70 LINE"
);
},
{
closed = 1;
nodes = (
"210 60 LINE",
"230 60 LINE",
"230 70 LINE",
"210 70 LINE"
);
},
{
closed = 1;
nodes = (
"195 30 LINE",
"215 30 LINE",
"215 40 LINE",
"195 40 LINE"
);
},
{
closed = 1;
nodes = (
"190 0 LINE",
"200 0 LINE",
"200 40 LINE",
"190 40 LINE"
);
},
{
closed = 1;
nodes = (
"275 0 LINE",
"275 100 LINE",
"265 100 LINE",
"265 0 LINE"
);
},
{
closed = 1;
nodes = (
"315 55 LINE",
"270 55 LINE",
"270 45 LINE",
"315 45 LINE"
);
},
{
closed = 1;
nodes = (
"335 100 LINE",
"270 100 LINE",
"270 90 LINE",
"335 90 LINE"
);
},
{
closed = 1;
nodes = (
"335 10 LINE",
"270 10 LINE",
"270 0 LINE",
"335 0 LINE"
);
},
{
closed = 1;
nodes = (
"435 60 LINE",
"445 60 LINE",
"445 100 LINE",
"435 100 LINE"
);
},
{
closed = 1;
nodes = (
"420 100 LINE",
"420 90 LINE",
"440 90 LINE",
"440 100 LINE"
);
},
{
closed = 1;
nodes = (
"450 30 LINE",
"460 30 LINE",
"460 70 LINE",
"450 70 LINE"
);
},
{
closed = 1;
nodes = (
"435 70 LINE",
"435 60 LINE",
"455 60 LINE",
"455 70 LINE"
);
},
{
closed = 1;
nodes = (
"450 40 LINE",
"450 30 LINE",
"470 30 LINE",
"470 40 LINE"
);
},
{
closed = 1;
nodes = (
"495 100 LINE",
"495 60 LINE",
"505 60 LINE",
"505 100 LINE"
);
},
{
closed = 1;
nodes = (
"500 90 LINE",
"520 90 LINE",
"520 100 LINE",
"500 100 LINE"
);
},
{
closed = 1;
nodes = (
"480 70 LINE",
"480 30 LINE",
"490 30 LINE",
"490 70 LINE"
);
},
{
closed = 1;
nodes = (
"485 60 LINE",
"505 60 LINE",
"505 70 LINE",
"485 70 LINE"
);
},
{
closed = 1;
nodes = (
"470 30 LINE",
"490 30 LINE",
"490 40 LINE",
"470 40 LINE"
);
},
{
closed = 1;
nodes = (
"465 0 LINE",
"475 0 LINE",
"475 40 LINE",
"465 40 LINE"
);
},
{
closed = 1;
nodes = (
"550 0 LINE",
"550 100 LINE",
"540 100 LINE",
"540 0 LINE"
);
},
{
closed = 1;
nodes = (
"590 55 LINE",
"545 55 LINE",
"545 45 LINE",
"590 45 LINE"
);
},
{
closed = 1;
nodes = (
"610 100 LINE",
"545 100 LINE",
"545 90 LINE",
"610 90 LINE"
);
},
{
closed = 1;
nodes = (
"610 10 LINE",
"545 10 LINE",
"545 0 LINE",
"610 0 LINE"
);
},
{
closed = 1;
nodes = (
"375 0 LINE",
"375 100 LINE",
"365 100 LINE",
"365 0 LINE"
);
},
{
closed = 1;
nodes = (
"435 10 LINE",
"370 10 LINE",
"370 0 LINE",
"435 0 LINE"
);
},
{
closed = 1;
nodes = (
"675 0 LINE",
"675 100 LINE",
"665 100 LINE",
"665 0 LINE"
);
},
{
closed = 1;
nodes = (
"710 100 LINE",
"630 100 LINE",
"630 90 LINE",
"710 90 LINE"
);
},
{
closed = 1;
nodes = (
"840 0 LINE",
"840 100 LINE",
"830 100 LINE",
"830 0 LINE"
);
},
{
closed = 1;
nodes = (
"910 0 LINE",
"910 100 LINE",
"900 100 LINE",
"900 0 LINE"
);
},
{
closed = 1;
nodes = (
"850 60 LINE",
"860 60 LINE",
"860 100 LINE",
"850 100 LINE"
);
},
{
closed = 1;
nodes = (
"835 100 LINE",
"835 90 LINE",
"855 90 LINE",
"855 100 LINE"
);
},
{
closed = 1;
nodes = (
"865 30 LINE",
"875 30 LINE",
"875 70 LINE",
"865 70 LINE"
);
},
{
closed = 1;
nodes = (
"850 70 LINE",
"850 60 LINE",
"870 60 LINE",
"870 70 LINE"
);
},
{
closed = 1;
nodes = (
"880 0 LINE",
"890 0 LINE",
"890 40 LINE",
"880 40 LINE"
);
},
{
closed = 1;
nodes = (
"865 40 LINE",
"865 30 LINE",
"885 30 LINE",
"885 40 LINE"
);
},
{
closed = 1;
nodes = (
"885 10 LINE",
"885 0 LINE",
"905 0 LINE",
"905 10 LINE"
);
},
{
closed = 1;
nodes = (
"945 0 LINE",
"945 100 LINE",
"935 100 LINE",
"935 0 LINE"
);
},
{
closed = 1;
nodes = (
"985 55 LINE",
"940 55 LINE",
"940 45 LINE",
"985 45 LINE"
);
},
{
closed = 1;
nodes = (
"1005 100 LINE",
"940 100 LINE",
"940 90 LINE",
"1005 90 LINE"
);
},
{
closed = 1;
nodes = (
"1005 10 LINE",
"940 10 LINE",
"940 0 LINE",
"1005 0 LINE"
);
},
{
closed = 1;
nodes = (
"775 0 LINE",
"775 50 LINE",
"765 50 LINE",
"765 0 LINE"
);
},
{
closed = 1;
nodes = (
"810 55 LINE",
"730 55 LINE",
"730 45 LINE",
"810 45 LINE"
);
},
{
closed = 1;
nodes = (
"740 50 LINE",
"740 100 LINE",
"730 100 LINE",
"730 50 LINE"
);
},
{
closed = 1;
nodes = (
"810 50 LINE",
"810 100 LINE",
"800 100 LINE",
"800 50 LINE"
);
},
{
closed = 1;
nodes = (
"190 -150 LINE",
"190 -50 LINE",
"180 -50 LINE",
"180 -150 LINE"
);
},
{
closed = 1;
nodes = (
"230 -95 LINE",
"185 -95 LINE",
"185 -105 LINE",
"230 -105 LINE"
);
},
{
closed = 1;
nodes = (
"250 -50 LINE",
"185 -50 LINE",
"185 -60 LINE",
"250 -60 LINE"
);
},
{
closed = 1;
nodes = (
"275 -150 LINE",
"285 -150 LINE",
"285 -100 LINE",
"275 -100 LINE"
);
},
{
closed = 1;
nodes = (
"280 -50 LINE",
"280 -60 LINE",
"325 -60 LINE",
"325 -50 LINE"
);
},
{
closed = 1;
nodes = (
"350 -150 LINE",
"360 -150 LINE",
"360 -100 LINE",
"350 -100 LINE"
);
},
{
closed = 1;
nodes = (
"280 -100 LINE",
"280 -110 LINE",
"355 -110 LINE",
"355 -100 LINE"
);
},
{
closed = 1;
nodes = (
"275 -100 LINE",
"285 -100 LINE",
"285 -50 LINE",
"275 -50 LINE"
);
},
{
closed = 1;
nodes = (
"320 -100 LINE",
"330 -100 LINE",
"330 -50 LINE",
"320 -50 LINE"
);
},
{
closed = 1;
nodes = (
"155 -150 LINE",
"155 -135 LINE",
"140 -135 LINE",
"140 -150 LINE"
);
},
{
closed = 1;
nodes = (
"1055 450 LINE",
"1055 465 LINE",
"1040 465 LINE",
"1040 450 LINE"
);
},
{
closed = 1;
nodes = (
"1055 435 LINE",
"1055 460 LINE",
"1045 460 LINE",
"1045 435 LINE"
);
},
{
closed = 1;
nodes = (
"1060 600 LINE",
"1060 700 LINE",
"615 700 LINE",
"615 600 LINE"
);
},
{
closed = 1;
nodes = (
"1060 150 LINE",
"1060 250 LINE",
"820 250 LINE",
"820 150 LINE"
);
},
{
closed = 1;
nodes = (
"1060 -150 LINE",
"1060 -50 LINE",
"395 -50 LINE",
"395 -150 LINE"
);
},
{
closed = 1;
nodes = (
"160 300 LINE",
"160 400 LINE",
"150 400 LINE",
"150 300 LINE"
);
},
{
closed = 1;
nodes = (
"200 355 LINE",
"155 355 LINE",
"155 345 LINE",
"200 345 LINE"
);
},
{
closed = 1;
nodes = (
"220 400 LINE",
"155 400 LINE",
"155 390 LINE",
"220 390 LINE"
);
},
{
closed = 1;
nodes = (
"250 300 LINE",
"250 400 LINE",
"240 400 LINE",
"240 300 LINE"
);
},
{
closed = 1;
nodes = (
"310 400 LINE",
"245 400 LINE",
"245 390 LINE",
"310 390 LINE"
);
},
{
closed = 1;
nodes = (
"310 310 LINE",
"245 310 LINE",
"245 300 LINE",
"310 300 LINE"
);
},
{
closed = 1;
nodes = (
"315 300 LINE",
"315 400 LINE",
"305 400 LINE",
"305 300 LINE"
);
},
{
closed = 1;
nodes = (
"605 300 LINE",
"605 400 LINE",
"595 400 LINE",
"595 300 LINE"
);
},
{
closed = 1;
nodes = (
"615 360 LINE",
"625 360 LINE",
"625 400 LINE",
"615 400 LINE"
);
},
{
closed = 1;
nodes = (
"600 400 LINE",
"600 390 LINE",
"620 390 LINE",
"620 400 LINE"
);
},
{
closed = 1;
nodes = (
"630 330 LINE",
"640 330 LINE",
"640 370 LINE",
"630 370 LINE"
);
},
{
closed = 1;
nodes = (
"615 370 LINE",
"615 360 LINE",
"635 360 LINE",
"635 370 LINE"
);
},
{
closed = 1;
nodes = (
"630 340 LINE",
"630 330 LINE",
"650 330 LINE",
"650 340 LINE"
);
},
{
closed = 1;
nodes = (
"705 400 LINE",
"695 400 LINE",
"695 300 LINE",
"705 300 LINE"
);
},
{
closed = 1;
nodes = (
"675 400 LINE",
"675 360 LINE",
"685 360 LINE",
"685 400 LINE"
);
},
{
closed = 1;
nodes = (
"680 390 LINE",
"700 390 LINE",
"700 400 LINE",
"680 400 LINE"
);
},
{
closed = 1;
nodes = (
"660 370 LINE",
"660 330 LINE",
"670 330 LINE",
"670 370 LINE"
);
},
{
closed = 1;
nodes = (
"665 360 LINE",
"685 360 LINE",
"685 370 LINE",
"665 370 LINE"
);
},
{
closed = 1;
nodes = (
"650 330 LINE",
"670 330 LINE",
"670 340 LINE",
"650 340 LINE"
);
},
{
closed = 1;
nodes = (
"645 300 LINE",
"655 300 LINE",
"655 340 LINE",
"645 340 LINE"
);
},
{
closed = 1;
nodes = (
"345 300 LINE",
"355 300 LINE",
"355 350 LINE",
"345 350 LINE"
);
},
{
closed = 1;
nodes = (
"350 400 LINE",
"350 390 LINE",
"395 390 LINE",
"395 400 LINE"
);
},
{
closed = 1;
nodes = (
"420 300 LINE",
"430 300 LINE",
"430 350 LINE",
"420 350 LINE"
);
},
{
closed = 1;
nodes = (
"350 350 LINE",
"350 340 LINE",
"425 340 LINE",
"425 350 LINE"
);
},
{
closed = 1;
nodes = (
"345 350 LINE",
"355 350 LINE",
"355 400 LINE",
"345 400 LINE"
);
},
{
closed = 1;
nodes = (
"390 350 LINE",
"400 350 LINE",
"400 400 LINE",
"390 400 LINE"
);
},
{
closed = 1;
nodes = (
"750 300 LINE",
"750 400 LINE",
"740 400 LINE",
"740 300 LINE"
);
},
{
closed = 1;
nodes = (
"790 355 LINE",
"745 355 LINE",
"745 345 LINE",
"790 345 LINE"
);
},
{
closed = 1;
nodes = (
"810 400 LINE",
"745 400 LINE",
"745 390 LINE",
"810 390 LINE"
);
},
{
closed = 1;
nodes = (
"810 310 LINE",
"745 310 LINE",
"745 300 LINE",
"810 300 LINE"
);
},
{
closed = 1;
nodes = (
"880 300 LINE",
"880 400 LINE",
"870 400 LINE",
"870 300 LINE"
);
},
{
closed = 1;
nodes = (
"940 400 LINE",
"875 400 LINE",
"875 390 LINE",
"940 390 LINE"
);
},
{
closed = 1;
nodes = (
"940 310 LINE",
"875 310 LINE",
"875 300 LINE",
"940 300 LINE"
);
},
{
closed = 1;
nodes = (
"945 300 LINE",
"945 400 LINE",
"935 400 LINE",
"935 300 LINE"
);
},
{
closed = 1;
nodes = (
"975 300 LINE",
"985 300 LINE",
"985 350 LINE",
"975 350 LINE"
);
},
{
closed = 1;
nodes = (
"980 400 LINE",
"980 390 LINE",
"1025 390 LINE",
"1025 400 LINE"
);
},
{
closed = 1;
nodes = (
"1050 300 LINE",
"1060 300 LINE",
"1060 350 LINE",
"1050 350 LINE"
);
},
{
closed = 1;
nodes = (
"980 350 LINE",
"980 340 LINE",
"1055 340 LINE",
"1055 350 LINE"
);
},
{
closed = 1;
nodes = (
"975 350 LINE",
"985 350 LINE",
"985 400 LINE",
"975 400 LINE"
);
},
{
closed = 1;
nodes = (
"1020 350 LINE",
"1030 350 LINE",
"1030 400 LINE",
"1020 400 LINE"
);
},
{
closed = 1;
nodes = (
"465 400 LINE",
"455 400 LINE",
"455 300 LINE",
"465 300 LINE"
);
},
{
closed = 1;
nodes = (
"505 400 LINE",
"505 360 LINE",
"515 360 LINE",
"515 400 LINE"
);
},
{
closed = 1;
nodes = (
"510 390 LINE",
"530 390 LINE",
"530 400 LINE",
"510 400 LINE"
);
},
{
closed = 1;
nodes = (
"480 370 LINE",
"480 330 LINE",
"490 330 LINE",
"490 370 LINE"
);
},
{
closed = 1;
nodes = (
"485 360 LINE",
"515 360 LINE",
"515 370 LINE",
"485 370 LINE"
);
},
{
closed = 1;
nodes = (
"460 345 LINE",
"485 345 LINE",
"485 355 LINE",
"460 355 LINE"
);
},
{
closed = 1;
nodes = (
"515 340 LINE",
"505 340 LINE",
"505 300 LINE",
"515 300 LINE"
);
},
{
closed = 1;
nodes = (
"530 300 LINE",
"530 310 LINE",
"510 310 LINE",
"510 300 LINE"
);
},
{
closed = 1;
nodes = (
"485 330 LINE",
"515 330 LINE",
"515 340 LINE",
"485 340 LINE"
);
},
{
closed = 1;
nodes = (
"320 510 LINE",
"330 510 LINE",
"330 550 LINE",
"320 550 LINE"
);
},
{
closed = 1;
nodes = (
"305 550 LINE",
"305 540 LINE",
"325 540 LINE",
"325 550 LINE"
);
},
{
closed = 1;
nodes = (
"335 480 LINE",
"345 480 LINE",
"345 520 LINE",
"335 520 LINE"
);
},
{
closed = 1;
nodes = (
"320 520 LINE",
"320 510 LINE",
"340 510 LINE",
"340 520 LINE"
);
},
{
closed = 1;
nodes = (
"350 450 LINE",
"360 450 LINE",
"360 490 LINE",
"350 490 LINE"
);
},
{
closed = 1;
nodes = (
"335 490 LINE",
"335 480 LINE",
"355 480 LINE",
"355 490 LINE"
);
},
{
closed = 1;
nodes = (
"295 550 LINE",
"295 510 LINE",
"305 510 LINE",
"305 550 LINE"
);
},
{
closed = 1;
nodes = (
"280 520 LINE",
"280 480 LINE",
"290 480 LINE",
"290 520 LINE"
);
},
{
closed = 1;
nodes = (
"285 510 LINE",
"305 510 LINE",
"305 520 LINE",
"285 520 LINE"
);
},
{
closed = 1;
nodes = (
"265 490 LINE",
"265 450 LINE",
"275 450 LINE",
"275 490 LINE"
);
},
{
closed = 1;
nodes = (
"270 480 LINE",
"340 480 LINE",
"340 490 LINE",
"270 490 LINE"
);
},
{
closed = 1;
nodes = (
"575 210 LINE",
"585 210 LINE",
"585 250 LINE",
"575 250 LINE"
);
},
{
closed = 1;
nodes = (
"560 250 LINE",
"560 240 LINE",
"580 240 LINE",
"580 250 LINE"
);
},
{
closed = 1;
nodes = (
"590 180 LINE",
"600 180 LINE",
"600 220 LINE",
"590 220 LINE"
);
},
{
closed = 1;
nodes = (
"575 220 LINE",
"575 210 LINE",
"595 210 LINE",
"595 220 LINE"
);
},
{
closed = 1;
nodes = (
"605 150 LINE",
"615 150 LINE",
"615 190 LINE",
"605 190 LINE"
);
},
{
closed = 1;
nodes = (
"590 190 LINE",
"590 180 LINE",
"610 180 LINE",
"610 190 LINE"
);
},
{
closed = 1;
nodes = (
"550 250 LINE",
"550 210 LINE",
"560 210 LINE",
"560 250 LINE"
);
},
{
closed = 1;
nodes = (
"535 220 LINE",
"535 180 LINE",
"545 180 LINE",
"545 220 LINE"
);
},
{
closed = 1;
nodes = (
"540 210 LINE",
"560 210 LINE",
"560 220 LINE",
"540 220 LINE"
);
},
{
closed = 1;
nodes = (
"520 190 LINE",
"520 150 LINE",
"530 150 LINE",
"530 190 LINE"
);
},
{
closed = 1;
nodes = (
"525 180 LINE",
"595 180 LINE",
"595 190 LINE",
"525 190 LINE"
);
}
);
width = 1200;
},
{
annotations = (
{
position = "{-16, -45}";
type = Arrow;
}
);
associatedMasterId = "2B3DFD70-41A3-4B85-88D0-92073D9863EC";
layerId = "D4199034-5ECB-449E-8411-25B5312ADB1F";
paths = (
{
closed = 1;
nodes = (
"349 345 OFFCURVE",
"370 363 OFFCURVE",
"390 363 CURVE SMOOTH",
"414 363 OFFCURVE",
"432 345 OFFCURVE",
"432 322 CURVE SMOOTH",
"432 299 OFFCURVE",
"414 282 OFFCURVE",
"390 282 CURVE SMOOTH",
"370 282 OFFCURVE",
"349 299 OFFCURVE",
"349 322 CURVE SMOOTH"
);
},
{
closed = 1;
nodes = (
"169 345 OFFCURVE",
"190 363 OFFCURVE",
"210 363 CURVE SMOOTH",
"234 363 OFFCURVE",
"252 345 OFFCURVE",
"252 322 CURVE SMOOTH",
"252 299 OFFCURVE",
"234 282 OFFCURVE",
"210 282 CURVE SMOOTH",
"190 282 OFFCURVE",
"169 299 OFFCURVE",
"169 322 CURVE SMOOTH"
);
},
{
closed = 1;
nodes = (
"466 -102 OFFCURVE",
"600 32 OFFCURVE",
"600 198 CURVE SMOOTH",
"600 364 OFFCURVE",
"466 498 OFFCURVE",
"300 498 CURVE SMOOTH",
"134 498 OFFCURVE",
"0 364 OFFCURVE",
"0 198 CURVE SMOOTH",
"0 32 OFFCURVE",
"134 -102 OFFCURVE",
"300 -102 CURVE SMOOTH"
);
},
{
closed = 1;
nodes = (
"127 176 OFFCURVE",
"184 219 OFFCURVE",
"300 219 CURVE SMOOTH",
"416 219 OFFCURVE",
"473 176 OFFCURVE",
"529 59 CURVE",
"501 51 LINE",
"454 144 OFFCURVE",
"408 189 OFFCURVE",
"300 189 CURVE SMOOTH",
"192 189 OFFCURVE",
"146 144 OFFCURVE",
"99 51 CURVE",
"71 59 LINE"
);
}
);
width = 600;
}
);
note = .notdef;
},
{
glyphname = exclam;
lastChange = "2018-06-06 13:29:57 +0000";
layers = (
{
layerId = "2B3DFD70-41A3-4B85-88D0-92073D9863EC";
paths = (
{
closed = 1;
nodes = (
"304 139 LINE",
"324 552 LINE SMOOTH",
"325 580 OFFCURVE",
"320 603 OFFCURVE",
"298 603 CURVE SMOOTH",
"275 603 OFFCURVE",
"270 580 OFFCURVE",
"270 552 CURVE",
"290 139 LINE"
);
},
{
closed = 1;
nodes = (
"326 -13 OFFCURVE",
"349 11 OFFCURVE",
"349 38 CURVE SMOOTH",
"349 65 OFFCURVE",
"326 89 OFFCURVE",
"298 89 CURVE SMOOTH",
"270 89 OFFCURVE",
"246 65 OFFCURVE",
"246 38 CURVE SMOOTH",
"246 11 OFFCURVE",
"270 -13 OFFCURVE",
"298 -13 CURVE SMOOTH"
);
}
);
width = 600;
}
);
note = exclam;
unicode = 0021;
},
{
glyphname = quotedbl;
lastChange = "2018-05-04 08:01:45 +0000";
layers = (
{
layerId = "2B3DFD70-41A3-4B85-88D0-92073D9863EC";
paths = (
{
closed = 1;
nodes = (
"165 466 OFFCURVE",
"192 494 OFFCURVE",
"192 522 CURVE SMOOTH",
"192 541 OFFCURVE",
"186 558 OFFCURVE",
"175 567 CURVE",
"204 558 OFFCURVE",
"227 515 OFFCURVE",
"227 473 CURVE SMOOTH",
"227 408 OFFCURVE",
"169 342 OFFCURVE",
"102 335 CURVE",
"106 310 LINE",
"178 317 OFFCURVE",
"252 388 OFFCURVE",
"252 473 CURVE SMOOTH",
"252 548 OFFCURVE",
"205 603 OFFCURVE",
"144 603 CURVE SMOOTH",
"104 603 OFFCURVE",
"66 575 OFFCURVE",
"66 534 CURVE SMOOTH",
"66 495 OFFCURVE",
"95 466 OFFCURVE",
"132 466 CURVE SMOOTH"
);
},
{
closed = 1;
nodes = (
"367 466 OFFCURVE",
"394 494 OFFCURVE",
"394 522 CURVE SMOOTH",
"394 541 OFFCURVE",
"388 558 OFFCURVE",
"377 567 CURVE",
"406 558 OFFCURVE",
"429 515 OFFCURVE",
"429 473 CURVE SMOOTH",
"429 408 OFFCURVE",
"371 342 OFFCURVE",
"304 335 CURVE",
"308 310 LINE",
"380 317 OFFCURVE",
"454 388 OFFCURVE",
"454 473 CURVE SMOOTH",
"454 548 OFFCURVE",
"407 603 OFFCURVE",
"346 603 CURVE SMOOTH",
"306 603 OFFCURVE",
"268 575 OFFCURVE",
"268 534 CURVE SMOOTH",
"268 495 OFFCURVE",
"297 466 OFFCURVE",
"334 466 CURVE SMOOTH"
);
}
);
width = 600;
}
);
note = quotedbl;
unicode = 0022;
},
{
glyphname = numbersign;
lastChange = "2018-05-04 08:01:45 +0000";
layers = (
{
layerId = "2B3DFD70-41A3-4B85-88D0-92073D9863EC";
paths = (
{
closed = 1;
nodes = (
"70 204 LINE",
"70 234 LINE",
"205 234 LINE",
"241 373 LINE",
"110 373 LINE",
"110 403 LINE",
"250 403 LINE",
"296 581 LINE",
"326 581 LINE",
"279 403 LINE",
"427 403 LINE",
"473 581 LINE",
"504 581 LINE",
"457 403 LINE",
"571 403 LINE",
"571 373 LINE",
"449 373 LINE",
"412 234 LINE",
"530 234 LINE",
"530 204 LINE",
"404 204 LINE",
"353 10 LINE",
"323 10 LINE",
"373 204 LINE",
"226 204 LINE",
"175 10 LINE",
"146 10 LINE",
"196 204 LINE"
);
},
{
closed = 1;
nodes = (
"234 234 LINE",
"382 234 LINE",
"418 373 LINE",
"271 373 LINE"
);
}
);
width = 600;
}
);
note = numbersign;
unicode = 0023;
},
{
glyphname = dollar;
lastChange = "2018-05-04 08:01:45 +0000";
layers = (
{
layerId = "2B3DFD70-41A3-4B85-88D0-92073D9863EC";
paths = (
{
closed = 1;
nodes = (
"534 249 OFFCURVE",
"468 273 OFFCURVE",
"356 293 CURVE SMOOTH",
"319 300 LINE",
"319 522 LINE",
"399 517 OFFCURVE",
"473 486 OFFCURVE",
"485 437 CURVE",
"462 470 OFFCURVE",
"399 452 OFFCURVE",
"399 403 CURVE SMOOTH",
"399 371 OFFCURVE",
"424 346 OFFCURVE",
"459 346 CURVE SMOOTH",
"493 346 OFFCURVE",
"516 377 OFFCURVE",
"516 418 CURVE SMOOTH",
"516 500 OFFCURVE",
"423 547 OFFCURVE",
"319 552 CURVE",
"319 603 LINE",
"289 603 LINE",
"289 553 LINE",
"190 551 OFFCURVE",
"86 507 OFFCURVE",
"86 422 CURVE SMOOTH",
"86 335 OFFCURVE",
"158 296 OFFCURVE",
"259 279 CURVE SMOOTH",
"289 274 LINE",
"289 68 LINE",
"200 72 OFFCURVE",
"132 98 OFFCURVE",
"99 162 CURVE",
"122 129 OFFCURVE",
"187 147 OFFCURVE",
"185 196 CURVE SMOOTH",
"184 228 OFFCURVE",
"161 253 OFFCURVE",
"127 253 CURVE SMOOTH",
"96 253 OFFCURVE",
"68 225 OFFCURVE",
"68 184 CURVE SMOOTH",
"68 101 OFFCURVE",
"181 45 OFFCURVE",
"289 39 CURVE",
"289 -13 LINE",
"319 -13 LINE",
"319 38 LINE",
"431 41 OFFCURVE",
"534 85 OFFCURVE",
"534 173 CURVE SMOOTH"
);
},
{
closed = 1;
nodes = (
"267 309 LINE SMOOTH",
"171 326 OFFCURVE",
"116 357 OFFCURVE",
"116 422 CURVE SMOOTH",
"116 485 OFFCURVE",
"207 521 OFFCURVE",
"289 523 CURVE",
"289 305 LINE"
);
},
{
closed = 1;
nodes = (
"319 269 LINE",
"341 265 LINE SMOOTH",
"437 249 OFFCURVE",
"504 233 OFFCURVE",
"504 173 CURVE SMOOTH",
"504 112 OFFCURVE",
"427 71 OFFCURVE",
"319 68 CURVE"
);
}
);
width = 600;
}
);
note = dollar;
unicode = 0024;
},
{
glyphname = percent;
lastChange = "2018-05-29 15:02:35 +0000";
layers = (
{
associatedMasterId = "2B3DFD70-41A3-4B85-88D0-92073D9863EC";
layerId = "664376F6-9070-443C-8100-752251C4360F";
paths = (
{
closed = 1;
nodes = (
"96 286 OFFCURVE",
"44 348 OFFCURVE",
"44 445 CURVE SMOOTH",
"44 541 OFFCURVE",
"96 603 OFFCURVE",
"163 603 CURVE SMOOTH",
"229 603 OFFCURVE",
"281 541 OFFCURVE",
"281 445 CURVE SMOOTH",
"281 348 OFFCURVE",
"229 286 OFFCURVE",
"163 286 CURVE SMOOTH"
);
},
{
closed = 1;
nodes = (
"521 584 LINE",
"95 -13 LINE",
"72 6 LINE",
"498 603 LINE"
);
},
{
closed = 1;
nodes = (
"74 375 OFFCURVE",
"114 317 OFFCURVE",
"163 317 CURVE SMOOTH",
"211 317 OFFCURVE",
"251 375 OFFCURVE",
"251 445 CURVE SMOOTH",
"251 516 OFFCURVE",
"211 574 OFFCURVE",
"163 574 CURVE SMOOTH",
"114 574 OFFCURVE",
"74 516 OFFCURVE",
"74 445 CURVE SMOOTH"
);
},
{
closed = 1;
nodes = (
"371 -13 OFFCURVE",
"319 49 OFFCURVE",
"319 146 CURVE SMOOTH",
"319 242 OFFCURVE",
"371 304 OFFCURVE",
"438 304 CURVE SMOOTH",
"504 304 OFFCURVE",
"556 242 OFFCURVE",
"556 146 CURVE SMOOTH",
"556 49 OFFCURVE",
"504 -13 OFFCURVE",
"438 -13 CURVE SMOOTH"
);
},
{
closed = 1;
nodes = (
"349 76 OFFCURVE",
"389 18 OFFCURVE",
"438 18 CURVE SMOOTH",
"486 18 OFFCURVE",
"526 76 OFFCURVE",
"526 146 CURVE SMOOTH",
"526 217 OFFCURVE",
"486 275 OFFCURVE",
"438 275 CURVE SMOOTH",
"389 275 OFFCURVE",
"349 217 OFFCURVE",
"349 146 CURVE SMOOTH"
);
}
);
width = 600;
},
{
associatedMasterId = "2B3DFD70-41A3-4B85-88D0-92073D9863EC";
layerId = "A206CB0E-A5DF-451A-B460-30968105549C";
paths = (
{
closed = 1;
nodes = (
"231 286 OFFCURVE",
"283 348 OFFCURVE",
"283 445 CURVE SMOOTH",
"283 541 OFFCURVE",
"231 603 OFFCURVE",
"165 603 CURVE SMOOTH",
"98 603 OFFCURVE",
"46 541 OFFCURVE",
"46 445 CURVE SMOOTH",
"46 348 OFFCURVE",
"98 286 OFFCURVE",
"165 286 CURVE SMOOTH"
);
},
{
closed = 1;
nodes = (
"126 336 OFFCURVE",
"95 377 OFFCURVE",
"95 443 CURVE SMOOTH",
"95 512 OFFCURVE",
"126 553 OFFCURVE",
"165 553 CURVE SMOOTH",
"204 553 OFFCURVE",
"233 512 OFFCURVE",
"233 443 CURVE SMOOTH",
"233 377 OFFCURVE",
"204 336 OFFCURVE",
"165 336 CURVE SMOOTH"
);
},
{
closed = 1;
nodes = (
"504 -13 OFFCURVE",
"556 49 OFFCURVE",
"556 146 CURVE SMOOTH",
"556 242 OFFCURVE",
"504 304 OFFCURVE",
"438 304 CURVE SMOOTH",
"371 304 OFFCURVE",
"319 242 OFFCURVE",
"319 146 CURVE SMOOTH",
"319 49 OFFCURVE",
"371 -13 OFFCURVE",
"438 -13 CURVE SMOOTH"
);
},
{
closed = 1;
nodes = (
"399 37 OFFCURVE",
"368 78 OFFCURVE",
"368 144 CURVE SMOOTH",
"368 213 OFFCURVE",
"399 254 OFFCURVE",
"438 254 CURVE SMOOTH",
"477 254 OFFCURVE",
"506 213 OFFCURVE",
"506 144 CURVE SMOOTH",
"506 78 OFFCURVE",
"487 37 OFFCURVE",
"438 37 CURVE SMOOTH"
);
},
{
closed = 1;
nodes = (
"108 -15 LINE",
"527 573 LINE",
"490 603 LINE",
"478.171 586.439 LINE",
"439 537 OFFCURVE",
"385 505 OFFCURVE",
"348 505 CURVE SMOOTH",
"313 505 OFFCURVE",
"260 547 OFFCURVE",
"244 566 CURVE",
"272 497 LINE",
"285 472 OFFCURVE",
"319 459 OFFCURVE",
"348 459 CURVE SMOOTH",
"370 459 OFFCURVE",
"387.932 469.371 OFFCURVE",
"404.975 483.964 CURVE",
"70 15 LINE"
);
}
);
visible = 1;
width = 600;
},
{
layerId = "2B3DFD70-41A3-4B85-88D0-92073D9863EC";
paths = (
{
closed = 1;
nodes = (
"44 541 OFFCURVE",
"96 603 OFFCURVE",
"163 603 CURVE SMOOTH",
"194 603 OFFCURVE",
"221 590 OFFCURVE",
"242 566 CURVE SMOOTH",
"258 547 OFFCURVE",
"301 496 OFFCURVE",
"346 496 CURVE SMOOTH",
"398 496 OFFCURVE",
"458 554 OFFCURVE",
"498 603 CURVE",
"521 584 LINE",
"95 -13 LINE",
"72 6 LINE",
"417.572 490.287 LINE",
"394.563 474.324 OFFCURVE",
"369.792 466 OFFCURVE",
"346 466 CURVE SMOOTH",
"314.934 466 OFFCURVE",
"290.214 477.421 OFFCURVE",
"275.882 494.703 CURVE",
"279.213 479.423 OFFCURVE",
"281 462.795 OFFCURVE",
"281 445 CURVE SMOOTH",
"281 348 OFFCURVE",
"229 286 OFFCURVE",
"163 286 CURVE SMOOTH",
"96 286 OFFCURVE",
"44 348 OFFCURVE",
"44 445 CURVE SMOOTH"
);
},
{
closed = 1;
nodes = (
"74 375 OFFCURVE",
"114 317 OFFCURVE",
"163 317 CURVE SMOOTH",
"211 317 OFFCURVE",
"251 375 OFFCURVE",
"251 445 CURVE SMOOTH",
"251 516 OFFCURVE",
"211 574 OFFCURVE",
"163 574 CURVE SMOOTH",
"114 574 OFFCURVE",
"74 516 OFFCURVE",
"74 445 CURVE SMOOTH"
);
},
{
closed = 1;
nodes = (
"319 242 OFFCURVE",
"371 304 OFFCURVE",
"438 304 CURVE SMOOTH",
"504 304 OFFCURVE",
"556 242 OFFCURVE",
"556 146 CURVE SMOOTH",
"556 49 OFFCURVE",
"504 -13 OFFCURVE",
"438 -13 CURVE SMOOTH",
"371 -13 OFFCURVE",
"319 49 OFFCURVE",
"319 146 CURVE SMOOTH"
);
},
{
closed = 1;
nodes = (
"349 76 OFFCURVE",
"389 18 OFFCURVE",
"438 18 CURVE SMOOTH",
"486 18 OFFCURVE",
"526 76 OFFCURVE",
"526 146 CURVE SMOOTH",
"526 217 OFFCURVE",
"486 275 OFFCURVE",
"438 275 CURVE SMOOTH",
"389 275 OFFCURVE",
"349 217 OFFCURVE",
"349 146 CURVE SMOOTH"
);
}
);
width = 600;
}
);
note = percent;
unicode = 0025;
},
{
glyphname = ampersand;
lastChange = "2018-05-04 08:01:45 +0000";
layers = (
{
layerId = "2B3DFD70-41A3-4B85-88D0-92073D9863EC";
paths = (
{
closed = 1;
nodes = (
"80 289 OFFCURVE",
"18 246 OFFCURVE",
"18 163 CURVE SMOOTH",
"18 65 OFFCURVE",
"92 -13 OFFCURVE",
"187 -13 CURVE SMOOTH",
"253 -13 OFFCURVE",
"311 47 OFFCURVE",
"358 116 CURVE",
"420 39 OFFCURVE",
"456 -14 OFFCURVE",
"501 -14 CURVE SMOOTH",
"557 -14 OFFCURVE",
"567 22 OFFCURVE",
"596 99 CURVE",
"568 109 LINE",
"543 34 OFFCURVE",
"534 16 OFFCURVE",
"501 16 CURVE SMOOTH",
"473 16 OFFCURVE",
"417 88 OFFCURVE",
"371 151 CURVE",
"423 244 OFFCURVE",
"445 314 OFFCURVE",
"497 314 CURVE SMOOTH",
"523 314 OFFCURVE",
"552 299 OFFCURVE",
"556 262 CURVE",
"551 269 OFFCURVE",
"542 270 OFFCURVE",
"535 270 CURVE SMOOTH",
"521 270 OFFCURVE",
"505 256 OFFCURVE",
"505 239 CURVE SMOOTH",
"505 219 OFFCURVE",
"522 202 OFFCURVE",
"542 202 CURVE SMOOTH",
"565 202 OFFCURVE",
"585 221 OFFCURVE",
"585 247 CURVE SMOOTH",
"585 307 OFFCURVE",
"546 344 OFFCURVE",
"497 344 CURVE SMOOTH",
"426 344 OFFCURVE",
"396 256 OFFCURVE",
"351 175 CURVE",
"196 365 LINE",
"249 414 OFFCURVE",
"277 453 OFFCURVE",
"277 499 CURVE SMOOTH",
"277 557 OFFCURVE",
"233 603 OFFCURVE",
"178 603 CURVE SMOOTH",
"123 603 OFFCURVE",
"79 557 OFFCURVE",
"79 499 CURVE SMOOTH",
"79 453 OFFCURVE",
"102 414 OFFCURVE",
"153 362 CURVE"
);
},
{
closed = 1;
nodes = (
"131 433 OFFCURVE",
"109 463 OFFCURVE",
"109 499 CURVE SMOOTH",
"109 542 OFFCURVE",
"138 573 OFFCURVE",
"178 573 CURVE SMOOTH",
"218 573 OFFCURVE",
"247 542 OFFCURVE",
"247 499 CURVE SMOOTH",
"247 463 OFFCURVE",
"225 433 OFFCURVE",
"178 387 CURVE"
);
},
{
closed = 1;
nodes = (
"51 226 OFFCURVE",
"101 273 OFFCURVE",
"174 337 CURVE",
"333 145 LINE",
"292 81 OFFCURVE",
"248 20 OFFCURVE",
"187 20 CURVE SMOOTH",
"107 20 OFFCURVE",
"51 75 OFFCURVE",
"51 163 CURVE SMOOTH"
);
}
);
width = 600;
}
);
note = ampersand;
unicode = 0026;
},
{
glyphname = quotesingle;
lastChange = "2018-05-04 08:01:45 +0000";
layers = (
{
layerId = "2B3DFD70-41A3-4B85-88D0-92073D9863EC";
paths = (
{
closed = 1;
nodes = (
"225 466 OFFCURVE",
"252 494 OFFCURVE",
"252 522 CURVE SMOOTH",
"252 541 OFFCURVE",
"246 558 OFFCURVE",
"235 567 CURVE",
"264 558 OFFCURVE",
"287 515 OFFCURVE",
"287 473 CURVE SMOOTH",
"287 408 OFFCURVE",
"229 342 OFFCURVE",
"162 335 CURVE",
"166 310 LINE",
"238 317 OFFCURVE",
"312 388 OFFCURVE",
"312 473 CURVE SMOOTH",
"312 548 OFFCURVE",
"265 603 OFFCURVE",
"204 603 CURVE SMOOTH",
"164 603 OFFCURVE",
"126 575 OFFCURVE",
"126 534 CURVE SMOOTH",
"126 495 OFFCURVE",
"155 466 OFFCURVE",
"192 466 CURVE SMOOTH"
);
}
);
width = 600;
}
);
note = quotesingle;
unicode = 0027;
},
{
glyphname = parenleft;
lastChange = "2018-05-04 08:01:45 +0000";
layers = (
{
layerId = "2B3DFD70-41A3-4B85-88D0-92073D9863EC";
paths = (
{
closed = 1;
nodes = (
"232 92 OFFCURVE",
"334 -55 OFFCURVE",
"492 -111 CURVE",
"500 -83 LINE",
"366 -36 OFFCURVE",
"262 100 OFFCURVE",
"262 248 CURVE SMOOTH",
"262 394 OFFCURVE",
"365 533 OFFCURVE",
"500 580 CURVE",
"492 608 LINE",
"337 553 OFFCURVE",
"232 408 OFFCURVE",
"232 248 CURVE SMOOTH"
);
}
);
width = 600;
}
);
note = parenleft;
unicode = 0028;
},
{
glyphname = parenright;
lastChange = "2018-05-04 08:01:45 +0000";
layers = (
{
layerId = "2B3DFD70-41A3-4B85-88D0-92073D9863EC";
paths = (
{
closed = 1;
nodes = (
"368 408 OFFCURVE",
"263 553 OFFCURVE",
"108 608 CURVE",
"100 580 LINE",
"235 533 OFFCURVE",
"338 394 OFFCURVE",
"338 248 CURVE SMOOTH",
"338 100 OFFCURVE",
"234 -36 OFFCURVE",
"100 -83 CURVE",
"108 -111 LINE",
"266 -55 OFFCURVE",
"368 92 OFFCURVE",
"368 248 CURVE SMOOTH"
);
}
);
width = 600;
}
);
note = parenright;
unicode = 0029;
},
{
glyphname = asterisk;
lastChange = "2018-05-04 08:01:45 +0000";
layers = (
{
layerId = "2B3DFD70-41A3-4B85-88D0-92073D9863EC";
paths = (
{
closed = 1;
nodes = (
"294 464 OFFCURVE",
"279 547 OFFCURVE",
"268 566 CURVE SMOOTH",
"256 586 OFFCURVE",
"235 595 OFFCURVE",
"215 583 CURVE",
"195 572 OFFCURVE",
"192 549 OFFCURVE",
"203 529 CURVE SMOOTH",
"214 510 OFFCURVE",
"280 455 OFFCURVE",
"287 459 CURVE"
);
},
{
closed = 1;
nodes = (
"320 455 OFFCURVE",
"386 510 OFFCURVE",
"397 529 CURVE SMOOTH",
"408 549 OFFCURVE",
"405 572 OFFCURVE",
"385 583 CURVE",
"365 595 OFFCURVE",
"344 586 OFFCURVE",
"332 566 CURVE SMOOTH",
"321 547 OFFCURVE",
"306 464 OFFCURVE",
"313 459 CURVE"
);
},
{
closed = 1;
nodes = (
"273 445 OFFCURVE",
"193 473 OFFCURVE",
"171 473 CURVE SMOOTH",
"148 473 OFFCURVE",
"130 459 OFFCURVE",
"130 436 CURVE SMOOTH",
"130 413 OFFCURVE",
"148 399 OFFCURVE",
"171 399 CURVE SMOOTH",
"193 399 OFFCURVE",
"273 428 OFFCURVE",
"273 436 CURVE SMOOTH"
);
},
{
closed = 1;
nodes = (
"327 428 OFFCURVE",
"407 399 OFFCURVE",
"429 399 CURVE SMOOTH",
"452 399 OFFCURVE",
"470 413 OFFCURVE",
"470 436 CURVE SMOOTH",
"470 459 OFFCURVE",
"452 473 OFFCURVE",
"429 473 CURVE SMOOTH",
"407 473 OFFCURVE",
"327 445 OFFCURVE",
"327 436 CURVE SMOOTH"
);
},
{
closed = 1;
nodes = (
"279 417 OFFCURVE",
"214 362 OFFCURVE",
"203 343 CURVE SMOOTH",
"192 323 OFFCURVE",
"195 300 OFFCURVE",
"215 289 CURVE",
"235 277 OFFCURVE",
"256 286 OFFCURVE",
"268 306 CURVE SMOOTH",
"279 325 OFFCURVE",
"293 409 OFFCURVE",
"286 413 CURVE SMOOTH"
);
},
{
closed = 1;
nodes = (
"307 409 OFFCURVE",
"321 325 OFFCURVE",
"332 306 CURVE SMOOTH",
"344 286 OFFCURVE",
"365 277 OFFCURVE",
"385 289 CURVE",
"405 300 OFFCURVE",
"408 323 OFFCURVE",
"397 343 CURVE SMOOTH",
"386 362 OFFCURVE",
"321 417 OFFCURVE",
"314 413 CURVE SMOOTH"
);
}
);
width = 600;
}
);
note = asterisk;
unicode = 002A;
},
{
glyphname = plus;
lastChange = "2018-05-04 08:01:45 +0000";
layers = (
{
layerId = "2B3DFD70-41A3-4B85-88D0-92073D9863EC";
paths = (
{
closed = 1;
nodes = (
"85 200 LINE",
"85 230 LINE",
"285 230 LINE",
"285 430 LINE",
"315 430 LINE",
"315 230 LINE",
"515 230 LINE",
"515 200 LINE",
"315 200 LINE",
"315 0 LINE",
"285 0 LINE",
"285 200 LINE"
);
}
);
width = 600;
}
);
note = plus;
unicode = 002B;
},
{
glyphname = comma;
lastChange = "2018-05-04 08:01:45 +0000";
layers = (
{
layerId = "2B3DFD70-41A3-4B85-88D0-92073D9863EC";
paths = (
{
closed = 1;
nodes = (
"306 -12 OFFCURVE",
"333 16 OFFCURVE",
"333 44 CURVE SMOOTH",
"333 63 OFFCURVE",
"327 80 OFFCURVE",
"316 89 CURVE",
"345 80 OFFCURVE",
"368 37 OFFCURVE",
"368 -5 CURVE SMOOTH",
"368 -70 OFFCURVE",
"310 -136 OFFCURVE",
"243 -143 CURVE",
"247 -168 LINE",
"319 -161 OFFCURVE",
"393 -90 OFFCURVE",
"393 -5 CURVE SMOOTH",
"393 70 OFFCURVE",
"346 125 OFFCURVE",
"285 125 CURVE SMOOTH",
"245 125 OFFCURVE",
"207 97 OFFCURVE",
"207 56 CURVE SMOOTH",
"207 17 OFFCURVE",
"236 -12 OFFCURVE",
"273 -12 CURVE SMOOTH"
);
}
);
width = 600;
}
);
note = comma;
unicode = 002C;
},
{
glyphname = hyphen;
lastChange = "2018-05-29 15:20:32 +0000";
layers = (
{
layerId = "2B3DFD70-41A3-4B85-88D0-92073D9863EC";
paths = (
{
closed = 1;
nodes = (
"88 200 LINE",
"88 230 LINE",
"518 230 LINE",
"518 200 LINE"
);
}
);
width = 600;
}
);
note = hyphen;
unicode = 002D;
},
{
glyphname = period;
lastChange = "2018-05-04 08:01:45 +0000";
layers = (
{
layerId = "2B3DFD70-41A3-4B85-88D0-92073D9863EC";
paths = (
{
closed = 1;
nodes = (
"337 -13 OFFCURVE",
"366 17 OFFCURVE",
"366 53 CURVE SMOOTH",
"366 89 OFFCURVE",
"337 120 OFFCURVE",
"301 120 CURVE SMOOTH",
"264 120 OFFCURVE",
"233 89 OFFCURVE",
"233 53 CURVE SMOOTH",
"233 18 OFFCURVE",
"264 -13 OFFCURVE",
"301 -13 CURVE SMOOTH"
);
}
);
width = 600;
}
);
note = period;
unicode = 002E;
},
{
glyphname = slash;
lastChange = "2018-05-04 08:01:45 +0000";
layers = (
{
layerId = "2B3DFD70-41A3-4B85-88D0-92073D9863EC";
paths = (
{
closed = 1;
nodes = (
"525 584 LINE",
"99 -13 LINE",
"76 6 LINE",
"502 603 LINE"
);
}
);
width = 600;
}
);
note = slash;
unicode = 002F;
},
{
glyphname = zero;
lastChange = "2018-05-04 08:01:45 +0000";
layers = (
{
layerId = "2B3DFD70-41A3-4B85-88D0-92073D9863EC";
paths = (
{
closed = 1;
nodes = (
"539 457 OFFCURVE",
"454 602 OFFCURVE",
"301 602 CURVE SMOOTH",
"148 602 OFFCURVE",
"62 457 OFFCURVE",
"62 294 CURVE SMOOTH",
"62 131 OFFCURVE",
"148 -13 OFFCURVE",
"301 -13 CURVE SMOOTH",
"454 -13 OFFCURVE",
"539 132 OFFCURVE",
"539 295 CURVE SMOOTH"
);
},
{
closed = 1;
nodes = (
"92 442 OFFCURVE",
"164 572 OFFCURVE",
"301 572 CURVE SMOOTH",
"438 572 OFFCURVE",
"509 442 OFFCURVE",
"509 294 CURVE SMOOTH",
"509 146 OFFCURVE",
"438 17 OFFCURVE",
"301 17 CURVE SMOOTH",
"164 17 OFFCURVE",
"92 147 OFFCURVE",
"92 295 CURVE SMOOTH"
);
}
);
width = 600;
}
);
note = zero;
unicode = 0030;
},
{
glyphname = one;
lastChange = "2018-05-04 08:01:45 +0000";
layers = (
{
layerId = "2B3DFD70-41A3-4B85-88D0-92073D9863EC";
paths = (
{
closed = 1;
nodes = (
"318 590 LINE",
"260 474 OFFCURVE",
"208 398 OFFCURVE",
"79 318 CURVE",
"93 295 LINE",
"217 371 OFFCURVE",
"267 432 OFFCURVE",
"326 541 CURVE",
"326 30 LINE",
"77 30 LINE",
"77 0 LINE",
"543 0 LINE",
"543 30 LINE",
"356 30 LINE",
"356 590 LINE"
);
}
);
width = 600;
}
);
note = one;
unicode = 0031;
},
{
glyphname = two;
lastChange = "2018-05-04 08:01:45 +0000";
layers = (
{
layerId = "2B3DFD70-41A3-4B85-88D0-92073D9863EC";
paths = (
{
closed = 1;
nodes = (
"110 517 OFFCURVE",
"210 573 OFFCURVE",
"293 573 CURVE SMOOTH",
"384 573 OFFCURVE",
"470 531 OFFCURVE",
"470 448 CURVE SMOOTH",
"470 374 OFFCURVE",
"440 344 OFFCURVE",
"339 301 CURVE SMOOTH",
"228 254 LINE SMOOTH",
"103 201 OFFCURVE",
"60 139 OFFCURVE",
"60 2 CURVE",
"92 -4 LINE",
"123 27 OFFCURVE",
"165 52 OFFCURVE",
"208 52 CURVE SMOOTH",
"271 52 OFFCURVE",
"338 -13 OFFCURVE",
"416 -13 CURVE SMOOTH",
"508 -13 OFFCURVE",
"541 44 OFFCURVE",
"541 155 CURVE SMOOTH",
"541 171 LINE",
"513 174 LINE",
"513 150 LINE SMOOTH",
"513 75 OFFCURVE",
"486 17 OFFCURVE",
"416 17 CURVE SMOOTH",
"352 17 OFFCURVE",
"275 82 OFFCURVE",
"208 82 CURVE SMOOTH",
"174 82 OFFCURVE",
"133 68 OFFCURVE",
"91 31 CURVE",
"91 137 OFFCURVE",
"144 187 OFFCURVE",
"247 230 CURVE SMOOTH",
"354 275 LINE SMOOTH",
"453 317 OFFCURVE",
"500 352 OFFCURVE",
"500 448 CURVE SMOOTH",
"500 553 OFFCURVE",
"407 603 OFFCURVE",
"293 603 CURVE SMOOTH",
"185 603 OFFCURVE",
"75 538 OFFCURVE",
"75 441 CURVE SMOOTH",
"75 397 OFFCURVE",
"109 375 OFFCURVE",
"134 375 CURVE SMOOTH",
"164 375 OFFCURVE",
"187 394 OFFCURVE",
"187 422 CURVE SMOOTH",
"187 447 OFFCURVE",
"167 467 OFFCURVE",
"146 467 CURVE SMOOTH",
"128 467 OFFCURVE",
"114 459 OFFCURVE",
"108 446 CURVE"
);
}
);
width = 600;
}
);
note = two;
unicode = 0032;
},
{
glyphname = three;
lastChange = "2018-05-04 08:01:45 +0000";
layers = (
{
layerId = "2B3DFD70-41A3-4B85-88D0-92073D9863EC";
paths = (
{
closed = 1;
nodes = (
"114 77 OFFCURVE",
"212 18 OFFCURVE",
"296 18 CURVE SMOOTH",
"402 18 OFFCURVE",
"488 87 OFFCURVE",
"488 190 CURVE SMOOTH",
"488 293 OFFCURVE",
"404 345 OFFCURVE",
"308 354 CURVE",
"280 325 LINE",
"258 346 LINE",
"463 560 LINE",
"154 560 LINE",
"118 405 LINE",
"89 411 LINE",
"130 590 LINE",
"505 590 LINE",
"505 560 LINE",
"333 380 LINE",
"421 369 OFFCURVE",
"518 315 OFFCURVE",
"518 190 CURVE SMOOTH",
"518 65 OFFCURVE",
"417 -13 OFFCURVE",
"295 -13 CURVE SMOOTH",
"182 -13 OFFCURVE",
"78 55 OFFCURVE",
"81 155 CURVE SMOOTH",
"81 199 OFFCURVE",
"115 221 OFFCURVE",
"140 221 CURVE SMOOTH",
"170 221 OFFCURVE",
"193 202 OFFCURVE",
"193 174 CURVE SMOOTH",
"193 149 OFFCURVE",
"173 128 OFFCURVE",
"152 128 CURVE SMOOTH",
"134 128 OFFCURVE",
"120 137 OFFCURVE",
"114 150 CURVE"
);
}
);
width = 600;
}
);
note = three;
unicode = 0033;
},
{
glyphname = four;
lastChange = "2018-05-04 08:01:45 +0000";
layers = (
{
layerId = "2B3DFD70-41A3-4B85-88D0-92073D9863EC";
paths = (
{
closed = 1;
nodes = (
"374 126 LINE",
"374 0 LINE",
"404 0 LINE",
"404 126 LINE",
"569 126 LINE",
"569 156 LINE",
"404 156 LINE",
"404 426 LINE",
"374 426 LINE",
"374 156 LINE",
"76 156 LINE",
"139 240 OFFCURVE",
"188 316 OFFCURVE",
"226 389 CURVE SMOOTH",
"264 461 OFFCURVE",
"289 525 OFFCURVE",
"308 597 CURVE",
"280 603 LINE",
"256 523 OFFCURVE",
"229 457 OFFCURVE",
"191 386 CURVE SMOOTH",
"153 315 OFFCURVE",
"105 244 OFFCURVE",
"44 164 CURVE",
"44 126 LINE"
);
}
);
width = 600;
}
);
note = four;
unicode = 0034;
},
{
glyphname = five;
lastChange = "2018-05-04 08:01:45 +0000";
layers = (
{
layerId = "2B3DFD70-41A3-4B85-88D0-92073D9863EC";
paths = (
{
closed = 1;
nodes = (
"122 78 OFFCURVE",
"195 16 OFFCURVE",
"298 16 CURVE SMOOTH",
"401 16 OFFCURVE",
"490 84 OFFCURVE",
"490 188 CURVE SMOOTH",
"490 290 OFFCURVE",
"403 353 OFFCURVE",
"305 353 CURVE SMOOTH",
"222 353 OFFCURVE",
"184 324 OFFCURVE",
"141 297 CURVE",
"108 314 LINE",
"149 590 LINE",
"487 590 LINE",
"487 560 LINE",
"175 560 LINE",
"141 330 LINE",
"195 367 OFFCURVE",
"238 383 OFFCURVE",
"315 383 CURVE SMOOTH",
"429 383 OFFCURVE",
"520 301 OFFCURVE",
"520 188 CURVE SMOOTH",
"520 64 OFFCURVE",
"418 -14 OFFCURVE",
"298 -14 CURVE SMOOTH",
"178 -14 OFFCURVE",
"89 62 OFFCURVE",
"89 157 CURVE SMOOTH",
"89 201 OFFCURVE",
"123 223 OFFCURVE",
"148 223 CURVE SMOOTH",
"178 223 OFFCURVE",
"201 204 OFFCURVE",
"201 176 CURVE SMOOTH",
"201 151 OFFCURVE",
"181 130 OFFCURVE",
"160 130 CURVE SMOOTH",
"142 130 OFFCURVE",
"128 139 OFFCURVE",
"122 152 CURVE"
);
}
);
width = 600;
}
);
note = five;
unicode = 0035;
},
{
glyphname = six;
lastChange = "2018-05-04 08:01:45 +0000";
layers = (
{
layerId = "2B3DFD70-41A3-4B85-88D0-92073D9863EC";
paths = (
{
closed = 1;
nodes = (
"468 486 OFFCURVE",
"446 489 OFFCURVE",
"435 489 CURVE SMOOTH",
"415 489 OFFCURVE",
"391 473 OFFCURVE",
"391 445 CURVE SMOOTH",
"391 413 OFFCURVE",
"415 396 OFFCURVE",
"443 396 CURVE SMOOTH",
"479 396 OFFCURVE",
"504 428 OFFCURVE",
"504 467 CURVE SMOOTH",
"504 546 OFFCURVE",
"439 603 OFFCURVE",
"335 603 CURVE SMOOTH",
"167 603 OFFCURVE",
"75 465 OFFCURVE",
"75 276 CURVE SMOOTH",
"75 115 OFFCURVE",
"165 -13 OFFCURVE",
"306 -13 CURVE SMOOTH",
"428 -13 OFFCURVE",
"525 64 OFFCURVE",
"525 180 CURVE SMOOTH",
"525 296 OFFCURVE",
"446 367 OFFCURVE",
"322 367 CURVE SMOOTH",
"237 367 OFFCURVE",
"167 326 OFFCURVE",
"104 251 CURVE",
"104 302 LINE SMOOTH",
"104 444 OFFCURVE",
"192 573 OFFCURVE",
"335 573 CURVE SMOOTH",
"420 573 OFFCURVE",
"472 531 OFFCURVE",
"478 467 CURVE"
);
},
{
closed = 1;
nodes = (
"113 219 LINE SMOOTH",
"172 293 OFFCURVE",
"237 337 OFFCURVE",
"322 337 CURVE SMOOTH",
"419 337 OFFCURVE",
"495 279 OFFCURVE",
"495 180 CURVE SMOOTH",
"495 81 OFFCURVE",
"408 17 OFFCURVE",
"306 17 CURVE SMOOTH",
"199 17 OFFCURVE",
"130 94 OFFCURVE",
"109 214 CURVE"
);
}
);
width = 600;
}
);
note = six;
unicode = 0036;
},
{
glyphname = seven;
lastChange = "2018-05-04 08:01:45 +0000";
layers = (
{
layerId = "2B3DFD70-41A3-4B85-88D0-92073D9863EC";
paths = (
{
closed = 1;
nodes = (
"119 399 LINE",
"114 443 LINE",
"142 530 OFFCURVE",
"174 573 OFFCURVE",
"222 573 CURVE SMOOTH",
"284 573 OFFCURVE",
"337 526 OFFCURVE",
"412 526 CURVE SMOOTH",
"435 526 OFFCURVE",
"470 534 OFFCURVE",
"502 550 CURVE",
"477 486 OFFCURVE",
"432 422 OFFCURVE",
"389 375 CURVE SMOOTH",
"308 286 OFFCURVE",
"264 225 OFFCURVE",
"264 114 CURVE SMOOTH",
"264 0 LINE",
"294 0 LINE",
"294 114 LINE SMOOTH",
"294 210 OFFCURVE",
"335 266 OFFCURVE",
"410 353 CURVE SMOOTH",
"488 444 OFFCURVE",
"509 475 OFFCURVE",
"542 582 CURVE",
"513 596 LINE",
"490 575 OFFCURVE",
"448 556 OFFCURVE",
"412 556 CURVE SMOOTH",
"343 556 OFFCURVE",
"301 603 OFFCURVE",
"222 603 CURVE SMOOTH",
"174 603 OFFCURVE",
"126 568 OFFCURVE",
"110 504 CURVE",
"102 597 LINE",
"75 594 LINE",
"92 396 LINE"
);
}
);
width = 600;
}
);
note = seven;
unicode = 0037;
},
{
glyphname = eight;
lastChange = "2018-05-04 08:01:45 +0000";
layers = (
{
layerId = "2B3DFD70-41A3-4B85-88D0-92073D9863EC";
paths = (
{
closed = 1;
nodes = (
"198 603 OFFCURVE",
"110 549 OFFCURVE",
"110 459 CURVE SMOOTH",
"110 396 OFFCURVE",
"153 351 OFFCURVE",
"209 331 CURVE",
"153 320 OFFCURVE",
"78 256 OFFCURVE",
"78 168 CURVE SMOOTH",
"78 61 OFFCURVE",
"187 -14 OFFCURVE",
"300 -14 CURVE SMOOTH",
"413 -14 OFFCURVE",
"522 61 OFFCURVE",
"522 168 CURVE SMOOTH",
"522 256 OFFCURVE",
"447 320 OFFCURVE",
"391 331 CURVE",
"447 351 OFFCURVE",
"490 396 OFFCURVE",
"490 459 CURVE SMOOTH",
"490 549 OFFCURVE",
"402 603 OFFCURVE",
"300 603 CURVE SMOOTH"
);
},
{
closed = 1;
nodes = (
"220 342 OFFCURVE",
"140 389 OFFCURVE",
"140 459 CURVE SMOOTH",
"140 529 OFFCURVE",
"213 573 OFFCURVE",
"300 573 CURVE SMOOTH",
"387 573 OFFCURVE",
"460 529 OFFCURVE",
"460 459 CURVE SMOOTH",
"460 389 OFFCURVE",
"380 342 OFFCURVE",
"300 342 CURVE SMOOTH"
);
},
{
closed = 1;
nodes = (
"203 16 OFFCURVE",
"108 78 OFFCURVE",
"108 168 CURVE SMOOTH",
"108 256 OFFCURVE",
"196 320 OFFCURVE",
"300 320 CURVE SMOOTH",
"404 320 OFFCURVE",
"492 256 OFFCURVE",
"492 168 CURVE SMOOTH",
"492 78 OFFCURVE",
"397 16 OFFCURVE",
"300 16 CURVE SMOOTH"
);
}
);
width = 600;
}
);
note = eight;
unicode = 0038;
},
{
glyphname = nine;
lastChange = "2018-05-04 08:01:45 +0000";
layers = (
{
layerId = "2B3DFD70-41A3-4B85-88D0-92073D9863EC";
paths = (
{
closed = 1;
nodes = (
"132 104 OFFCURVE",
"154 101 OFFCURVE",
"165 101 CURVE SMOOTH",
"185 101 OFFCURVE",
"209 117 OFFCURVE",
"209 145 CURVE SMOOTH",
"209 177 OFFCURVE",
"185 194 OFFCURVE",
"157 194 CURVE SMOOTH",
"121 194 OFFCURVE",
"96 162 OFFCURVE",
"96 123 CURVE SMOOTH",
"96 44 OFFCURVE",
"161 -13 OFFCURVE",
"265 -13 CURVE SMOOTH",
"433 -13 OFFCURVE",
"525 125 OFFCURVE",
"525 314 CURVE SMOOTH",
"525 475 OFFCURVE",
"435 603 OFFCURVE",
"294 603 CURVE SMOOTH",
"172 603 OFFCURVE",
"75 526 OFFCURVE",
"75 410 CURVE SMOOTH",
"75 294 OFFCURVE",
"154 223 OFFCURVE",
"278 223 CURVE SMOOTH",
"363 223 OFFCURVE",
"433 264 OFFCURVE",
"496 339 CURVE",
"496 288 LINE SMOOTH",
"496 146 OFFCURVE",
"408 17 OFFCURVE",
"265 17 CURVE SMOOTH",
"180 17 OFFCURVE",
"128 59 OFFCURVE",
"122 123 CURVE"
);
},
{
closed = 1;
nodes = (
"487 371 LINE SMOOTH",
"428 297 OFFCURVE",
"363 253 OFFCURVE",
"278 253 CURVE SMOOTH",
"181 253 OFFCURVE",
"105 311 OFFCURVE",
"105 410 CURVE SMOOTH",
"105 509 OFFCURVE",
"192 573 OFFCURVE",
"294 573 CURVE SMOOTH",
"401 573 OFFCURVE",
"470 496 OFFCURVE",
"491 376 CURVE"
);
}
);
width = 600;
}
);
note = nine;
unicode = 0039;
},
{
glyphname = colon;
lastChange = "2018-05-04 08:01:45 +0000";
layers = (
{
layerId = "2B3DFD70-41A3-4B85-88D0-92073D9863EC";
paths = (
{
closed = 1;
nodes = (
"339 310 OFFCURVE",
"367 341 OFFCURVE",
"367 376 CURVE SMOOTH",
"367 412 OFFCURVE",
"339 443 OFFCURVE",
"302 443 CURVE SMOOTH",
"265 443 OFFCURVE",
"234 412 OFFCURVE",
"234 376 CURVE SMOOTH",
"234 341 OFFCURVE",
"265 310 OFFCURVE",
"302 310 CURVE SMOOTH"
);
},
{
closed = 1;
nodes = (
"339 -13 OFFCURVE",
"367 18 OFFCURVE",
"367 53 CURVE SMOOTH",
"367 89 OFFCURVE",
"339 120 OFFCURVE",
"302 120 CURVE SMOOTH",
"265 120 OFFCURVE",
"234 89 OFFCURVE",
"234 53 CURVE SMOOTH",
"234 18 OFFCURVE",
"265 -13 OFFCURVE",
"302 -13 CURVE SMOOTH"
);
}
);
width = 600;
}
);
note = colon;
unicode = 003A;
},
{
glyphname = semicolon;
lastChange = "2018-06-06 13:35:25 +0000";
layers = (
{
layerId = "2B3DFD70-41A3-4B85-88D0-92073D9863EC";
paths = (
{
closed = 1;
nodes = (
"298 310 OFFCURVE",
"327 340 OFFCURVE",
"327 376 CURVE SMOOTH",
"327 412 OFFCURVE",
"298 443 OFFCURVE",
"262 443 CURVE SMOOTH",
"225 443 OFFCURVE",
"194 412 OFFCURVE",
"194 376 CURVE SMOOTH",
"194 341 OFFCURVE",
"225 310 OFFCURVE",
"262 310 CURVE SMOOTH"
);
},
{
closed = 1;
nodes = (
"292 -13 OFFCURVE",
"319 15 OFFCURVE",
"319 43 CURVE SMOOTH",
"319 62 OFFCURVE",
"313 79 OFFCURVE",
"302 88 CURVE",
"331 79 OFFCURVE",
"354 36 OFFCURVE",
"354 -6 CURVE SMOOTH",
"354 -71 OFFCURVE",
"296 -137 OFFCURVE",
"229 -144 CURVE",
"233 -169 LINE",
"305 -162 OFFCURVE",
"379 -91 OFFCURVE",
"379 -6 CURVE SMOOTH",
"379 69 OFFCURVE",
"332 124 OFFCURVE",
"271 124 CURVE SMOOTH",
"231 124 OFFCURVE",
"193 96 OFFCURVE",
"193 55 CURVE SMOOTH",
"193 16 OFFCURVE",
"222 -13 OFFCURVE",
"259 -13 CURVE SMOOTH"
);
}
);
width = 600;
}
);
note = semicolon;
unicode = 003B;
},
{
glyphname = less;
lastChange = "2018-05-04 08:01:45 +0000";
layers = (
{
layerId = "2B3DFD70-41A3-4B85-88D0-92073D9863EC";
paths = (
{
closed = 1;
nodes = (
"66 245 LINE",
"474 466 LINE",
"488 439 LINE",
"95 227 LINE",
"488 14 LINE",
"474 -13 LINE",
"66 208 LINE"
);
}
);
width = 600;
}
);
note = less;
unicode = 003C;
},
{
glyphname = equal;
lastChange = "2018-05-04 08:01:45 +0000";
layers = (
{
layerId = "2B3DFD70-41A3-4B85-88D0-92073D9863EC";
paths = (
{
closed = 1;
nodes = (
"69 326 LINE",
"531 326 LINE",
"531 296 LINE",
"69 296 LINE"
);
},
{
closed = 1;
nodes = (
"69 134 LINE",
"531 134 LINE",
"531 104 LINE",
"69 104 LINE"
);
}
);
width = 600;
}
);
note = equal;
unicode = 003D;
},
{
glyphname = greater;
lastChange = "2018-05-04 08:01:45 +0000";
layers = (
{
layerId = "2B3DFD70-41A3-4B85-88D0-92073D9863EC";
paths = (
{
closed = 1;
nodes = (
"534 245 LINE",
"534 208 LINE",
"126 -13 LINE",
"112 14 LINE",
"505 227 LINE",
"112 439 LINE",
"126 466 LINE"
);
}
);
width = 600;
}
);
note = greater;
unicode = 003E;
},
{
glyphname = question;
lastChange = "2018-06-06 13:31:27 +0000";
layers = (
{
layerId = "2B3DFD70-41A3-4B85-88D0-92073D9863EC";
paths = (
{
closed = 1;
nodes = (
"507 561 OFFCURVE",
"393 603 OFFCURVE",
"300 603 CURVE SMOOTH",
"180 603 OFFCURVE",
"84 542 OFFCURVE",
"84 453 CURVE SMOOTH",
"84 413 OFFCURVE",
"115 392 OFFCURVE",
"140 392 CURVE SMOOTH",
"166 392 OFFCURVE",
"187 412 OFFCURVE",
"187 438 CURVE SMOOTH",
"187 457 OFFCURVE",
"168 480 OFFCURVE",
"146 480 CURVE SMOOTH",
"127 480 OFFCURVE",
"118 470 OFFCURVE",
"113 467 CURVE",
"113 523 OFFCURVE",
"195 573 OFFCURVE",
"300 573 CURVE SMOOTH",
"390 573 OFFCURVE",
"476 530 OFFCURVE",
"476 446 CURVE SMOOTH",
"476 385 OFFCURVE",
"438 361 OFFCURVE",
"378 328 CURVE SMOOTH",
"325 299 LINE SMOOTH",
"250 258 OFFCURVE",
"207 241 OFFCURVE",
"207 194 CURVE SMOOTH",
"207 167 OFFCURVE",
"233 134 OFFCURVE",
"273 134 CURVE SMOOTH",
"302 134 OFFCURVE",
"322 143 OFFCURVE",
"350 169 CURVE",
"331 190 LINE",
"318 178 OFFCURVE",
"297 164 OFFCURVE",
"273 164 CURVE SMOOTH",
"251 164 OFFCURVE",
"237 177 OFFCURVE",
"237 194 CURVE SMOOTH",
"237 221 OFFCURVE",
"267 234 OFFCURVE",
"339 273 CURVE SMOOTH",
"391 301 LINE SMOOTH",
"451 333 OFFCURVE",
"505 364 OFFCURVE",
"506 446 CURVE SMOOTH"
);
},
{
closed = 1;
nodes = (
"311 -13 OFFCURVE",
"334 11 OFFCURVE",
"334 38 CURVE SMOOTH",
"334 65 OFFCURVE",
"311 89 OFFCURVE",
"283 89 CURVE SMOOTH",
"255 89 OFFCURVE",
"231 65 OFFCURVE",
"231 38 CURVE SMOOTH",
"231 11 OFFCURVE",
"255 -13 OFFCURVE",
"283 -13 CURVE SMOOTH"
);
}
);
width = 600;
}
);
note = question;
unicode = 003F;
},
{
glyphname = at;
lastChange = "2018-05-04 08:01:45 +0000";
layers = (
{
layerId = "2B3DFD70-41A3-4B85-88D0-92073D9863EC";
paths = (
{
closed = 1;
nodes = (
"456 159 LINE SMOOTH",
"457 97 OFFCURVE",
"482 80 OFFCURVE",
"511 80 CURVE SMOOTH",
"542 80 OFFCURVE",
"563 110 OFFCURVE",
"583 152 CURVE",
"556 165 LINE",
"540 133 OFFCURVE",
"525 110 OFFCURVE",
"511 110 CURVE SMOOTH",
"495 110 OFFCURVE",
"486 125 OFFCURVE",
"486 159 CURVE SMOOTH",
"486 413 LINE SMOOTH",
"486 496 OFFCURVE",
"414 532 OFFCURVE",
"322 532 CURVE SMOOTH",
"148 532 OFFCURVE",
"29 412 OFFCURVE",
"29 224 CURVE SMOOTH",
"29 40 OFFCURVE",
"124 -89 OFFCURVE",
"301 -92 CURVE SMOOTH",
"351 -93 OFFCURVE",
"450 -79 OFFCURVE",
"490 -48 CURVE",
"476 -22 LINE",
"426 -54 OFFCURVE",
"345 -63 OFFCURVE",
"301 -62 CURVE SMOOTH",
"143 -58 OFFCURVE",
"59 56 OFFCURVE",
"59 224 CURVE SMOOTH",
"59 388 OFFCURVE",
"159 502 OFFCURVE",
"322 502 CURVE SMOOTH",
"396 502 OFFCURVE",
"456 479 OFFCURVE",
"456 409 CURVE SMOOTH",
"456 359 OFFCURVE",
"405 350 OFFCURVE",
"338 348 CURVE SMOOTH",
"257 346 OFFCURVE",
"187 290 OFFCURVE",
"187 206 CURVE SMOOTH",
"187 135 OFFCURVE",
"235 80 OFFCURVE",
"300 80 CURVE SMOOTH",
"362 80 OFFCURVE",
"393 103 OFFCURVE",
"456 176 CURVE"
);
},
{
closed = 1;
nodes = (
"217 272 OFFCURVE",
"271 316 OFFCURVE",
"336 318 CURVE SMOOTH",
"385 320 OFFCURVE",
"435 325 OFFCURVE",
"456 347 CURVE",
"456 224 LINE",
"408 165 OFFCURVE",
"367 110 OFFCURVE",
"301 110 CURVE SMOOTH",
"251 110 OFFCURVE",
"217 153 OFFCURVE",
"217 207 CURVE SMOOTH"
);
}
);
width = 600;
}
);
note = at;
unicode = 0040;
},
{
glyphname = A;
lastChange = "2018-05-29 19:31:12 +0000";
layers = (
{
anchors = (
{
name = top;
position = "{289, 590}";
}
);
guideLines = (
{
position = "{247, 736}";
}
);
layerId = "2B3DFD70-41A3-4B85-88D0-92073D9863EC";
paths = (
{
closed = 1;
nodes = (
"24 0 LINE",
"212 0 LINE",
"212 30 LINE",
"123 30 LINE",
"190 226 LINE",
"409 226 LINE",
"476 30 LINE",
"387 30 LINE",
"387 0 LINE",
"575 0 LINE",
"575 30 LINE",
"508 30 LINE",
"321 590 LINE",
"319 590 LINE SMOOTH",
"268 590 OFFCURVE",
"227 592 OFFCURVE",
"177 603 CURVE",
"170 575 LINE",
"202 568 OFFCURVE",
"234 565 OFFCURVE",
"269 562 CURVE",
"91 30 LINE",
"24 30 LINE"
);
},
{
closed = 1;
nodes = (
"200 256 LINE",
"300 559 LINE",
"399 256 LINE"
);
}
);
width = 600;
}
);
note = A;
unicode = 0041;
},
{
glyphname = B;
lastChange = "2018-05-29 19:31:16 +0000";
layers = (
{
layerId = "2B3DFD70-41A3-4B85-88D0-92073D9863EC";
paths = (
{
closed = 1;
nodes = (
"487 322 OFFCURVE",
"521 382 OFFCURVE",
"521 438 CURVE SMOOTH",
"521 545 OFFCURVE",
"436 596 OFFCURVE",
"315 592 CURVE SMOOTH",
"286 591 OFFCURVE",
"203 590 OFFCURVE",
"162 590 CURVE SMOOTH",
"116 590 OFFCURVE",
"78 593 OFFCURVE",
"32 603 CURVE",
"25 575 LINE",
"56 568 OFFCURVE",
"102 560 OFFCURVE",
"133 560 CURVE",
"133 30 LINE",
"30 30 LINE",
"30 0 LINE",
"148 0 LINE SMOOTH",
"179 0 OFFCURVE",
"281 -3 OFFCURVE",
"311 -4 CURVE SMOOTH",
"438 -9 OFFCURVE",
"554 40 OFFCURVE",
"554 161 CURVE SMOOTH",
"554 254 OFFCURVE",
"486 303 OFFCURVE",
"420 313 CURVE"
);
},
{
closed = 1;
nodes = (
"491 354 OFFCURVE",
"420 328 OFFCURVE",
"326 328 CURVE SMOOTH",
"163 328 LINE",
"163 560 LINE",
"170 560 LINE SMOOTH",
"205 560 OFFCURVE",
"293 562 OFFCURVE",
"315 562 CURVE SMOOTH",
"426 562 OFFCURVE",
"491 524 OFFCURVE",
"491 438 CURVE SMOOTH"
);
},
{
closed = 1;
nodes = (
"163 31 LINE",
"163 298 LINE",
"326 298 LINE SMOOTH",
"440 298 OFFCURVE",
"524 254 OFFCURVE",
"524 161 CURVE SMOOTH",
"524 60 OFFCURVE",
"421 22 OFFCURVE",
"310 26 CURVE SMOOTH"
);
}
);
width = 600;
}
);
note = B;
unicode = 0042;
},
{
glyphname = C;
lastChange = "2018-05-04 08:01:45 +0000";
layers = (
{
layerId = "2B3DFD70-41A3-4B85-88D0-92073D9863EC";
paths = (
{
closed = 1;
nodes = (
"460 511 OFFCURVE",
"374 573 OFFCURVE",
"298 573 CURVE SMOOTH",
"159 573 OFFCURVE",
"63 449 OFFCURVE",
"63 288 CURVE SMOOTH",
"63 128 OFFCURVE",
"164 17 OFFCURVE",
"300 17 CURVE SMOOTH",
"426 17 OFFCURVE",
"508 106 OFFCURVE",
"552 231 CURVE",
"580 219 LINE",
"527 76 OFFCURVE",
"437 -13 OFFCURVE",
"300 -13 CURVE SMOOTH",
"140 -13 OFFCURVE",
"33 119 OFFCURVE",
"33 288 CURVE SMOOTH",
"33 464 OFFCURVE",
"138 603 OFFCURVE",
"298 603 CURVE SMOOTH",
"410 603 OFFCURVE",
"495 511 OFFCURVE",
"495 408 CURVE SMOOTH",
"495 367 OFFCURVE",
"473 333 OFFCURVE",
"434 333 CURVE SMOOTH",
"399 333 OFFCURVE",
"378 360 OFFCURVE",
"378 394 CURVE SMOOTH",
"378 437 OFFCURVE",
"435 460 OFFCURVE",
"460 430 CURVE"
);
}
);
width = 600;
}
);
note = C;
unicode = 0043;
},
{
glyphname = D;
lastChange = "2018-07-05 08:09:47 +0000";
layers = (
{
layerId = "2B3DFD70-41A3-4B85-88D0-92073D9863EC";
paths = (
{
closed = 1;
nodes = (
"20 575 LINE",
"52 568 OFFCURVE",
"99 560 OFFCURVE",
"130 560 CURVE SMOOTH",
"131 560 LINE",
"131 30 LINE",
"38 30 LINE",
"38 0 LINE",
"279 0 LINE SMOOTH",
"356 0 OFFCURVE",
"420 22 OFFCURVE",
"469 61 CURVE SMOOTH",
"532 111 OFFCURVE",
"570 192 OFFCURVE",
"570 290 CURVE SMOOTH",
"570 378 OFFCURVE",
"541 456 OFFCURVE",
"488 511 CURVE SMOOTH",
"439 561 OFFCURVE",
"371 593 OFFCURVE",
"297 593 CURVE SMOOTH",
"254 593 OFFCURVE",
"224 589 OFFCURVE",
"169 589 CURVE SMOOTH",
"118 589 OFFCURVE",
"77 592 OFFCURVE",
"27 603 CURVE"
);
},
{
closed = 1;
nodes = (
"161 30 LINE",
"161 558 LINE",
"181 559 OFFCURVE",
"268 563 OFFCURVE",
"296 563 CURVE SMOOTH",
"437 563 OFFCURVE",
"540 446 OFFCURVE",
"540 290 CURVE SMOOTH",
"540 129 OFFCURVE",
"431 30 OFFCURVE",
"279 30 CURVE SMOOTH"
);
}
);
width = 600;
}
);
note = D;
unicode = 0044;
},
{
glyphname = E;
lastChange = "2018-05-29 19:31:40 +0000";
layers = (
{
anchors = (
{
name = top;
position = "{305, 590}";
}
);
layerId = "2B3DFD70-41A3-4B85-88D0-92073D9863EC";
paths = (
{
closed = 1;
nodes = (
"41 30 LINE",
"165 30 LINE",
"165 560 LINE",
"41 560 LINE",
"41 590 LINE",
"531 590 LINE",
"550 373 LINE",
"520 370 LINE",
"504 560 LINE",
"195 560 LINE",
"195 307 LINE",
"365 307 LINE",
"365 427 LINE",
"395 427 LINE",
"395 162 LINE",
"365 162 LINE",
"365 277 LINE",
"195 277 LINE",
"195 30 LINE",
"504 30 LINE",
"522 220 LINE",
"552 217 LINE",
"531 0 LINE",
"41 0 LINE"
);
}
);
width = 600;
}
);
note = E;
unicode = 0045;
},
{
glyphname = F;
lastChange = "2018-05-29 19:31:50 +0000";
layers = (
{
layerId = "2B3DFD70-41A3-4B85-88D0-92073D9863EC";
paths = (
{
closed = 1;
nodes = (
"27 31 LINE",
"159 31 LINE",
"159 560 LINE",
"27 560 LINE",
"27 590 LINE",
"528 590 LINE",
"552 303 LINE",
"522 300 LINE",
"500 560 LINE",
"189 560 LINE",
"189 307 LINE",
"360 307 LINE",
"360 430 LINE",
"390 430 LINE",
"390 165 LINE",
"360 165 LINE",
"360 277 LINE",
"189 277 LINE",
"189 31 LINE",
"315 31 LINE",
"315 0 LINE",
"27 0 LINE"
);
}
);
width = 600;
}
);
note = F;
unicode = 0046;
},
{
glyphname = G;
lastChange = "2018-05-04 08:01:45 +0000";
layers = (
{
layerId = "2B3DFD70-41A3-4B85-88D0-92073D9863EC";
paths = (
{
closed = 1;
nodes = (
"465 533 OFFCURVE",
"380 573 OFFCURVE",
"286 573 CURVE SMOOTH",
"145 573 OFFCURVE",
"59 454 OFFCURVE",
"59 288 CURVE SMOOTH",
"59 130 OFFCURVE",
"139 17 OFFCURVE",
"283 17 CURVE SMOOTH",
"373 17 OFFCURVE",
"479 114 OFFCURVE",
"479 206 CURVE SMOOTH",
"479 235 LINE",
"290 235 LINE",
"290 265 LINE",
"582 265 LINE",
"582 235 LINE",
"509 235 LINE",
"509 0 LINE",
"479 0 LINE",
"479 116 LINE",
"441 46 OFFCURVE",
"365 -13 OFFCURVE",
"283 -13 CURVE SMOOTH",
"120 -13 OFFCURVE",
"29 117 OFFCURVE",
"29 288 CURVE SMOOTH",
"29 465 OFFCURVE",
"123 603 OFFCURVE",
"286 603 CURVE SMOOTH",
"420 603 OFFCURVE",
"505 536 OFFCURVE",
"505 439 CURVE SMOOTH",
"505 398 OFFCURVE",
"482 367 OFFCURVE",
"448 367 CURVE SMOOTH",
"410 367 OFFCURVE",
"388 392 OFFCURVE",
"388 424 CURVE SMOOTH",
"388 473 OFFCURVE",
"451 488 OFFCURVE",
"474 455 CURVE"
);
}
);
width = 600;
}
);
note = G;
unicode = 0047;
},
{
glyphname = H;
lastChange = "2018-05-29 19:32:15 +0000";
layers = (
{
layerId = "2B3DFD70-41A3-4B85-88D0-92073D9863EC";
paths = (
{
closed = 1;
nodes = (
"27 0 LINE",
"27 30 LINE",
"119 30 LINE",
"119 560 LINE",
"27 560 LINE",
"27 590 LINE",
"256 590 LINE",
"256 560 LINE",
"149 560 LINE",
"149 318 LINE",
"451 318 LINE",
"451 560 LINE",
"344 560 LINE",
"344 590 LINE",
"573 590 LINE",
"573 560 LINE",
"481 560 LINE",
"481 30 LINE",
"573 30 LINE",
"573 0 LINE",
"344 0 LINE",
"344 30 LINE",
"451 30 LINE",
"451 288 LINE",
"149 288 LINE",
"149 30 LINE",
"256 30 LINE",
"256 0 LINE"
);
}
);
width = 600;
}
);
note = H;
unicode = 0048;
},
{
glyphname = I;
lastChange = "2018-05-29 19:32:23 +0000";
layers = (
{
anchors = (
{
name = top;
position = "{300, 590}";
}
);
layerId = "2B3DFD70-41A3-4B85-88D0-92073D9863EC";
paths = (
{
closed = 1;
nodes = (
"315 560 LINE",
"315 30 LINE",
"498 30 LINE",
"498 0 LINE",
"102 0 LINE",
"102 30 LINE",
"285 30 LINE",
"285 560 LINE",
"102 560 LINE",
"102 590 LINE",
"498 590 LINE",
"498 560 LINE"
);
}
);
width = 600;
}
);
note = I;
unicode = 0049;
},
{
glyphname = J;
lastChange = "2018-05-29 19:32:35 +0000";
layers = (
{
layerId = "2B3DFD70-41A3-4B85-88D0-92073D9863EC";
paths = (
{
closed = 1;
nodes = (
"98 268 OFFCURVE",
"53 224 OFFCURVE",
"53 145 CURVE SMOOTH",
"53 52 OFFCURVE",
"152 -13 OFFCURVE",
"245 -13 CURVE SMOOTH",
"382 -13 OFFCURVE",
"447 84 OFFCURVE",
"447 243 CURVE SMOOTH",
"447 560 LINE",
"582 560 LINE",
"582 590 LINE",
"172 590 LINE",
"172 560 LINE",
"417 560 LINE",
"417 243 LINE SMOOTH",
"417 107 OFFCURVE",
"371 17 OFFCURVE",
"244 17 CURVE SMOOTH",
"161 17 OFFCURVE",
"87 73 OFFCURVE",
"83 145 CURVE SMOOTH",
"81 186 OFFCURVE",
"94 202 OFFCURVE",
"107 216 CURVE",
"101 194 OFFCURVE",
"119 165 OFFCURVE",
"152 165 CURVE SMOOTH",
"181 165 OFFCURVE",
"200 184 OFFCURVE",
"199 215 CURVE SMOOTH",
"198 244 OFFCURVE",
"179 268 OFFCURVE",
"139 268 CURVE SMOOTH"
);
}
);
width = 600;
}
);
note = J;
unicode = 004A;
},
{
glyphname = K;
lastChange = "2018-05-29 19:32:51 +0000";
layers = (
{
layerId = "2B3DFD70-41A3-4B85-88D0-92073D9863EC";
paths = (
{
closed = 1;
nodes = (
"253 32 LINE",
"157 32 LINE",
"157 169 LINE",
"284 312 LINE",
"406 90 LINE SMOOTH",
"446 18 OFFCURVE",
"476 -13 OFFCURVE",
"520 -13 CURVE SMOOTH",
"567 -13 OFFCURVE",
"611 22 OFFCURVE",
"611 99 CURVE SMOOTH",
"611 126 LINE",
"581 126 LINE",
"581 100 LINE SMOOTH",
"581 42 OFFCURVE",
"558 17 OFFCURVE",
"520 17 CURVE SMOOTH",
"482 17 OFFCURVE",
"455 62 OFFCURVE",
"431 106 CURVE SMOOTH",
"305 335 LINE",
"500 560 LINE",
"571 560 LINE",
"571 590 LINE",
"349 590 LINE",
"349 560 LINE",
"461 560 LINE",
"157 214 LINE",
"157 560 LINE",
"253 560 LINE",
"253 590 LINE",
"40 590 LINE",
"40 560 LINE",
"127 560 LINE",
"127 32 LINE",
"40 32 LINE",
"40 0 LINE",
"253 0 LINE"
);
}
);
width = 600;
}
);
note = K;
unicode = 004B;
},
{
glyphname = L;
lastChange = "2018-05-29 19:33:04 +0000";
layers = (
{
layerId = "2B3DFD70-41A3-4B85-88D0-92073D9863EC";
paths = (
{
closed = 1;
nodes = (
"514 30 LINE",
"536 291 LINE",
"566 287 LINE",
"542 0 LINE",
"56 0 LINE",
"56 30 LINE",
"168 30 LINE",
"168 560 LINE",
"56 560 LINE",
"56 590 LINE",
"310 590 LINE",
"310 560 LINE",
"198 560 LINE",
"198 30 LINE"
);
}
);
width = 600;
}
);
note = L;
unicode = 004C;
},
{
glyphname = M;
lastChange = "2018-05-29 19:33:23 +0000";
layers = (
{
layerId = "2B3DFD70-41A3-4B85-88D0-92073D9863EC";
paths = (
{
closed = 1;
nodes = (
"282 64 LINE",
"118 553 LINE",
"118 30 LINE",
"184 30 LINE",
"184 0 LINE",
"32 0 LINE",
"32 30 LINE",
"88 30 LINE",
"88 560 LINE",
"32 560 LINE",
"32 590 LINE",
"137 590 LINE",
"300 103 LINE",
"463 590 LINE",
"570 590 LINE",
"570 560 LINE",
"512 560 LINE",
"512 30 LINE",
"568 30 LINE",
"568 0 LINE",
"416 0 LINE",
"416 30 LINE",
"482 30 LINE",
"482 553 LINE",
"318 64 LINE"
);
}
);
width = 600;
}
);
note = M;
unicode = 004D;
},
{
glyphname = N;
lastChange = "2018-05-04 08:01:45 +0000";
layers = (
{
layerId = "2B3DFD70-41A3-4B85-88D0-92073D9863EC";
paths = (
{
closed = 1;
nodes = (
"373 590 LINE",
"373 560 LINE",
"455 560 LINE",
"455 30 LINE",
"168 590 LINE",
"165 590 LINE SMOOTH",
"117 590 OFFCURVE",
"78 593 OFFCURVE",
"30 603 CURVE",
"23 575 LINE",
"51 569 OFFCURVE",
"92 562 OFFCURVE",
"122 560 CURVE",
"122 30 LINE",
"30 30 LINE",
"30 0 LINE",
"234 0 LINE",
"234 30 LINE",
"152 30 LINE",
"153 554 LINE",
"437 0 LINE",
"485 0 LINE",
"485 560 LINE",
"577 560 LINE",
"577 590 LINE"
);
}
);
width = 600;
}
);
note = N;
unicode = 004E;
},
{
glyphname = O;
lastChange = "2018-05-29 14:49:34 +0000";
layers = (
{
anchors = (
{
name = top;
position = "{299, 603}";
}
);
layerId = "2B3DFD70-41A3-4B85-88D0-92073D9863EC";
paths = (
{
closed = 1;
nodes = (
"134 603 OFFCURVE",
"21 458 OFFCURVE",
"23 296 CURVE SMOOTH",
"25 120 OFFCURVE",
"142 -13 OFFCURVE",
"300 -13 CURVE SMOOTH",
"458 -13 OFFCURVE",
"577 120 OFFCURVE",
"577 296 CURVE SMOOTH",
"577 458 OFFCURVE",
"466 603 OFFCURVE",
"300 603 CURVE SMOOTH"
);
},
{
closed = 1;
nodes = (
"165 16 OFFCURVE",
"51 128 OFFCURVE",
"53 296 CURVE SMOOTH",
"55 463 OFFCURVE",
"166 572 OFFCURVE",
"300 573 CURVE SMOOTH",
"434 574 OFFCURVE",
"545 463 OFFCURVE",
"547 296 CURVE SMOOTH",
"549 128 OFFCURVE",
"435 18 OFFCURVE",
"300 17 CURVE SMOOTH"
);
}
);
width = 600;
}
);
note = O;
unicode = 004F;
},
{
glyphname = P;
lastChange = "2018-05-29 19:33:37 +0000";
layers = (
{
layerId = "2B3DFD70-41A3-4B85-88D0-92073D9863EC";
paths = (
{
closed = 1;
nodes = (
"303 593 OFFCURVE",
"215 592 OFFCURVE",
"172 590 CURVE",
"130 591 OFFCURVE",
"93 593 OFFCURVE",
"50 603 CURVE",
"43 575 LINE",
"72 569 OFFCURVE",
"113 561 OFFCURVE",
"144 560 CURVE",
"144 30 LINE",
"43 30 LINE",
"43 0 LINE",
"285 0 LINE",
"285 30 LINE",
"174 30 LINE",
"174 220 LINE",
"202 220 OFFCURVE",
"274 218 OFFCURVE",
"312 218 CURVE SMOOTH",
"460 218 OFFCURVE",
"555 282 OFFCURVE",
"556 403 CURVE SMOOTH",
"557 532 OFFCURVE",
"454 593 OFFCURVE",
"331 593 CURVE SMOOTH"
);
},
{
closed = 1;
nodes = (
"277 248 OFFCURVE",
"222 250 OFFCURVE",
"174 250 CURVE",
"174 559 LINE",
"201 559 OFFCURVE",
"307 563 OFFCURVE",
"331 563 CURVE SMOOTH",
"434 563 OFFCURVE",
"526 517 OFFCURVE",
"526 403 CURVE SMOOTH",
"526 296 OFFCURVE",
"437 248 OFFCURVE",
"312 248 CURVE SMOOTH"
);
}
);
width = 600;
}
);
note = P;
unicode = 0050;
},
{
glyphname = Q;
lastChange = "2018-05-04 08:01:45 +0000";
layers = (
{
layerId = "2B3DFD70-41A3-4B85-88D0-92073D9863EC";
paths = (
{
closed = 1;
nodes = (
"40 130 OFFCURVE",
"140 -5 OFFCURVE",
"288 -13 CURVE",
"288 -44 LINE SMOOTH",
"288 -130 OFFCURVE",
"327 -172 OFFCURVE",
"387 -172 CURVE SMOOTH",
"442 -172 OFFCURVE",
"484 -128 OFFCURVE",
"484 -30 CURVE",
"454 -30 LINE",
"453 -84 OFFCURVE",
"439 -142 OFFCURVE",
"387 -142 CURVE SMOOTH",
"338 -142 OFFCURVE",
"318 -106 OFFCURVE",
"318 -45 CURVE SMOOTH",
"318 -12 LINE",
"464 -3 OFFCURVE",
"561 131 OFFCURVE",
"561 295 CURVE SMOOTH",
"561 465 OFFCURVE",
"456 603 OFFCURVE",
"301 603 CURVE SMOOTH",
"146 603 OFFCURVE",
"40 465 OFFCURVE",
"40 295 CURVE SMOOTH"
);
},
{
closed = 1;
nodes = (
"70 450 OFFCURVE",
"168 573 OFFCURVE",
"301 573 CURVE SMOOTH",
"434 573 OFFCURVE",
"531 450 OFFCURVE",
"531 295 CURVE SMOOTH",
"531 147 OFFCURVE",
"442 28 OFFCURVE",
"318 18 CURVE",
"318 87 LINE SMOOTH",
"318 191 OFFCURVE",
"286 255 OFFCURVE",
"205 255 CURVE SMOOTH",
"146 255 OFFCURVE",
"110 213 OFFCURVE",
"99 156 CURVE",
"81 197 OFFCURVE",
"70 244 OFFCURVE",
"70 295 CURVE SMOOTH"
);
},
{
closed = 1;
nodes = (
"130 185 OFFCURVE",
"159 225 OFFCURVE",
"205 225 CURVE SMOOTH",
"265 225 OFFCURVE",
"288 184 OFFCURVE",
"288 87 CURVE SMOOTH",
"288 17 LINE",
"219 22 OFFCURVE",
"160 60 OFFCURVE",
"121 118 CURVE"
);
}
);
width = 600;
}
);
note = Q;
unicode = 0051;
},
{
glyphname = R;
lastChange = "2018-05-29 19:33:44 +0000";
layers = (
{
layerId = "2B3DFD70-41A3-4B85-88D0-92073D9863EC";
paths = (
{
closed = 1;
nodes = (
"557 126 LINE",
"557 61 OFFCURVE",
"547 17 OFFCURVE",
"501 17 CURVE SMOOTH",
"458 17 OFFCURVE",
"437 81 OFFCURVE",
"412 184 CURVE SMOOTH",
"407 205 OFFCURVE",
"390 254 OFFCURVE",
"350 275 CURVE",
"448 295 OFFCURVE",
"510 352 OFFCURVE",
"511 433 CURVE SMOOTH",
"512 540 OFFCURVE",
"423 593 OFFCURVE",
"289 593 CURVE SMOOTH",
"265 593 OFFCURVE",
"172 592 OFFCURVE",
"129 590 CURVE",
"95 590 OFFCURVE",
"65 592 OFFCURVE",
"32 598 CURVE",
"26 570 LINE",
"52 566 OFFCURVE",
"79 561 OFFCURVE",
"102 560 CURVE",
"102 30 LINE",
"24 30 LINE",
"24 0 LINE",
"223 0 LINE",
"223 30 LINE",
"132 30 LINE",
"132 270 LINE",
"158 270 OFFCURVE",
"218 268 OFFCURVE",
"261 268 CURVE SMOOTH",
"333 268 OFFCURVE",
"370 239 OFFCURVE",
"385 170 CURVE",
"413 63 OFFCURVE",
"432 -13 OFFCURVE",
"501 -13 CURVE SMOOTH",
"568 -13 OFFCURVE",
"587 43 OFFCURVE",
"587 126 CURVE"
);
},
{
closed = 1;
nodes = (
"132 559 LINE",
"159 559 OFFCURVE",
"270 563 OFFCURVE",
"289 563 CURVE SMOOTH",
"392 563 OFFCURVE",
"481 531 OFFCURVE",
"481 433 CURVE SMOOTH",
"481 346 OFFCURVE",
"395 298 OFFCURVE",
"270 298 CURVE SMOOTH",
"230 298 OFFCURVE",
"180 300 OFFCURVE",
"132 300 CURVE"
);
}
);
width = 600;
}
);
note = R;
unicode = 0052;
},
{
glyphname = S;
lastChange = "2018-05-04 08:01:45 +0000";
layers = (
{
layerId = "2B3DFD70-41A3-4B85-88D0-92073D9863EC";
paths = (
{
closed = 1;
nodes = (
"472 540 OFFCURVE",
"385 573 OFFCURVE",
"297 573 CURVE SMOOTH",
"210 573 OFFCURVE",
"116 529 OFFCURVE",
"116 462 CURVE SMOOTH",
"116 388 OFFCURVE",
"171 358 OFFCURVE",
"269 339 CURVE SMOOTH",
"343 325 LINE SMOOTH",
"453 304 OFFCURVE",
"535 252 OFFCURVE",
"535 156 CURVE SMOOTH",
"535 44 OFFCURVE",
"425 -13 OFFCURVE",
"309 -13 CURVE SMOOTH",
"195 -13 OFFCURVE",
"65 42 OFFCURVE",
"65 133 CURVE SMOOTH",
"65 174 OFFCURVE",
"88 203 OFFCURVE",
"123 203 CURVE SMOOTH",
"157 203 OFFCURVE",
"183 178 OFFCURVE",
"183 146 CURVE SMOOTH",
"183 97 OFFCURVE",
"123 80 OFFCURVE",
"99 111 CURVE",
"134 42 OFFCURVE",
"210 17 OFFCURVE",
"309 17 CURVE SMOOTH",
"420 17 OFFCURVE",
"505 70 OFFCURVE",
"505 156 CURVE SMOOTH",
"505 233 OFFCURVE",
"435 278 OFFCURVE",
"341 295 CURVE SMOOTH",
"263 309 LINE SMOOTH",
"160 327 OFFCURVE",
"86 370 OFFCURVE",
"86 462 CURVE SMOOTH",
"86 550 OFFCURVE",
"195 603 OFFCURVE",
"297 603 CURVE SMOOTH",
"410 603 OFFCURVE",
"520 556 OFFCURVE",
"520 468 CURVE SMOOTH",
"520 427 OFFCURVE",
"495 397 OFFCURVE",
"461 397 CURVE SMOOTH",
"426 397 OFFCURVE",
"399 421 OFFCURVE",
"399 453 CURVE SMOOTH",
"399 502 OFFCURVE",
"461 520 OFFCURVE",
"485 487 CURVE"
);
}
);
width = 600;
}
);
note = S;
unicode = 0053;
},
{
glyphname = T;
lastChange = "2018-05-29 19:33:50 +0000";
layers = (
{
layerId = "2B3DFD70-41A3-4B85-88D0-92073D9863EC";
paths = (
{
closed = 1;
nodes = (
"40 303 LINE",
"63 590 LINE",
"542 590 LINE",
"566 303 LINE",
"536 300 LINE",
"514 560 LINE",
"318 560 LINE",
"318 30 LINE",
"443 30 LINE",
"443 0 LINE",
"163 0 LINE",
"163 30 LINE",
"288 30 LINE",
"288 560 LINE",
"92 560 LINE",
"70 300 LINE"
);
}
);
width = 600;
}
);
note = T;
unicode = 0054;
},
{
glyphname = U;
lastChange = "2018-05-29 19:33:58 +0000";
layers = (
{
anchors = (
{
name = top;
position = "{296, 590}";
}
);
guideLines = (
{
position = "{320, 301}";
}
);
layerId = "2B3DFD70-41A3-4B85-88D0-92073D9863EC";
paths = (
{
closed = 1;
nodes = (
"33 560 LINE",
"104 560 LINE",
"104 208 LINE SMOOTH",
"104 75 OFFCURVE",
"177 -13 OFFCURVE",
"300 -13 CURVE SMOOTH",
"423 -13 OFFCURVE",
"496 75 OFFCURVE",
"496 208 CURVE SMOOTH",
"496 560 LINE",
"567 560 LINE",
"567 590 LINE",
"368 590 LINE",
"368 560 LINE",
"466 560 LINE",
"466 208 LINE SMOOTH",
"466 95 OFFCURVE",
"410 17 OFFCURVE",
"300 17 CURVE SMOOTH",
"190 17 OFFCURVE",
"134 95 OFFCURVE",
"134 208 CURVE SMOOTH",
"134 560 LINE",
"232 560 LINE",
"232 590 LINE",
"33 590 LINE"
);
}
);
width = 600;
}
);
note = U;
unicode = 0055;
},
{
glyphname = V;
lastChange = "2018-05-29 19:34:13 +0000";
layers = (
{
layerId = "2B3DFD70-41A3-4B85-88D0-92073D9863EC";
paths = (
{
closed = 1;
nodes = (
"29 560 LINE",
"74 560 LINE",
"279 0 LINE",
"321 0 LINE",
"526 560 LINE",
"571 560 LINE",
"571 590 LINE",
"386 590 LINE",
"386 560 LINE",
"494 560 LINE",
"300 29 LINE",
"106 560 LINE",
"214 560 LINE",
"214 590 LINE",
"29 590 LINE"
);
}
);
width = 600;
}
);
note = V;
unicode = 0056;
},
{
glyphname = W;
lastChange = "2018-05-04 08:01:45 +0000";
layers = (
{
layerId = "2B3DFD70-41A3-4B85-88D0-92073D9863EC";
paths = (
{
closed = 1;
nodes = (
"427 590 LINE",
"427 560 LINE",
"516 560 LINE",
"410 42 LINE",
"315 500 LINE",
"284 500 LINE",
"189 42 LINE",
"83 560 LINE",
"172 560 LINE",
"172 590 LINE",
"19 590 LINE",
"19 560 LINE",
"52 560 LINE",
"166 0 LINE",
"211 0 LINE",
"300 425 LINE",
"388 0 LINE",
"433 0 LINE",
"547 560 LINE",
"580 560 LINE",
"580 590 LINE"
);
}
);
width = 600;
}
);
note = W;
unicode = 0057;
},
{
glyphname = X;
lastChange = "2018-05-29 19:34:22 +0000";
layers = (
{
layerId = "2B3DFD70-41A3-4B85-88D0-92073D9863EC";
paths = (
{
closed = 1;
nodes = (
"559 560 LINE",
"559 590 LINE",
"375 590 LINE",
"375 560 LINE",
"454 560 LINE",
"299 323 LINE",
"144 560 LINE",
"223 560 LINE",
"223 590 LINE",
"39 590 LINE",
"39 560 LINE",
"108 560 LINE",
"281 295 LINE",
"108 30 LINE",
"39 30 LINE",
"39 0 LINE",
"223 0 LINE",
"223 30 LINE",
"144 30 LINE",
"299 267 LINE",
"454 30 LINE",
"375 30 LINE",
"375 0 LINE",
"559 0 LINE",
"559 30 LINE",
"490 30 LINE",
"317 295 LINE",
"490 560 LINE"
);
}
);
width = 600;
}
);
note = X;
unicode = 0058;
},
{
glyphname = Y;
lastChange = "2018-05-29 19:34:30 +0000";
layers = (
{
anchors = (
{
name = top;
position = "{296, 588}";
}
);
layerId = "2B3DFD70-41A3-4B85-88D0-92073D9863EC";
paths = (
{
closed = 1;
nodes = (
"32 560 LINE",
"32 590 LINE",
"240 590 LINE",
"240 560 LINE",
"139 560 LINE",
"300 263 LINE",
"461 560 LINE",
"360 560 LINE",
"360 590 LINE",
"568 590 LINE",
"568 560 LINE",
"495 560 LINE",
"316 229 LINE",
"316 30 LINE",
"435 30 LINE",
"435 0 LINE",
"165 0 LINE",
"165 30 LINE",
"284 30 LINE",
"284 229 LINE",
"105 560 LINE"
);
}
);
width = 600;
}
);
note = Y;
unicode = 0059;
},
{
glyphname = Z;
lastChange = "2018-05-29 19:34:38 +0000";
layers = (
{
layerId = "2B3DFD70-41A3-4B85-88D0-92073D9863EC";
paths = (
{
closed = 1;
nodes = (
"73 303 LINE",
"103 301 LINE",
"125 560 LINE",
"476 560 LINE",
"80 30 LINE",
"80 0 LINE",
"498 0 LINE",
"522 287 LINE",
"492 290 LINE",
"470 30 LINE",
"117 30 LINE",
"514 560 LINE",
"514 590 LINE",
"97 590 LINE"
);
}
);
width = 600;
}
);
note = Z;
unicode = 005A;
},
{
glyphname = bracketleft;
lastChange = "2018-05-04 08:01:45 +0000";
layers = (
{
layerId = "2B3DFD70-41A3-4B85-88D0-92073D9863EC";
paths = (
{
closed = 1;
nodes = (
"519 -93 LINE",
"260 -93 LINE",
"260 590 LINE",
"519 590 LINE",
"519 560 LINE",
"290 560 LINE",
"290 -63 LINE",
"519 -63 LINE"
);
}
);
width = 600;
}
);
note = bracketleft;
unicode = 005B;
},
{
glyphname = backslash;
lastChange = "2018-05-04 08:01:45 +0000";
layers = (
{
layerId = "2B3DFD70-41A3-4B85-88D0-92073D9863EC";
paths = (
{
closed = 1;
nodes = (
"76 584 LINE",
"99 603 LINE",
"525 6 LINE",
"502 -13 LINE"
);
}
);
width = 600;
}
);
note = backslash;
unicode = 005C;
},
{
glyphname = bracketright;
lastChange = "2018-05-04 08:01:45 +0000";
layers = (
{
layerId = "2B3DFD70-41A3-4B85-88D0-92073D9863EC";
paths = (
{
closed = 1;
nodes = (
"81 -92 LINE",
"81 -62 LINE",
"310 -62 LINE",
"310 560 LINE",
"81 560 LINE",
"81 590 LINE",
"340 590 LINE",
"340 -92 LINE"
);
}
);
width = 600;
}
);
note = bracketright;
unicode = 005D;
},
{
glyphname = asciicircum;
lastChange = "2018-05-04 08:01:45 +0000";
layers = (
{
layerId = "2B3DFD70-41A3-4B85-88D0-92073D9863EC";
paths = (
{
closed = 1;
nodes = (
"282 603 LINE",
"318 603 LINE",
"450 360 LINE",
"423 346 LINE",
"300 574 LINE",
"177 346 LINE",
"150 360 LINE"
);
}
);
width = 600;
}
);
note = asciicircum;
unicode = 005E;
},
{
glyphname = underscore;
lastChange = "2018-05-04 08:01:45 +0000";
layers = (
{
layerId = "2B3DFD70-41A3-4B85-88D0-92073D9863EC";
paths = (
{
closed = 1;
nodes = (
"125 -33 LINE",
"485 -33 LINE",
"485 -83 LINE",
"125 -83 LINE"
);
}
);
width = 600;
}
);
note = underscore;
unicode = 005F;
},
{
glyphname = grave;
lastChange = "2018-05-04 08:01:45 +0000";
layers = (
{
layerId = "2B3DFD70-41A3-4B85-88D0-92073D9863EC";
paths = (
{
closed = 1;
nodes = (
"442 499 LINE",
"438 479 LINE",
"124 542 LINE",
"133 580 LINE"
);
}
);
width = 600;
}
);
note = grave;
unicode = 0060;
},
{
glyphname = a;
lastChange = "2018-05-04 08:01:45 +0000";
layers = (
{
layerId = "2B3DFD70-41A3-4B85-88D0-92073D9863EC";
paths = (
{
closed = 1;
nodes = (
"421 67 LINE SMOOTH",
"422 5 OFFCURVE",
"447 -13 OFFCURVE",
"476 -13 CURVE SMOOTH",
"520 -13 OFFCURVE",
"541 44 OFFCURVE",
"569 107 CURVE",
"542 120 LINE",
"518 66 OFFCURVE",
"498 17 OFFCURVE",
"476 17 CURVE SMOOTH",
"460 17 OFFCURVE",
"451 33 OFFCURVE",
"451 67 CURVE SMOOTH",
"451 317 LINE SMOOTH",
"451 404 OFFCURVE",
"351 443 OFFCURVE",
"255 443 CURVE SMOOTH",
"171 443 OFFCURVE",
"80 396 OFFCURVE",
"80 330 CURVE SMOOTH",
"80 298 OFFCURVE",
"96 271 OFFCURVE",
"129 271 CURVE SMOOTH",
"160 271 OFFCURVE",
"184 285 OFFCURVE",
"184 321 CURVE SMOOTH",
"184 348 OFFCURVE",
"159 360 OFFCURVE",
"140 360 CURVE SMOOTH",
"134 360 OFFCURVE",
"120 357 OFFCURVE",
"112 352 CURVE",
"138 392 OFFCURVE",
"196 413 OFFCURVE",
"255 413 CURVE SMOOTH",
"330 413 OFFCURVE",
"421 386 OFFCURVE",
"421 317 CURVE SMOOTH",
"421 251 OFFCURVE",
"358 248 OFFCURVE",
"253 243 CURVE SMOOTH",
"147 238 OFFCURVE",
"45 204 OFFCURVE",
"43 112 CURVE SMOOTH",
"41 33 OFFCURVE",
"102 -13 OFFCURVE",
"184 -13 CURVE SMOOTH",
"270 -13 OFFCURVE",
"336 22 OFFCURVE",
"421 91 CURVE"
);
},
{
closed = 1;
nodes = (
"73 181 OFFCURVE",
"164 213 OFFCURVE",
"253 213 CURVE SMOOTH",
"313 213 OFFCURVE",
"391 219 OFFCURVE",
"421 251 CURVE",
"421 131 LINE",
"339 62 OFFCURVE",
"275 17 OFFCURVE",
"185 17 CURVE SMOOTH",
"116 17 OFFCURVE",
"73 49 OFFCURVE",
"73 112 CURVE SMOOTH"
);
}
);
width = 600;
}
);
note = a;
unicode = 0061;
},
{
glyphname = b;
lastChange = "2018-05-04 08:01:45 +0000";
layers = (
{
layerId = "2B3DFD70-41A3-4B85-88D0-92073D9863EC";
paths = (
{
closed = 1;
nodes = (
"35 560 LINE",
"124 560 LINE",
"125 0 LINE",
"155 0 LINE",
"154 109 LINE",
"205 44 OFFCURVE",
"275 -13 OFFCURVE",
"343 -13 CURVE SMOOTH",
"463 -13 OFFCURVE",
"549 90 OFFCURVE",
"549 215 CURVE SMOOTH",
"549 346 OFFCURVE",
"463 443 OFFCURVE",
"343 443 CURVE SMOOTH",
"275 443 OFFCURVE",
"204 390 OFFCURVE",
"154 320 CURVE",
"154 590 LINE",
"35 590 LINE"
);
},
{
closed = 1;
nodes = (
"155 278 LINE",
"221 356 OFFCURVE",
"275 413 OFFCURVE",
"343 413 CURVE SMOOTH",
"445 413 OFFCURVE",
"519 329 OFFCURVE",
"519 215 CURVE SMOOTH",
"519 104 OFFCURVE",
"445 17 OFFCURVE",
"343 17 CURVE SMOOTH",
"275 17 OFFCURVE",
"219 78 OFFCURVE",
"155 152 CURVE"
);
}
);
width = 600;
}
);
note = b;
unicode = 0062;
},
{
glyphname = c;
lastChange = "2018-05-04 08:01:45 +0000";
layers = (
{
layerId = "2B3DFD70-41A3-4B85-88D0-92073D9863EC";
paths = (
{
closed = 1;
nodes = (
"357 413 OFFCURVE",
"439 370 OFFCURVE",
"443 310 CURVE",
"433 326 OFFCURVE",
"417 331 OFFCURVE",
"401 331 CURVE SMOOTH",
"377 331 OFFCURVE",
"354 304 OFFCURVE",
"354 279 CURVE SMOOTH",
"354 247 OFFCURVE",
"380 229 OFFCURVE",
"411 229 CURVE SMOOTH",
"445 229 OFFCURVE",
"471 260 OFFCURVE",
"471 309 CURVE SMOOTH",
"471 384 OFFCURVE",
"379 443 OFFCURVE",
"282 443 CURVE SMOOTH",
"147 443 OFFCURVE",
"59 358 OFFCURVE",
"59 219 CURVE SMOOTH",
"59 84 OFFCURVE",
"160 -13 OFFCURVE",
"305 -13 CURVE SMOOTH",
"436 -13 OFFCURVE",
"536 74 OFFCURVE",
"554 201 CURVE",
"524 205 LINE",
"506 91 OFFCURVE",
"422 17 OFFCURVE",
"305 17 CURVE SMOOTH",
"178 17 OFFCURVE",
"89 101 OFFCURVE",
"89 219 CURVE SMOOTH",
"89 339 OFFCURVE",
"164 413 OFFCURVE",
"281 413 CURVE SMOOTH"
);
}
);
width = 600;
}
);
note = c;
unicode = 0063;
},
{
glyphname = d;
lastChange = "2018-05-04 08:01:45 +0000";
layers = (
{
layerId = "2B3DFD70-41A3-4B85-88D0-92073D9863EC";
paths = (
{
closed = 1;
nodes = (
"433 320 LINE",
"378 388 OFFCURVE",
"318 443 OFFCURVE",
"244 443 CURVE SMOOTH",
"124 443 OFFCURVE",
"38 346 OFFCURVE",
"38 215 CURVE SMOOTH",
"38 90 OFFCURVE",
"124 -13 OFFCURVE",
"244 -13 CURVE SMOOTH",
"312 -13 OFFCURVE",
"380 44 OFFCURVE",
"433 109 CURVE",
"432 67 LINE",
"433 5 OFFCURVE",
"458 -13 OFFCURVE",
"487 -13 CURVE SMOOTH",
"529 -13 OFFCURVE",
"552 44 OFFCURVE",
"580 107 CURVE",
"553 120 LINE",
"529 66 OFFCURVE",
"507 17 OFFCURVE",
"487 17 CURVE SMOOTH",
"471 17 OFFCURVE",
"462 33 OFFCURVE",
"462 67 CURVE SMOOTH",
"463 590 LINE",
"310 590 LINE",
"310 560 LINE",
"433 560 LINE"
);
},
{
closed = 1;
nodes = (
"432 152 LINE",
"368 78 OFFCURVE",
"312 17 OFFCURVE",
"244 17 CURVE SMOOTH",
"142 17 OFFCURVE",
"68 104 OFFCURVE",
"68 215 CURVE SMOOTH",
"68 329 OFFCURVE",
"142 413 OFFCURVE",
"244 413 CURVE SMOOTH",
"312 413 OFFCURVE",
"366 356 OFFCURVE",
"432 278 CURVE"
);
}
);
width = 600;
}
);
note = d;
unicode = 0064;
},
{
glyphname = e;
lastChange = "2018-05-04 08:01:45 +0000";
layers = (
{
layerId = "2B3DFD70-41A3-4B85-88D0-92073D9863EC";
paths = (
{
closed = 1;
nodes = (
"66 96 OFFCURVE",
"167 -13 OFFCURVE",
"289 -13 CURVE SMOOTH",
"395 -13 OFFCURVE",
"475 43 OFFCURVE",
"529 136 CURVE",
"503 151 LINE",
"456 66 OFFCURVE",
"378 17 OFFCURVE",
"289 17 CURVE SMOOTH",
"181 17 OFFCURVE",
"96 116 OFFCURVE",
"96 227 CURVE",
"501 227 LINE",
"501 238 LINE SMOOTH",
"501 356 OFFCURVE",
"405 443 OFFCURVE",
"289 443 CURVE SMOOTH",
"156 443 OFFCURVE",
"66 365 OFFCURVE",
"66 223 CURVE SMOOTH"
);
},
{
closed = 1;
nodes = (
"98 257 LINE",
"112 354 OFFCURVE",
"177 413 OFFCURVE",
"289 413 CURVE SMOOTH",
"383 413 OFFCURVE",
"460 348 OFFCURVE",
"470 257 CURVE"
);
}
);
width = 600;
}
);
note = e;
unicode = 0065;
},
{
glyphname = f;
lastChange = "2018-05-04 08:01:45 +0000";
layers = (
{
layerId = "2B3DFD70-41A3-4B85-88D0-92073D9863EC";
paths = (
{
closed = 1;
nodes = (
"521 486 OFFCURVE",
"507 489 OFFCURVE",
"491 489 CURVE SMOOTH",
"468 489 OFFCURVE",
"443 464 OFFCURVE",
"443 439 CURVE SMOOTH",
"443 405 OFFCURVE",
"469 389 OFFCURVE",
"500 389 CURVE SMOOTH",
"534 389 OFFCURVE",
"560 420 OFFCURVE",
"560 469 CURVE SMOOTH",
"560 540 OFFCURVE",
"487 603 OFFCURVE",
"390 603 CURVE SMOOTH",
"285 603 OFFCURVE",
"214 542 OFFCURVE",
"200 430 CURVE",
"56 430 LINE",
"56 400 LINE",
"199 400 LINE",
"199 30 LINE",
"56 30 LINE",
"56 0 LINE",
"389 0 LINE",
"389 30 LINE",
"229 30 LINE",
"229 400 LINE",
"389 400 LINE",
"389 430 LINE",
"230 430 LINE",
"244 522 OFFCURVE",
"298 573 OFFCURVE",
"389 573 CURVE SMOOTH",
"465 573 OFFCURVE",
"528 530 OFFCURVE",
"531 470 CURVE"
);
}
);
width = 600;
}
);
note = f;
unicode = 0066;
},
{
glyphname = g;
lastChange = "2018-05-04 08:01:45 +0000";
layers = (
{
layerId = "2B3DFD70-41A3-4B85-88D0-92073D9863EC";
paths = (
{
closed = 1;
nodes = (
"26 -122 OFFCURVE",
"84 -173 OFFCURVE",
"181 -173 CURVE SMOOTH",
"385 -173 LINE SMOOTH",
"479 -173 OFFCURVE",
"555 -132 OFFCURVE",
"555 -54 CURVE SMOOTH",
"555 15 OFFCURVE",
"516 50 OFFCURVE",
"430 50 CURVE SMOOTH",
"206 50 LINE SMOOTH",
"131 50 OFFCURVE",
"58 74 OFFCURVE",
"58 123 CURVE SMOOTH",
"58 162 OFFCURVE",
"95 182 OFFCURVE",
"140 199 CURVE",
"156 206 LINE",
"187 158 OFFCURVE",
"239 125 OFFCURVE",
"299 125 CURVE SMOOTH",
"384 125 OFFCURVE",
"450 197 OFFCURVE",
"450 279 CURVE SMOOTH",
"450 314 OFFCURVE",
"444 348 OFFCURVE",
"426 376 CURVE",
"449 392 OFFCURVE",
"472 403 OFFCURVE",
"492 403 CURVE SMOOTH",
"509 403 OFFCURVE",
"541 387 OFFCURVE",
"549 358 CURVE",
"515 378 OFFCURVE",
"482 355 OFFCURVE",
"482 322 CURVE SMOOTH",
"482 294 OFFCURVE",
"509 277 OFFCURVE",
"532 277 CURVE SMOOTH",
"559 277 OFFCURVE",
"585 301 OFFCURVE",
"585 334 CURVE SMOOTH",
"585 389 OFFCURVE",
"539 433 OFFCURVE",
"492 433 CURVE SMOOTH",
"463 433 OFFCURVE",
"435 418 OFFCURVE",
"408 401 CURVE",
"376 429 OFFCURVE",
"343 443 OFFCURVE",
"298 443 CURVE SMOOTH",
"210 443 OFFCURVE",
"135 374 OFFCURVE",
"135 287 CURVE SMOOTH",
"135 272 OFFCURVE",
"137 252 OFFCURVE",
"143 233 CURVE",
"75 210 OFFCURVE",
"28 176 OFFCURVE",
"28 123 CURVE SMOOTH",
"28 84 OFFCURVE",
"51 59 OFFCURVE",
"98 40 CURVE",
"47 24 OFFCURVE",
"26 -19 OFFCURVE",
"26 -58 CURVE SMOOTH"
);
},
{
closed = 1;
nodes = (
"165 358 OFFCURVE",
"225 413 OFFCURVE",
"298 413 CURVE SMOOTH",
"382 413 OFFCURVE",
"420 354 OFFCURVE",
"420 284 CURVE SMOOTH",
"420 217 OFFCURVE",
"372 155 OFFCURVE",
"297 155 CURVE SMOOTH",
"225 155 OFFCURVE",
"165 215 OFFCURVE",
"165 284 CURVE SMOOTH"
);
},
{
closed = 1;
nodes = (
"56 -14 OFFCURVE",
"87 22 OFFCURVE",
"155 22 CURVE SMOOTH",
"431 20 LINE SMOOTH",
"499 20 OFFCURVE",
"526 -3 OFFCURVE",
"525 -58 CURVE SMOOTH",
"524 -114 OFFCURVE",
"461 -143 OFFCURVE",
"382 -143 CURVE SMOOTH",
"189 -143 LINE SMOOTH",
"99 -143 OFFCURVE",
"56 -103 OFFCURVE",
"56 -58 CURVE SMOOTH"
);
}
);
width = 600;
}
);
note = g;
unicode = 0067;
},
{
glyphname = h;
lastChange = "2018-05-04 08:01:45 +0000";
layers = (
{
layerId = "2B3DFD70-41A3-4B85-88D0-92073D9863EC";
paths = (
{
closed = 1;
nodes = (
"413 413 OFFCURVE",
"450 377 OFFCURVE",
"450 310 CURVE SMOOTH",
"450 30 LINE",
"366 30 LINE",
"366 0 LINE",
"567 0 LINE",
"567 30 LINE",
"480 30 LINE",
"480 310 LINE SMOOTH",
"480 394 OFFCURVE",
"432 443 OFFCURVE",
"354 443 CURVE SMOOTH",
"287 443 OFFCURVE",
"245 386 OFFCURVE",
"162 303 CURVE",
"162 590 LINE",
"44 590 LINE",
"44 560 LINE",
"132 560 LINE",
"132 30 LINE",
"44 30 LINE",
"44 0 LINE",
"246 0 LINE",
"246 30 LINE",
"162 30 LINE",
"162 261 LINE",
"270 369 OFFCURVE",
"300 413 OFFCURVE",
"354 413 CURVE SMOOTH"
);
}
);
width = 600;
}
);
note = h;
unicode = 0068;
},
{
glyphname = i;
lastChange = "2018-05-04 08:01:45 +0000";
layers = (
{
layerId = "2B3DFD70-41A3-4B85-88D0-92073D9863EC";
paths = (
{
closed = 1;
nodes = (
"333 488 OFFCURVE",
"356 512 OFFCURVE",
"356 539 CURVE SMOOTH",
"356 566 OFFCURVE",
"333 590 OFFCURVE",
"305 590 CURVE SMOOTH",
"277 590 OFFCURVE",
"253 566 OFFCURVE",
"253 539 CURVE SMOOTH",
"253 512 OFFCURVE",
"277 488 OFFCURVE",
"305 488 CURVE SMOOTH"
);
},
{
closed = 1;
nodes = (
"97 430 LINE",
"97 400 LINE",
"298 400 LINE",
"298 30 LINE",
"97 30 LINE",
"97 0 LINE",
"516 0 LINE",
"516 30 LINE",
"328 30 LINE",
"328 430 LINE"
);
}
);
width = 600;
}
);
note = i;
unicode = 0069;
},
{
glyphname = j;
lastChange = "2018-05-04 08:01:45 +0000";
layers = (
{
layerId = "2B3DFD70-41A3-4B85-88D0-92073D9863EC";
paths = (
{
closed = 1;
nodes = (
"458 488 OFFCURVE",
"481 512 OFFCURVE",
"481 539 CURVE SMOOTH",
"481 566 OFFCURVE",
"458 590 OFFCURVE",
"430 590 CURVE SMOOTH",
"402 590 OFFCURVE",
"378 566 OFFCURVE",
"378 539 CURVE SMOOTH",
"378 512 OFFCURVE",
"402 488 OFFCURVE",
"430 488 CURVE SMOOTH"
);
},
{
closed = 1;
nodes = (
"103 -109 OFFCURVE",
"178 -173 OFFCURVE",
"264 -173 CURVE SMOOTH",
"381 -173 OFFCURVE",
"448 -101 OFFCURVE",
"448 29 CURVE SMOOTH",
"448 430 LINE",
"156 430 LINE",
"156 400 LINE",
"418 400 LINE",
"418 40 LINE SMOOTH",
"418 -74 OFFCURVE",
"375 -143 OFFCURVE",
"264 -143 CURVE SMOOTH",
"201 -143 OFFCURVE",
"133 -98 OFFCURVE",
"133 -23 CURVE",
"143 -40 OFFCURVE",
"159 -45 OFFCURVE",
"174 -45 CURVE SMOOTH",
"202 -45 OFFCURVE",
"222 -17 OFFCURVE",
"222 7 CURVE SMOOTH",
"222 40 OFFCURVE",
"196 58 OFFCURVE",
"165 57 CURVE SMOOTH",
"131 56 OFFCURVE",
"102 26 OFFCURVE",
"101 -23 CURVE"
);
}
);
width = 600;
}
);
note = j;
unicode = 006A;
},
{
glyphname = k;
lastChange = "2018-05-04 08:01:45 +0000";
layers = (
{
layerId = "2B3DFD70-41A3-4B85-88D0-92073D9863EC";
paths = (
{
closed = 1;
nodes = (
"272 30 LINE",
"172 30 LINE",
"172 162 LINE",
"277 248 LINE",
"404 58 LINE SMOOTH",
"429 21 OFFCURVE",
"458 -13 OFFCURVE",
"506 -13 CURVE SMOOTH",
"533 -13 OFFCURVE",
"555 3 OFFCURVE",
"574 23 CURVE",
"551 42 LINE",
"540 30 OFFCURVE",
"525 17 OFFCURVE",
"506 17 CURVE SMOOTH",
"470 17 OFFCURVE",
"450 45 OFFCURVE",
"422 86 CURVE SMOOTH",
"300 268 LINE",
"461 400 LINE",
"565 400 LINE",
"565 430 LINE",
"323 430 LINE",
"323 400 LINE",
"415 400 LINE",
"172 201 LINE",
"172 590 LINE",
"20 590 LINE",
"20 560 LINE",
"142 560 LINE",
"142 30 LINE",
"20 30 LINE",
"20 0 LINE",
"272 0 LINE"
);
}
);
width = 600;
}
);
note = k;
unicode = 006B;
},
{
glyphname = l;
lastChange = "2018-05-04 08:01:45 +0000";
layers = (
{
layerId = "2B3DFD70-41A3-4B85-88D0-92073D9863EC";
paths = (
{
closed = 1;
nodes = (
"321 30 LINE",
"514 30 LINE",
"514 0 LINE",
"95 0 LINE",
"95 30 LINE",
"291 30 LINE",
"291 560 LINE",
"95 560 LINE",
"95 590 LINE",
"321 590 LINE"
);
}
);
width = 600;
}
);
note = l;
unicode = 006C;
},
{
glyphname = m;
lastChange = "2018-05-04 08:01:45 +0000";
layers = (
{
layerId = "2B3DFD70-41A3-4B85-88D0-92073D9863EC";
paths = (
{
closed = 1;
nodes = (
"547 30 LINE",
"547 343 LINE SMOOTH",
"547 422 OFFCURVE",
"516 443 OFFCURVE",
"473 443 CURVE SMOOTH",
"429 443 OFFCURVE",
"388 405 OFFCURVE",
"341 350 CURVE",
"339 423 OFFCURVE",
"309 443 OFFCURVE",
"267 443 CURVE SMOOTH",
"226 443 OFFCURVE",
"187 409 OFFCURVE",
"143 359 CURVE",
"143 363 LINE",
"142 425 OFFCURVE",
"117 443 OFFCURVE",
"88 443 CURVE SMOOTH",
"48 443 OFFCURVE",
"27 397 OFFCURVE",
"3 342 CURVE",
"30 328 LINE",
"51 374 OFFCURVE",
"68 413 OFFCURVE",
"88 413 CURVE SMOOTH",
"104 413 OFFCURVE",
"113 397 OFFCURVE",
"113 363 CURVE SMOOTH",
"113 30 LINE",
"40 30 LINE",
"40 0 LINE",
"216 0 LINE",
"216 30 LINE",
"143 30 LINE",
"143 313 LINE",
"187 365 OFFCURVE",
"226 413 OFFCURVE",
"267 413 CURVE SMOOTH",
"299 413 OFFCURVE",
"311 397 OFFCURVE",
"311 338 CURVE SMOOTH",
"311 0 LINE",
"341 0 LINE",
"341 303 LINE",
"388 359 OFFCURVE",
"430 413 OFFCURVE",
"473 413 CURVE SMOOTH",
"505 413 OFFCURVE",
"517 397 OFFCURVE",
"517 338 CURVE SMOOTH",
"517 30 LINE",
"444 30 LINE",
"444 0 LINE",
"593 0 LINE",
"593 30 LINE"
);
},
{
closed = 1;
nodes = (
"320 327 OFFCURVE",
"320 328 OFFCURVE",
"320 328 CURVE"
);
}
);
width = 600;
}
);
note = m;
unicode = 006D;
},
{
glyphname = n;
lastChange = "2018-05-04 08:01:45 +0000";
layers = (
{
layerId = "2B3DFD70-41A3-4B85-88D0-92073D9863EC";
paths = (
{
closed = 1;
nodes = (
"132 30 LINE",
"44 30 LINE",
"44 0 LINE",
"246 0 LINE",
"246 30 LINE",
"162 30 LINE",
"162 261 LINE",
"270 369 OFFCURVE",
"300 413 OFFCURVE",
"354 413 CURVE SMOOTH",
"413 413 OFFCURVE",
"450 377 OFFCURVE",
"450 310 CURVE SMOOTH",
"450 30 LINE",
"366 30 LINE",
"366 0 LINE",
"567 0 LINE",
"567 30 LINE",
"480 30 LINE",
"480 310 LINE SMOOTH",
"480 394 OFFCURVE",
"432 443 OFFCURVE",
"354 443 CURVE SMOOTH",
"287 443 OFFCURVE",
"245 386 OFFCURVE",
"162 303 CURVE",
"162 363 LINE",
"161 425 OFFCURVE",
"136 443 OFFCURVE",
"107 443 CURVE SMOOTH",
"63 443 OFFCURVE",
"42 386 OFFCURVE",
"14 323 CURVE",
"41 310 LINE",
"65 364 OFFCURVE",
"85 413 OFFCURVE",
"107 413 CURVE SMOOTH",
"123 413 OFFCURVE",
"132 397 OFFCURVE",
"132 363 CURVE SMOOTH"
);
}
);
width = 600;
}
);
note = n;
unicode = 006E;
},
{
glyphname = o;
lastChange = "2018-05-04 08:01:45 +0000";
layers = (
{
layerId = "2B3DFD70-41A3-4B85-88D0-92073D9863EC";
paths = (
{
closed = 1;
nodes = (
"427 -13 OFFCURVE",
"529 88 OFFCURVE",
"529 216 CURVE SMOOTH",
"529 342 OFFCURVE",
"427 443 OFFCURVE",
"301 443 CURVE SMOOTH",
"174 443 OFFCURVE",
"72 342 OFFCURVE",
"72 216 CURVE SMOOTH",
"72 88 OFFCURVE",
"174 -13 OFFCURVE",
"301 -13 CURVE SMOOTH"
);
},
{
closed = 1;
nodes = (
"191 17 OFFCURVE",
"102 105 OFFCURVE",
"102 216 CURVE SMOOTH",
"102 325 OFFCURVE",
"191 413 OFFCURVE",
"301 413 CURVE SMOOTH",
"410 413 OFFCURVE",
"499 325 OFFCURVE",
"499 216 CURVE SMOOTH",
"499 105 OFFCURVE",
"410 17 OFFCURVE",
"301 17 CURVE SMOOTH"
);
}
);
width = 600;
}
);
note = o;
unicode = 006F;
},
{
glyphname = p;
lastChange = "2018-05-04 08:01:45 +0000";
layers = (
{
layerId = "2B3DFD70-41A3-4B85-88D0-92073D9863EC";
paths = (
{
closed = 1;
nodes = (
"136 -127 LINE",
"44 -127 LINE",
"44 -160 LINE",
"275 -160 LINE",
"275 -127 LINE",
"166 -127 LINE",
"166 109 LINE",
"216 44 OFFCURVE",
"286 -13 OFFCURVE",
"354 -13 CURVE SMOOTH",
"474 -13 OFFCURVE",
"560 90 OFFCURVE",
"560 215 CURVE SMOOTH",
"560 346 OFFCURVE",
"474 443 OFFCURVE",
"354 443 CURVE SMOOTH",
"286 443 OFFCURVE",
"216 390 OFFCURVE",
"166 320 CURVE",
"166 363 LINE",
"165 425 OFFCURVE",
"140 443 OFFCURVE",
"111 443 CURVE SMOOTH",
"67 443 OFFCURVE",
"46 386 OFFCURVE",
"18 323 CURVE",
"45 310 LINE",
"69 364 OFFCURVE",
"89 413 OFFCURVE",
"111 413 CURVE SMOOTH",
"127 413 OFFCURVE",
"136 397 OFFCURVE",
"136 363 CURVE SMOOTH"
);
},
{
closed = 1;
nodes = (
"166 278 LINE",
"230 358 OFFCURVE",
"286 413 OFFCURVE",
"354 413 CURVE SMOOTH",
"456 413 OFFCURVE",
"530 329 OFFCURVE",
"530 215 CURVE SMOOTH",
"530 104 OFFCURVE",
"456 17 OFFCURVE",
"354 17 CURVE SMOOTH",
"286 17 OFFCURVE",
"228 76 OFFCURVE",
"166 152 CURVE"
);
}
);
width = 600;
}
);
note = p;
unicode = 0070;
},
{
glyphname = q;
lastChange = "2018-05-04 08:01:45 +0000";
layers = (
{
layerId = "2B3DFD70-41A3-4B85-88D0-92073D9863EC";
paths = (
{
closed = 1;
nodes = (
"476 -127 LINE",
"475 430 LINE",
"445 430 LINE",
"446 321 LINE",
"395 386 OFFCURVE",
"325 443 OFFCURVE",
"257 443 CURVE SMOOTH",
"137 443 OFFCURVE",
"51 340 OFFCURVE",
"51 215 CURVE SMOOTH",
"51 84 OFFCURVE",
"137 -13 OFFCURVE",
"257 -13 CURVE SMOOTH",
"325 -13 OFFCURVE",
"396 40 OFFCURVE",
"446 110 CURVE",
"446 -127 LINE",
"337 -127 LINE",
"337 -160 LINE",
"568 -160 LINE",
"568 -127 LINE"
);
},
{
closed = 1;
nodes = (
"445 152 LINE",
"379 74 OFFCURVE",
"325 17 OFFCURVE",
"257 17 CURVE SMOOTH",
"155 17 OFFCURVE",
"81 101 OFFCURVE",
"81 215 CURVE SMOOTH",
"81 326 OFFCURVE",
"155 413 OFFCURVE",
"257 413 CURVE SMOOTH",
"325 413 OFFCURVE",
"381 352 OFFCURVE",
"445 278 CURVE"
);
}
);
width = 600;
}
);
note = q;
unicode = 0071;
},
{
glyphname = r;
lastChange = "2018-05-04 08:01:45 +0000";
layers = (
{
layerId = "2B3DFD70-41A3-4B85-88D0-92073D9863EC";
paths = (
{
closed = 1;
nodes = (
"317 443 OFFCURVE",
"264 389 OFFCURVE",
"185 303 CURVE",
"185 363 LINE",
"184 425 OFFCURVE",
"159 443 OFFCURVE",
"130 443 CURVE SMOOTH",
"86 443 OFFCURVE",
"65 386 OFFCURVE",
"37 323 CURVE",
"64 310 LINE",
"88 364 OFFCURVE",
"108 413 OFFCURVE",
"130 413 CURVE SMOOTH",
"146 413 OFFCURVE",
"155 397 OFFCURVE",
"155 363 CURVE SMOOTH",
"155 33 LINE",
"70 33 LINE",
"70 0 LINE",
"398 0 LINE",
"398 33 LINE",
"185 33 LINE",
"185 258 LINE",
"287 369 OFFCURVE",
"326 413 OFFCURVE",
"396 413 CURVE SMOOTH",
"457 413 OFFCURVE",
"495 369 OFFCURVE",
"500 298 CURVE",
"490 314 OFFCURVE",
"478 315 OFFCURVE",
"461 315 CURVE SMOOTH",
"437 315 OFFCURVE",
"412 294 OFFCURVE",
"412 267 CURVE SMOOTH",
"412 232 OFFCURVE",
"440 213 OFFCURVE",
"473 213 CURVE SMOOTH",
"509 213 OFFCURVE",
"535 248 OFFCURVE",
"535 297 CURVE SMOOTH",
"535 393 OFFCURVE",
"480 443 OFFCURVE",
"396 443 CURVE SMOOTH"
);
}
);
width = 600;
}
);
note = r;
unicode = 0072;
},
{
glyphname = s;
lastChange = "2018-05-04 08:01:45 +0000";
layers = (
{
layerId = "2B3DFD70-41A3-4B85-88D0-92073D9863EC";
paths = (
{
closed = 1;
nodes = (
"397 -13 OFFCURVE",
"504 26 OFFCURVE",
"504 111 CURVE SMOOTH",
"504 182 OFFCURVE",
"447 219 OFFCURVE",
"332 226 CURVE SMOOTH",
"266 230 LINE SMOOTH",
"160 236 OFFCURVE",
"120 258 OFFCURVE",
"120 317 CURVE SMOOTH",
"120 372 OFFCURVE",
"201 413 OFFCURVE",
"297 413 CURVE SMOOTH",
"369 413 OFFCURVE",
"426 392 OFFCURVE",
"454 358 CURVE",
"416 368 OFFCURVE",
"388 343 OFFCURVE",
"388 318 CURVE SMOOTH",
"388 284 OFFCURVE",
"416 271 OFFCURVE",
"439 271 CURVE SMOOTH",
"475 271 OFFCURVE",
"490 298 OFFCURVE",
"490 333 CURVE SMOOTH",
"490 395 OFFCURVE",
"400 443 OFFCURVE",
"298 443 CURVE SMOOTH",
"189 443 OFFCURVE",
"90 394 OFFCURVE",
"90 316 CURVE SMOOTH",
"90 231 OFFCURVE",
"156 207 OFFCURVE",
"265 200 CURVE SMOOTH",
"327 196 LINE SMOOTH",
"415 190 OFFCURVE",
"474 172 OFFCURVE",
"474 108 CURVE SMOOTH",
"474 54 OFFCURVE",
"392 17 OFFCURVE",
"287 17 CURVE SMOOTH",
"221 17 OFFCURVE",
"165 28 OFFCURVE",
"118 76 CURVE",
"148 64 OFFCURVE",
"182 83 OFFCURVE",
"182 116 CURVE SMOOTH",
"182 144 OFFCURVE",
"162 163 OFFCURVE",
"130 163 CURVE SMOOTH",
"106 163 OFFCURVE",
"80 143 OFFCURVE",
"80 110 CURVE SMOOTH",
"81 26 OFFCURVE",
"186 -13 OFFCURVE",
"287 -13 CURVE SMOOTH"
);
}
);
width = 600;
}
);
note = s;
unicode = 0073;
},
{
glyphname = t;
lastChange = "2018-05-04 08:01:45 +0000";
layers = (
{
layerId = "2B3DFD70-41A3-4B85-88D0-92073D9863EC";
paths = (
{
closed = 1;
nodes = (
"173 97 LINE SMOOTH",
"173 23 OFFCURVE",
"222 -13 OFFCURVE",
"299 -13 CURVE SMOOTH",
"355 -13 OFFCURVE",
"425 30 OFFCURVE",
"497 74 CURVE SMOOTH",
"553 108 LINE",
"536 133 LINE",
"477 96 LINE SMOOTH",
"400 49 OFFCURVE",
"350 17 OFFCURVE",
"299 17 CURVE SMOOTH",
"236 17 OFFCURVE",
"203 40 OFFCURVE",
"203 110 CURVE SMOOTH",
"203 400 LINE",
"499 400 LINE",
"499 430 LINE",
"203 430 LINE",
"203 590 LINE",
"173 590 LINE",
"173 430 LINE",
"37 430 LINE",
"37 400 LINE",
"173 400 LINE"
);
}
);
width = 600;
}
);
note = t;
unicode = 0074;
},
{
glyphname = u;
lastChange = "2018-05-04 08:01:45 +0000";
layers = (
{
layerId = "2B3DFD70-41A3-4B85-88D0-92073D9863EC";
paths = (
{
closed = 1;
nodes = (
"473 34 LINE",
"473 363 LINE",
"472 425 OFFCURVE",
"447 443 OFFCURVE",
"418 443 CURVE SMOOTH",
"376 443 OFFCURVE",
"353 386 OFFCURVE",
"325 323 CURVE",
"352 310 LINE",
"376 364 OFFCURVE",
"398 413 OFFCURVE",
"418 413 CURVE SMOOTH",
"434 413 OFFCURVE",
"443 397 OFFCURVE",
"443 363 CURVE SMOOTH",
"443 173 LINE",
"345 66 OFFCURVE",
"313 17 OFFCURVE",
"255 17 CURVE SMOOTH",
"201 17 OFFCURVE",
"158 50 OFFCURVE",
"158 110 CURVE SMOOTH",
"158 321 LINE",
"158 363 LINE",
"157 425 OFFCURVE",
"132 443 OFFCURVE",
"103 443 CURVE SMOOTH",
"61 443 OFFCURVE",
"38 386 OFFCURVE",
"10 323 CURVE",
"37 310 LINE",
"61 364 OFFCURVE",
"83 413 OFFCURVE",
"103 413 CURVE SMOOTH",
"119 413 OFFCURVE",
"128 397 OFFCURVE",
"128 363 CURVE SMOOTH",
"128 110 LINE SMOOTH",
"128 52 OFFCURVE",
"169 -13 OFFCURVE",
"255 -13 CURVE SMOOTH",
"326 -13 OFFCURVE",
"368 44 OFFCURVE",
"443 129 CURVE",
"443 0 LINE",
"558 1 LINE",
"558 34 LINE"
);
}
);
width = 600;
}
);
note = u;
unicode = 0075;
},
{
glyphname = v;
lastChange = "2018-05-04 08:01:45 +0000";
layers = (
{
layerId = "2B3DFD70-41A3-4B85-88D0-92073D9863EC";
paths = (
{
closed = 1;
nodes = (
"31 400 LINE",
"31 430 LINE",
"217 430 LINE",
"217 400 LINE",
"136 400 LINE",
"299 31 LINE",
"462 400 LINE",
"381 400 LINE",
"381 430 LINE",
"568 430 LINE",
"568 400 LINE",
"495 400 LINE",
"318 0 LINE",
"280 0 LINE",
"104 400 LINE"
);
}
);
width = 600;
}
);
note = v;
unicode = 0076;
},
{
glyphname = w;
lastChange = "2018-05-04 08:01:45 +0000";
layers = (
{
layerId = "2B3DFD70-41A3-4B85-88D0-92073D9863EC";
paths = (
{
closed = 1;
nodes = (
"431 430 LINE",
"431 400 LINE",
"513 400 LINE",
"424 37 LINE",
"316 355 LINE",
"284 355 LINE",
"176 37 LINE",
"87 400 LINE",
"169 400 LINE",
"169 430 LINE",
"15 430 LINE",
"15 400 LINE",
"56 400 LINE",
"154 0 LINE",
"195 0 LINE",
"300 308 LINE",
"405 0 LINE",
"446 0 LINE",
"544 400 LINE",
"585 400 LINE",
"585 430 LINE"
);
}
);
width = 600;
}
);
note = w;
unicode = 0077;
},
{
glyphname = x;
lastChange = "2018-05-04 08:01:45 +0000";
layers = (
{
layerId = "2B3DFD70-41A3-4B85-88D0-92073D9863EC";
paths = (
{
closed = 1;
nodes = (
"23 325 LINE",
"42 340 LINE SMOOTH",
"101 386 OFFCURVE",
"131 413 OFFCURVE",
"164 413 CURVE SMOOTH",
"221 413 OFFCURVE",
"284 293 OFFCURVE",
"285 215 CURVE SMOOTH",
"284 136 OFFCURVE",
"214 17 OFFCURVE",
"144 17 CURVE SMOOTH",
"128 17 OFFCURVE",
"119 17 OFFCURVE",
"105 26 CURVE",
"132 20 OFFCURVE",
"157 37 OFFCURVE",
"157 69 CURVE SMOOTH",
"157 90 OFFCURVE",
"134 108 OFFCURVE",
"107 108 CURVE SMOOTH",
"82 108 OFFCURVE",
"58 85 OFFCURVE",
"58 49 CURVE SMOOTH",
"58 14 OFFCURVE",
"99 -13 OFFCURVE",
"144 -13 CURVE SMOOTH",
"200 -13 OFFCURVE",
"271 53 OFFCURVE",
"300 134 CURVE",
"327 53 OFFCURVE",
"381 -13 OFFCURVE",
"436 -13 CURVE SMOOTH",
"478 -13 OFFCURVE",
"513 17 OFFCURVE",
"595 80 CURVE",
"577 105 LINE",
"548 82 LINE SMOOTH",
"499 43 OFFCURVE",
"469 17 OFFCURVE",
"436 17 CURVE SMOOTH",
"379 17 OFFCURVE",
"316 137 OFFCURVE",
"315 215 CURVE",
"316 294 OFFCURVE",
"386 413 OFFCURVE",
"456 413 CURVE SMOOTH",
"472 413 OFFCURVE",
"481 413 OFFCURVE",
"495 404 CURVE",
"468 410 OFFCURVE",
"443 393 OFFCURVE",
"443 361 CURVE SMOOTH",
"443 340 OFFCURVE",
"466 322 OFFCURVE",
"493 322 CURVE SMOOTH",
"518 322 OFFCURVE",
"542 345 OFFCURVE",
"542 381 CURVE SMOOTH",
"542 416 OFFCURVE",
"501 443 OFFCURVE",
"456 443 CURVE SMOOTH",
"400 443 OFFCURVE",
"329 377 OFFCURVE",
"300 296 CURVE",
"273 377 OFFCURVE",
"219 443 OFFCURVE",
"164 443 CURVE SMOOTH",
"122 443 OFFCURVE",
"87 413 OFFCURVE",
"5 350 CURVE"
);
}
);
width = 600;
}
);
note = x;
unicode = 0078;
},
{
glyphname = y;
lastChange = "2018-05-04 08:01:45 +0000";
layers = (
{
layerId = "2B3DFD70-41A3-4B85-88D0-92073D9863EC";
paths = (
{
closed = 1;
nodes = (
"48 -134 OFFCURVE",
"109 -173 OFFCURVE",
"169 -173 CURVE SMOOTH",
"250 -173 OFFCURVE",
"290 -113 OFFCURVE",
"340 11 CURVE SMOOTH",
"498 400 LINE",
"575 400 LINE",
"575 430 LINE",
"378 430 LINE",
"378 400 LINE",
"465 400 LINE",
"315 27 LINE",
"163 400 LINE",
"250 400 LINE",
"250 430 LINE",
"54 430 LINE",
"54 400 LINE",
"131 400 LINE",
"298 -9 LINE",
"276 -55 LINE SMOOTH",
"244 -121 OFFCURVE",
"211 -143 OFFCURVE",
"169 -143 CURVE SMOOTH",
"109 -143 OFFCURVE",
"77 -99 OFFCURVE",
"77 -43 CURVE",
"87 -60 OFFCURVE",
"109 -69 OFFCURVE",
"133 -69 CURVE SMOOTH",
"158 -69 OFFCURVE",
"181 -44 OFFCURVE",
"181 -17 CURVE SMOOTH",
"181 22 OFFCURVE",
"155 41 OFFCURVE",
"116 41 CURVE SMOOTH",
"85 41 OFFCURVE",
"45 6 OFFCURVE",
"46 -40 CURVE SMOOTH"
);
}
);
width = 600;
}
);
note = y;
unicode = 0079;
},
{
glyphname = z;
lastChange = "2018-05-04 08:01:45 +0000";
layers = (
{
layerId = "2B3DFD70-41A3-4B85-88D0-92073D9863EC";
paths = (
{
closed = 1;
nodes = (
"487 30 LINE",
"504 220 LINE",
"534 217 LINE",
"515 0 LINE",
"63 0 LINE",
"63 38 LINE",
"471 400 LINE",
"105 400 LINE",
"88 210 LINE",
"58 213 LINE",
"77 430 LINE",
"509 430 LINE",
"509 393 LINE",
"99 30 LINE"
);
}
);
width = 600;
}
);
note = z;
unicode = 007A;
},
{
glyphname = braceleft;
lastChange = "2018-05-04 08:01:45 +0000";
layers = (
{
layerId = "2B3DFD70-41A3-4B85-88D0-92073D9863EC";
paths = (
{
closed = 1;
nodes = (
"160 203 LINE",
"214 182 OFFCURVE",
"264 152 OFFCURVE",
"254 98 CURVE SMOOTH",
"240 22 LINE SMOOTH",
"221 -83 OFFCURVE",
"285 -167 OFFCURVE",
"377 -167 CURVE SMOOTH",
"444 -167 OFFCURVE",
"500 -120 OFFCURVE",
"500 -55 CURVE SMOOTH",
"500 -25 OFFCURVE",
"481 1 OFFCURVE",
"453 1 CURVE SMOOTH",
"427 1 OFFCURVE",
"404 -15 OFFCURVE",
"404 -43 CURVE SMOOTH",
"404 -65 OFFCURVE",
"422 -86 OFFCURVE",
"444 -86 CURVE SMOOTH",
"453 -86 OFFCURVE",
"464 -83 OFFCURVE",
"471 -75 CURVE",
"464 -115 OFFCURVE",
"418 -137 OFFCURVE",
"378 -137 CURVE SMOOTH",
"303 -137 OFFCURVE",
"255 -72 OFFCURVE",
"270 18 CURVE SMOOTH",
"283 96 LINE SMOOTH",
"294 163 OFFCURVE",
"241 206 OFFCURVE",
"196 218 CURVE",
"241 230 OFFCURVE",
"294 273 OFFCURVE",
"283 340 CURVE SMOOTH",
"270 418 LINE SMOOTH",
"255 508 OFFCURVE",
"303 573 OFFCURVE",
"378 573 CURVE SMOOTH",
"418 573 OFFCURVE",
"464 551 OFFCURVE",
"471 511 CURVE",
"464 519 OFFCURVE",
"453 522 OFFCURVE",
"444 522 CURVE SMOOTH",
"422 522 OFFCURVE",
"404 501 OFFCURVE",
"404 479 CURVE SMOOTH",
"404 451 OFFCURVE",
"427 435 OFFCURVE",
"453 435 CURVE SMOOTH",
"481 435 OFFCURVE",
"500 461 OFFCURVE",
"500 491 CURVE SMOOTH",
"500 556 OFFCURVE",
"444 603 OFFCURVE",
"377 603 CURVE SMOOTH",
"285 603 OFFCURVE",
"221 519 OFFCURVE",
"240 414 CURVE SMOOTH",
"254 338 LINE SMOOTH",
"264 284 OFFCURVE",
"214 254 OFFCURVE",
"160 233 CURVE"
);
}
);
width = 600;
}
);
note = braceleft;
unicode = 007B;
},
{
glyphname = bar;
lastChange = "2018-05-04 08:01:45 +0000";
layers = (
{
layerId = "2B3DFD70-41A3-4B85-88D0-92073D9863EC";
paths = (
{
closed = 1;
nodes = (
"285 603 LINE",
"315 603 LINE",
"315 -173 LINE",
"285 -173 LINE"
);
}
);
width = 600;
}
);
note = bar;
unicode = 007C;
},
{
glyphname = braceright;
lastChange = "2018-05-04 08:01:45 +0000";
layers = (
{
layerId = "2B3DFD70-41A3-4B85-88D0-92073D9863EC";
paths = (
{
closed = 1;
nodes = (
"440 233 LINE",
"386 254 OFFCURVE",
"336 284 OFFCURVE",
"346 338 CURVE SMOOTH",
"360 414 LINE SMOOTH",
"379 519 OFFCURVE",
"315 603 OFFCURVE",
"223 603 CURVE SMOOTH",
"156 603 OFFCURVE",
"100 556 OFFCURVE",
"100 491 CURVE SMOOTH",
"100 461 OFFCURVE",
"119 435 OFFCURVE",
"147 435 CURVE SMOOTH",
"173 435 OFFCURVE",
"196 451 OFFCURVE",
"196 479 CURVE SMOOTH",
"196 501 OFFCURVE",
"178 522 OFFCURVE",
"156 522 CURVE SMOOTH",
"147 522 OFFCURVE",
"136 519 OFFCURVE",
"129 511 CURVE",
"136 551 OFFCURVE",
"182 573 OFFCURVE",
"222 573 CURVE SMOOTH",
"297 573 OFFCURVE",
"345 508 OFFCURVE",
"330 418 CURVE SMOOTH",
"317 340 LINE SMOOTH",
"306 273 OFFCURVE",
"359 230 OFFCURVE",
"404 218 CURVE",
"359 206 OFFCURVE",
"306 163 OFFCURVE",
"317 96 CURVE SMOOTH",
"330 18 LINE SMOOTH",
"345 -72 OFFCURVE",
"297 -137 OFFCURVE",
"222 -137 CURVE SMOOTH",
"182 -137 OFFCURVE",
"136 -115 OFFCURVE",
"129 -75 CURVE",
"136 -83 OFFCURVE",
"147 -86 OFFCURVE",
"156 -86 CURVE SMOOTH",
"178 -86 OFFCURVE",
"196 -65 OFFCURVE",
"196 -43 CURVE SMOOTH",
"196 -15 OFFCURVE",
"173 1 OFFCURVE",
"147 1 CURVE SMOOTH",
"119 1 OFFCURVE",
"100 -25 OFFCURVE",
"100 -55 CURVE SMOOTH",
"100 -120 OFFCURVE",
"156 -167 OFFCURVE",
"223 -167 CURVE SMOOTH",
"315 -167 OFFCURVE",
"379 -83 OFFCURVE",
"360 22 CURVE SMOOTH",
"346 98 LINE SMOOTH",
"336 152 OFFCURVE",
"386 182 OFFCURVE",
"440 203 CURVE"
);
}
);
width = 600;
}
);
note = braceright;
unicode = 007D;
},
{
glyphname = asciitilde;
lastChange = "2018-05-04 08:01:45 +0000";
layers = (
{
layerId = "2B3DFD70-41A3-4B85-88D0-92073D9863EC";
paths = (
{
closed = 1;
nodes = (
"468 239 OFFCURVE",
"508 292 OFFCURVE",
"508 396 CURVE SMOOTH",
"508 430 LINE",
"478 430 LINE",
"478 396 LINE SMOOTH",
"478 314 OFFCURVE",
"448 269 OFFCURVE",
"400 269 CURVE SMOOTH",
"361 269 OFFCURVE",
"343 289 OFFCURVE",
"319 345 CURVE SMOOTH",
"295 401 OFFCURVE",
"269 443 OFFCURVE",
"206 443 CURVE SMOOTH",
"138 443 OFFCURVE",
"93 388 OFFCURVE",
"93 285 CURVE SMOOTH",
"93 250 LINE",
"123 250 LINE",
"123 285 LINE SMOOTH",
"123 366 OFFCURVE",
"159 413 OFFCURVE",
"206 413 CURVE SMOOTH",
"242 413 OFFCURVE",
"264 393 OFFCURVE",
"292 331 CURVE SMOOTH",
"317 275 OFFCURVE",
"345 239 OFFCURVE",
"400 239 CURVE SMOOTH"
);
}
);
width = 600;
}
);
note = asciitilde;
unicode = 007E;
},
{
glyphname = exclamdown;
lastChange = "2018-06-06 13:30:00 +0000";
layers = (
{
layerId = "2B3DFD70-41A3-4B85-88D0-92073D9863EC";
paths = (
{
closed = 1;
nodes = (
"270 -122 LINE",
"270 -150 OFFCURVE",
"275 -173 OFFCURVE",
"298 -173 CURVE SMOOTH",
"320 -173 OFFCURVE",
"325 -150 OFFCURVE",
"324 -122 CURVE SMOOTH",
"304 291 LINE",
"290 291 LINE"
);
},
{
closed = 1;
nodes = (
"270 443 OFFCURVE",
"246 419 OFFCURVE",
"246 392 CURVE SMOOTH",
"246 365 OFFCURVE",
"270 341 OFFCURVE",
"298 341 CURVE SMOOTH",
"326 341 OFFCURVE",
"349 365 OFFCURVE",
"349 392 CURVE SMOOTH",
"349 419 OFFCURVE",
"326 443 OFFCURVE",
"298 443 CURVE SMOOTH"
);
}
);
width = 600;
}
);
note = exclamdown;
unicode = 00A1;
},
{
glyphname = cent;
lastChange = "2018-05-04 08:01:45 +0000";
layers = (
{
layerId = "2B3DFD70-41A3-4B85-88D0-92073D9863EC";
paths = (
{
closed = 1;
nodes = (
"348 455 OFFCURVE",
"404 418 OFFCURVE",
"404 360 CURVE",
"388 375 OFFCURVE",
"374 374 OFFCURVE",
"367 374 CURVE SMOOTH",
"348 374 OFFCURVE",
"330 354 OFFCURVE",
"330 335 CURVE SMOOTH",
"330 306 OFFCURVE",
"352 288 OFFCURVE",
"381 288 CURVE SMOOTH",
"410 288 OFFCURVE",
"434 315 OFFCURVE",
"434 354 CURVE SMOOTH",
"434 424 OFFCURVE",
"377 478 OFFCURVE",
"300 485 CURVE",
"300 603 LINE",
"270 603 LINE",
"270 485 LINE",
"176 478 OFFCURVE",
"96 404 OFFCURVE",
"96 304 CURVE SMOOTH",
"96 207 OFFCURVE",
"166 128 OFFCURVE",
"270 106 CURVE",
"270 -13 LINE",
"300 -13 LINE",
"300 106 LINE",
"385 113 OFFCURVE",
"469 162 OFFCURVE",
"505 245 CURVE",
"478 257 LINE",
"449 189 OFFCURVE",
"368 136 OFFCURVE",
"296 136 CURVE SMOOTH",
"203 136 OFFCURVE",
"126 215 OFFCURVE",
"126 304 CURVE SMOOTH",
"126 386 OFFCURVE",
"191 455 OFFCURVE",
"288 455 CURVE SMOOTH"
);
}
);
width = 600;
}
);
note = cent;
unicode = 00A2;
},
{
glyphname = sterling;
lastChange = "2018-05-04 08:01:45 +0000";
layers = (
{
layerId = "2B3DFD70-41A3-4B85-88D0-92073D9863EC";
paths = (
{
closed = 1;
nodes = (
"331 17 OFFCURVE",
"286 57 OFFCURVE",
"249 109 CURVE",
"249 266 LINE",
"403 266 LINE",
"403 299 LINE",
"249 299 LINE",
"249 390 LINE",
"404 390 LINE",
"404 423 LINE",
"250 423 LINE",
"263 515 OFFCURVE",
"318 573 OFFCURVE",
"409 573 CURVE SMOOTH",
"485 573 OFFCURVE",
"549 532 OFFCURVE",
"552 472 CURVE",
"545 488 OFFCURVE",
"530 497 OFFCURVE",
"511 497 CURVE SMOOTH",
"488 497 OFFCURVE",
"465 480 OFFCURVE",
"465 450 CURVE SMOOTH",
"465 420 OFFCURVE",
"488 397 OFFCURVE",
"521 397 CURVE SMOOTH",
"553 397 OFFCURVE",
"578 424 OFFCURVE",
"578 467 CURVE SMOOTH",
"578 537 OFFCURVE",
"507 603 OFFCURVE",
"410 603 CURVE SMOOTH",
"305 603 OFFCURVE",
"234 535 OFFCURVE",
"220 423 CURVE",
"76 423 LINE",
"76 390 LINE",
"219 390 LINE",
"219 299 LINE",
"75 299 LINE",
"75 266 LINE",
"219 266 LINE",
"219 153 LINE",
"201 174 OFFCURVE",
"177 190 OFFCURVE",
"144 190 CURVE SMOOTH",
"92 190 OFFCURVE",
"48 157 OFFCURVE",
"48 88 CURVE SMOOTH",
"48 20 OFFCURVE",
"104 -13 OFFCURVE",
"144 -13 CURVE SMOOTH",
"189 -13 OFFCURVE",
"224 12 OFFCURVE",
"241 58 CURVE SMOOTH",
"244 66 LINE",
"242 68 LINE",
"279 26 OFFCURVE",
"334 -13 OFFCURVE",
"393 -13 CURVE SMOOTH",
"491 -13 OFFCURVE",
"536 45 OFFCURVE",
"573 136 CURVE",
"545 148 LINE",
"509 57 OFFCURVE",
"467 17 OFFCURVE",
"393 17 CURVE SMOOTH"
);
},
{
closed = 1;
nodes = (
"105 17 OFFCURVE",
"78 51 OFFCURVE",
"78 88 CURVE SMOOTH",
"78 126 OFFCURVE",
"99 160 OFFCURVE",
"144 160 CURVE SMOOTH",
"177 160 OFFCURVE",
"205 136 OFFCURVE",
"219 98 CURVE",
"216 51 OFFCURVE",
"190 17 OFFCURVE",
"144 17 CURVE SMOOTH"
);
}
);
width = 600;
}
);
note = sterling;
unicode = 00A3;
},
{
glyphname = yen;
lastChange = "2018-07-20 16:37:15 +0000";
layers = (
{
layerId = "2B3DFD70-41A3-4B85-88D0-92073D9863EC";
paths = (
{
closed = 1;
nodes = (
"18 590 LINE",
"227 590 LINE",
"227 558 LINE",
"128 558 LINE",
"300 245 LINE",
"470 558 LINE",
"372 558 LINE",
"372 590 LINE",
"581 590 LINE",
"581 558 LINE",
"503 558 LINE",
"323.208 229 LINE",
"463 229 LINE",
"463 199 LINE",
"315 199 LINE",
"315 30 LINE",
"443 30 LINE",
"443 0 LINE",
"157 0 LINE",
"157 30 LINE",
"285 30 LINE",
"285 199 LINE",
"137 199 LINE",
"137 229 LINE",
"274.865 229 LINE",
"96 558 LINE",
"18 558 LINE"
);
}
);
width = 600;
}
);
note = yen;
unicode = 00A5;
},
{
glyphname = brokenbar;
lastChange = "2018-05-04 08:01:45 +0000";
layers = (
{
layerId = "2B3DFD70-41A3-4B85-88D0-92073D9863EC";
paths = (
{
closed = 1;
nodes = (
"285 603 LINE",
"315 603 LINE",
"315 296 LINE",
"285 296 LINE"
);
},
{
closed = 1;
nodes = (
"285 135 LINE",
"315 135 LINE",
"315 -172 LINE",
"285 -172 LINE"
);
}
);
width = 600;
}
);
note = brokenbar;
unicode = 00A6;
},
{
glyphname = section;
lastChange = "2018-05-04 08:01:45 +0000";
layers = (
{
layerId = "2B3DFD70-41A3-4B85-88D0-92073D9863EC";
paths = (
{
closed = 1;
nodes = (
"552 70 OFFCURVE",
"472 26 OFFCURVE",
"399 41 CURVE",
"416 31 OFFCURVE",
"442 2 OFFCURVE",
"442 -50 CURVE SMOOTH",
"442 -105 OFFCURVE",
"403 -173 OFFCURVE",
"320 -173 CURVE SMOOTH",
"248 -173 OFFCURVE",
"199 -126 OFFCURVE",
"199 -53 CURVE SMOOTH",
"199 -13 OFFCURVE",
"226 15 OFFCURVE",
"257 15 CURVE SMOOTH",
"283 15 OFFCURVE",
"309 -4 OFFCURVE",
"309 -31 CURVE SMOOTH",
"309 -58 OFFCURVE",
"288 -77 OFFCURVE",
"266 -77 CURVE SMOOTH",
"253 -77 OFFCURVE",
"237 -72 OFFCURVE",
"225 -56 CURVE",
"228 -114 OFFCURVE",
"267 -143 OFFCURVE",
"320 -143 CURVE SMOOTH",
"377 -143 OFFCURVE",
"412 -101 OFFCURVE",
"412 -50 CURVE SMOOTH",
"412 17 OFFCURVE",
"363 40 OFFCURVE",
"288 76 CURVE SMOOTH",
"211 113 LINE SMOOTH",
"145 145 OFFCURVE",
"79 189 OFFCURVE",
"79 268 CURVE SMOOTH",
"79 360 OFFCURVE",
"159 404 OFFCURVE",
"232 389 CURVE",
"215 399 OFFCURVE",
"189 428 OFFCURVE",
"189 480 CURVE SMOOTH",
"189 535 OFFCURVE",
"228 603 OFFCURVE",
"311 603 CURVE SMOOTH",
"383 603 OFFCURVE",
"432 556 OFFCURVE",
"432 483 CURVE SMOOTH",
"432 443 OFFCURVE",
"405 415 OFFCURVE",
"374 415 CURVE SMOOTH",
"348 415 OFFCURVE",
"322 434 OFFCURVE",
"322 461 CURVE SMOOTH",
"322 488 OFFCURVE",
"343 507 OFFCURVE",
"365 507 CURVE SMOOTH",
"378 507 OFFCURVE",
"394 502 OFFCURVE",
"406 486 CURVE",
"403 544 OFFCURVE",
"364 573 OFFCURVE",
"311 573 CURVE SMOOTH",
"254 573 OFFCURVE",
"219 531 OFFCURVE",
"219 480 CURVE SMOOTH",
"219 413 OFFCURVE",
"268 390 OFFCURVE",
"343 354 CURVE SMOOTH",
"420 317 LINE SMOOTH",
"486 285 OFFCURVE",
"552 241 OFFCURVE",
"552 161 CURVE SMOOTH"
);
},
{
closed = 1;
nodes = (
"109 209 OFFCURVE",
"151 175 OFFCURVE",
"203 150 CURVE SMOOTH",
"278 114 LINE SMOOTH",
"304 102 OFFCURVE",
"335 84 OFFCURVE",
"362 69 CURVE",
"414 53 OFFCURVE",
"522 63 OFFCURVE",
"522 161 CURVE SMOOTH",
"522 211 OFFCURVE",
"480 255 OFFCURVE",
"428 280 CURVE SMOOTH",
"353 316 LINE SMOOTH",
"327 328 OFFCURVE",
"296 346 OFFCURVE",
"269 361 CURVE",
"217 377 OFFCURVE",
"109 367 OFFCURVE",
"109 268 CURVE SMOOTH"
);
}
);
width = 600;
}
);
note = section;
unicode = 00A7;
},
{
glyphname = dieresis;
lastChange = "2018-05-29 14:48:13 +0000";
layers = (
{
anchors = (
{
name = _top;
position = "{297, 442}";
}
);
guideLines = (
{
position = "{-213, 590}";
},
{
position = "{247, 736}";
}
);
layerId = "2B3DFD70-41A3-4B85-88D0-92073D9863EC";
paths = (
{
closed = 1;
nodes = (
"238 488 OFFCURVE",
"261 512 OFFCURVE",
"261 539 CURVE SMOOTH",
"261 566 OFFCURVE",
"238 590 OFFCURVE",
"210 590 CURVE SMOOTH",
"182 590 OFFCURVE",
"158 566 OFFCURVE",
"158 539 CURVE SMOOTH",
"158 512 OFFCURVE",
"182 488 OFFCURVE",
"210 488 CURVE SMOOTH"
);
},
{
closed = 1;
nodes = (
"419 488 OFFCURVE",
"442 512 OFFCURVE",
"442 539 CURVE SMOOTH",
"442 566 OFFCURVE",
"419 590 OFFCURVE",
"391 590 CURVE SMOOTH",
"363 590 OFFCURVE",
"339 566 OFFCURVE",
"339 539 CURVE SMOOTH",
"339 512 OFFCURVE",
"363 488 OFFCURVE",
"391 488 CURVE SMOOTH"
);
}
);
width = 600;
},
{
associatedMasterId = "2B3DFD70-41A3-4B85-88D0-92073D9863EC";
layerId = "35419E8A-59DC-49AD-94EE-9DDA91089D87";
paths = (
{
closed = 1;
nodes = (
"221 485 OFFCURVE",
"236 500 OFFCURVE",
"236 519 CURVE SMOOTH",
"236 538 OFFCURVE",
"221 553 OFFCURVE",
"203 553 CURVE SMOOTH",
"184 553 OFFCURVE",
"169 538 OFFCURVE",
"169 519 CURVE SMOOTH",
"169 500 OFFCURVE",
"184 485 OFFCURVE",
"203 485 CURVE SMOOTH"
);
},
{
closed = 1;
nodes = (
"402 485 OFFCURVE",
"417 500 OFFCURVE",
"417 519 CURVE SMOOTH",
"417 538 OFFCURVE",
"402 553 OFFCURVE",
"384 553 CURVE SMOOTH",
"365 553 OFFCURVE",
"350 538 OFFCURVE",
"350 519 CURVE SMOOTH",
"350 500 OFFCURVE",
"365 485 OFFCURVE",
"384 485 CURVE SMOOTH"
);
}
);
width = 600;
},
{
associatedMasterId = "2B3DFD70-41A3-4B85-88D0-92073D9863EC";
layerId = "94CEAAF9-6A61-41BE-A7F6-52BD2B786A1F";
paths = (
{
closed = 1;
nodes = (
"221 485 OFFCURVE",
"236 500 OFFCURVE",
"236 519 CURVE SMOOTH",
"236 538 OFFCURVE",
"221 553 OFFCURVE",
"203 553 CURVE SMOOTH",
"184 553 OFFCURVE",
"169 538 OFFCURVE",
"169 519 CURVE SMOOTH",
"169 500 OFFCURVE",
"184 485 OFFCURVE",
"203 485 CURVE SMOOTH"
);
},
{
closed = 1;
nodes = (
"402 485 OFFCURVE",
"417 500 OFFCURVE",
"417 519 CURVE SMOOTH",
"417 538 OFFCURVE",
"402 553 OFFCURVE",
"384 553 CURVE SMOOTH",
"365 553 OFFCURVE",
"350 538 OFFCURVE",
"350 519 CURVE SMOOTH",
"350 500 OFFCURVE",
"365 485 OFFCURVE",
"384 485 CURVE SMOOTH"
);
}
);
visible = 1;
width = 600;
}
);
note = dieresis;
unicode = 00A8;
},
{
glyphname = copyright;
lastChange = "2018-05-04 08:01:45 +0000";
layers = (
{
layerId = "2B3DFD70-41A3-4B85-88D0-92073D9863EC";
paths = (
{
closed = 1;
nodes = (
"459 5 OFFCURVE",
"589 135 OFFCURVE",
"589 295 CURVE SMOOTH",
"589 455 OFFCURVE",
"459 585 OFFCURVE",
"299 585 CURVE SMOOTH",
"139 585 OFFCURVE",
"9 455 OFFCURVE",
"9 295 CURVE SMOOTH",
"9 135 OFFCURVE",
"139 5 OFFCURVE",
"299 5 CURVE SMOOTH"
);
},
{
closed = 1;
nodes = (
"152 30 OFFCURVE",
"34 148 OFFCURVE",
"34 295 CURVE SMOOTH",
"34 441 OFFCURVE",
"152 559 OFFCURVE",
"299 559 CURVE SMOOTH",
"445 559 OFFCURVE",
"563 441 OFFCURVE",
"563 295 CURVE SMOOTH",
"563 148 OFFCURVE",
"445 30 OFFCURVE",
"299 30 CURVE SMOOTH"
);
},
{
closed = 1;
nodes = (
"389 106 OFFCURVE",
"462 161 OFFCURVE",
"495 245 CURVE",
"468 257 LINE",
"442 188 OFFCURVE",
"376 136 OFFCURVE",
"301 136 CURVE SMOOTH",
"211 136 OFFCURVE",
"138 204 OFFCURVE",
"138 300 CURVE SMOOTH",
"138 392 OFFCURVE",
"201 455 OFFCURVE",
"297 455 CURVE SMOOTH",
"356 455 OFFCURVE",
"414 418 OFFCURVE",
"414 360 CURVE",
"398 375 OFFCURVE",
"384 374 OFFCURVE",
"377 374 CURVE SMOOTH",
"358 374 OFFCURVE",
"340 354 OFFCURVE",
"340 335 CURVE SMOOTH",
"340 306 OFFCURVE",
"362 288 OFFCURVE",
"391 288 CURVE SMOOTH",
"420 288 OFFCURVE",
"444 315 OFFCURVE",
"444 354 CURVE SMOOTH",
"444 424 OFFCURVE",
"385 485 OFFCURVE",
"297 485 CURVE SMOOTH",
"196 485 OFFCURVE",
"108 410 OFFCURVE",
"108 300 CURVE SMOOTH",
"108 196 OFFCURVE",
"185 106 OFFCURVE",
"301 106 CURVE SMOOTH"
);
}
);
width = 600;
}
);
note = copyright;
unicode = 00A9;
},
{
glyphname = ordfeminine;
lastChange = "2018-05-04 08:01:45 +0000";
layers = (
{
layerId = "2B3DFD70-41A3-4B85-88D0-92073D9863EC";
paths = (
{
closed = 1;
nodes = (
"421 67 LINE SMOOTH",
"422 5 OFFCURVE",
"447 -13 OFFCURVE",
"476 -13 CURVE SMOOTH",
"520 -13 OFFCURVE",
"541 44 OFFCURVE",
"569 107 CURVE",
"542 120 LINE",
"518 66 OFFCURVE",
"498 17 OFFCURVE",
"476 17 CURVE SMOOTH",
"460 17 OFFCURVE",
"451 33 OFFCURVE",
"451 67 CURVE SMOOTH",
"451 317 LINE SMOOTH",
"451 404 OFFCURVE",
"351 443 OFFCURVE",
"255 443 CURVE SMOOTH",
"171 443 OFFCURVE",
"80 396 OFFCURVE",
"80 330 CURVE SMOOTH",
"80 298 OFFCURVE",
"96 271 OFFCURVE",
"129 271 CURVE SMOOTH",
"160 271 OFFCURVE",
"184 285 OFFCURVE",
"184 321 CURVE SMOOTH",
"184 348 OFFCURVE",
"159 360 OFFCURVE",
"140 360 CURVE SMOOTH",
"134 360 OFFCURVE",
"120 357 OFFCURVE",
"112 352 CURVE",
"138 392 OFFCURVE",
"196 413 OFFCURVE",
"255 413 CURVE SMOOTH",
"330 413 OFFCURVE",
"421 386 OFFCURVE",
"421 317 CURVE SMOOTH",
"421 251 OFFCURVE",
"358 248 OFFCURVE",
"253 243 CURVE SMOOTH",
"147 238 OFFCURVE",
"45 204 OFFCURVE",
"43 112 CURVE SMOOTH",
"41 33 OFFCURVE",
"102 -13 OFFCURVE",
"184 -13 CURVE SMOOTH",
"270 -13 OFFCURVE",
"336 22 OFFCURVE",
"421 91 CURVE"
);
},
{
closed = 1;
nodes = (
"73 181 OFFCURVE",
"164 213 OFFCURVE",
"253 213 CURVE SMOOTH",
"313 213 OFFCURVE",
"391 219 OFFCURVE",
"421 251 CURVE",
"421 131 LINE",
"339 62 OFFCURVE",
"275 17 OFFCURVE",
"185 17 CURVE SMOOTH",
"116 17 OFFCURVE",
"73 49 OFFCURVE",
"73 112 CURVE SMOOTH"
);
}
);
width = 600;
}
);
note = ordfeminine;
unicode = 00AA;
},
{
glyphname = guillemotleft;
lastChange = "2018-05-04 08:01:45 +0000";
layers = (
{
layerId = "2B3DFD70-41A3-4B85-88D0-92073D9863EC";
paths = (
{
closed = 1;
nodes = (
"151 208 OFFCURVE",
"242 144 OFFCURVE",
"303 63 CURVE",
"326 87 LINE",
"261 168 OFFCURVE",
"201 213 OFFCURVE",
"150 253 CURVE",
"201 293 OFFCURVE",
"261 338 OFFCURVE",
"326 419 CURVE",
"303 443 LINE",
"242 362 OFFCURVE",
"151 298 OFFCURVE",
"99 253 CURVE"
);
},
{
closed = 1;
nodes = (
"339 208 OFFCURVE",
"430 144 OFFCURVE",
"491 63 CURVE",
"514 87 LINE",
"449 168 OFFCURVE",
"389 213 OFFCURVE",
"338 253 CURVE",
"389 293 OFFCURVE",
"449 338 OFFCURVE",
"514 419 CURVE",
"491 443 LINE",
"430 362 OFFCURVE",
"339 298 OFFCURVE",
"287 253 CURVE"
);
}
);
width = 600;
}
);
note = guillemotleft;
unicode = 00AB;
},
{
glyphname = logicalnot;
lastChange = "2018-05-04 08:01:45 +0000";
layers = (
{
layerId = "2B3DFD70-41A3-4B85-88D0-92073D9863EC";
paths = (
{
closed = 1;
nodes = (
"104 301 LINE",
"104 331 LINE",
"496 331 LINE",
"496 127 LINE",
"465 127 LINE",
"466 301 LINE"
);
}
);
width = 600;
}
);
note = logicalnot;
unicode = 00AC;
},
{
glyphname = registered;
lastChange = "2018-05-04 08:01:45 +0000";
layers = (
{
layerId = "2B3DFD70-41A3-4B85-88D0-92073D9863EC";
paths = (
{
closed = 1;
nodes = (
"298 314 OFFCURVE",
"363 379 OFFCURVE",
"363 459 CURVE SMOOTH",
"363 538 OFFCURVE",
"298 603 OFFCURVE",
"219 603 CURVE SMOOTH",
"139 603 OFFCURVE",
"74 538 OFFCURVE",
"74 459 CURVE SMOOTH",
"74 379 OFFCURVE",
"139 314 OFFCURVE",
"219 314 CURVE SMOOTH"
);
},
{
closed = 1;
nodes = (
"149 333 OFFCURVE",
"93 389 OFFCURVE",
"93 459 CURVE SMOOTH",
"93 528 OFFCURVE",
"149 584 OFFCURVE",
"219 584 CURVE SMOOTH",
"288 584 OFFCURVE",
"344 528 OFFCURVE",
"344 459 CURVE SMOOTH",
"344 389 OFFCURVE",
"288 333 OFFCURVE",
"219 333 CURVE SMOOTH"
);
},
{
closed = 1;
nodes = (
"154 389 LINE",
"211 389 LINE",
"211 408 LINE",
"191 408 LINE",
"191 449 LINE",
"211 449 LINE SMOOTH",
"223 449 OFFCURVE",
"230 443 OFFCURVE",
"233 430 CURVE SMOOTH",
"240 400 OFFCURVE",
"250 388 OFFCURVE",
"268 388 CURVE SMOOTH",
"284 388 OFFCURVE",
"297 399 OFFCURVE",
"297 428 CURVE SMOOTH",
"297 439 LINE",
"278 439 LINE",
"278 428 LINE SMOOTH",
"278 421 OFFCURVE",
"278 407 OFFCURVE",
"268 407 CURVE SMOOTH",
"259 407 OFFCURVE",
"257 416 OFFCURVE",
"252 434 CURVE SMOOTH",
"248 449 OFFCURVE",
"246 455 OFFCURVE",
"240 457 CURVE",
"249 457 OFFCURVE",
"270 466 OFFCURVE",
"270 493 CURVE SMOOTH",
"270 518 OFFCURVE",
"252 533 OFFCURVE",
"225 533 CURVE SMOOTH",
"154 533 LINE",
"154 514 LINE",
"172 514 LINE",
"172 408 LINE",
"154 408 LINE"
);
},
{
closed = 1;
nodes = (
"191 468 LINE",
"191 514 LINE",
"225 514 LINE SMOOTH",
"242 514 OFFCURVE",
"251 504 OFFCURVE",
"251 493 CURVE SMOOTH",
"251 477 OFFCURVE",
"236 468 OFFCURVE",
"216 468 CURVE SMOOTH"
);
}
);
width = 600;
}
);
note = registered;
unicode = 00AE;
},
{
glyphname = macron;
lastChange = "2018-05-04 08:01:45 +0000";
layers = (
{
layerId = "2B3DFD70-41A3-4B85-88D0-92073D9863EC";
paths = (
{
closed = 1;
nodes = (
"158 543 LINE",
"443 543 LINE",
"443 513 LINE",
"158 513 LINE"
);
}
);
width = 600;
}
);
note = macron;
unicode = 00AF;
},
{
glyphname = degree;
lastChange = "2018-05-04 08:01:45 +0000";
layers = (
{
layerId = "2B3DFD70-41A3-4B85-88D0-92073D9863EC";
paths = (
{
closed = 1;
nodes = (
"369 356 OFFCURVE",
"424 411 OFFCURVE",
"424 480 CURVE SMOOTH",
"424 548 OFFCURVE",
"369 603 OFFCURVE",
"301 603 CURVE SMOOTH",
"232 603 OFFCURVE",
"177 548 OFFCURVE",
"177 480 CURVE SMOOTH",
"177 411 OFFCURVE",
"232 356 OFFCURVE",
"301 356 CURVE SMOOTH"
);
},
{
closed = 1;
nodes = (
"248 385 OFFCURVE",
"206 427 OFFCURVE",
"206 480 CURVE SMOOTH",
"206 532 OFFCURVE",
"248 574 OFFCURVE",
"301 574 CURVE SMOOTH",
"353 574 OFFCURVE",
"395 532 OFFCURVE",
"395 480 CURVE SMOOTH",
"395 427 OFFCURVE",
"353 385 OFFCURVE",
"301 385 CURVE SMOOTH"
);
}
);
width = 600;
}
);
note = degree;
unicode = 00B0;
},
{
glyphname = plusminus;
lastChange = "2018-05-04 08:01:45 +0000";
layers = (
{
layerId = "2B3DFD70-41A3-4B85-88D0-92073D9863EC";
paths = (
{
closed = 1;
nodes = (
"87 268 LINE",
"87 298 LINE",
"287 298 LINE",
"287 430 LINE",
"317 429 LINE",
"317 297 LINE",
"517 298 LINE",
"517 268 LINE",
"317 267 LINE",
"317 135 LINE",
"287 136 LINE",
"287 268 LINE"
);
},
{
closed = 1;
nodes = (
"517 36 LINE",
"87 36 LINE",
"87 67 LINE",
"517 67 LINE"
);
}
);
width = 600;
}
);
note = plusminus;
unicode = 00B1;
},
{
glyphname = uni00B2;
lastChange = "2018-05-30 12:59:27 +0000";
layers = (
{
layerId = "2B3DFD70-41A3-4B85-88D0-92073D9863EC";
paths = (
{
closed = 1;
nodes = (
"57 549 OFFCURVE",
"87 579 OFFCURVE",
"138 579 CURVE SMOOTH",
"185 579 OFFCURVE",
"212 554 OFFCURVE",
"212 526 CURVE SMOOTH",
"212 496 OFFCURVE",
"196 478 OFFCURVE",
"165 466 CURVE SMOOTH",
"108 444 LINE SMOOTH",
"58 425 OFFCURVE",
"25 401 OFFCURVE",
"25 332 CURVE",
"50 319 LINE",
"74 334 OFFCURVE",
"88 345 OFFCURVE",
"111 345 CURVE SMOOTH",
"148 345 OFFCURVE",
"147 317 OFFCURVE",
"197 317 CURVE SMOOTH",
"234 317 OFFCURVE",
"257 342 OFFCURVE",
"257 399 CURVE SMOOTH",
"257 415 LINE",
"233 415 LINE",
"233 400 LINE SMOOTH",
"233 365 OFFCURVE",
"221 341 OFFCURVE",
"197 341 CURVE SMOOTH",
"166 341 OFFCURVE",
"152 369 OFFCURVE",
"111 369 CURVE SMOOTH",
"87 369 OFFCURVE",
"71 362 OFFCURVE",
"49 346 CURVE",
"49 371 OFFCURVE",
"63 401 OFFCURVE",
"118 422 CURVE SMOOTH",
"172 443 LINE SMOOTH",
"211 458 OFFCURVE",
"236 481 OFFCURVE",
"236 526 CURVE SMOOTH",
"236 570 OFFCURVE",
"194 603 OFFCURVE",
"138 603 CURVE SMOOTH",
"82 603 OFFCURVE",
"36 567 OFFCURVE",
"36 525 CURVE SMOOTH",
"36 504 OFFCURVE",
"49 486 OFFCURVE",
"71 486 CURVE SMOOTH",
"90 486 OFFCURVE",
"102 497 OFFCURVE",
"102 514 CURVE SMOOTH",
"102 531 OFFCURVE",
"91 539 OFFCURVE",
"78 539 CURVE SMOOTH",
"68 539 OFFCURVE",
"61 534 OFFCURVE",
"57 524 CURVE"
);
}
);
width = 600;
}
);
note = uni00B2;
unicode = 00B2;
},
{
glyphname = uni00B3;
lastChange = "2018-05-30 12:59:42 +0000";
layers = (
{
layerId = "2B3DFD70-41A3-4B85-88D0-92073D9863EC";
paths = (
{
closed = 1;
nodes = (
"46 362 OFFCURVE",
"86 338 OFFCURVE",
"135 338 CURVE SMOOTH",
"178 338 OFFCURVE",
"233 364 OFFCURVE",
"233 415 CURVE SMOOTH",
"233 461 OFFCURVE",
"183 484 OFFCURVE",
"135 478 CURVE",
"119 465 LINE",
"104 484 LINE",
"204 566 LINE",
"63 566 LINE",
"51 514 LINE",
"27 517 LINE",
"43 590 LINE",
"249 590 LINE",
"249 572 LINE",
"162 501 LINE",
"216 501 OFFCURVE",
"257 464 OFFCURVE",
"257 415 CURVE SMOOTH",
"257 348 OFFCURVE",
"190 314 OFFCURVE",
"135 314 CURVE SMOOTH",
"82 314 OFFCURVE",
"25 341 OFFCURVE",
"25 390 CURVE SMOOTH",
"25 411 OFFCURVE",
"38 427 OFFCURVE",
"60 427 CURVE SMOOTH",
"79 427 OFFCURVE",
"91 416 OFFCURVE",
"91 399 CURVE SMOOTH",
"91 382 OFFCURVE",
"80 374 OFFCURVE",
"67 374 CURVE SMOOTH",
"57 374 OFFCURVE",
"50 379 OFFCURVE",
"46 389 CURVE"
);
}
);
width = 600;
}
);
note = uni00B3;
unicode = 00B3;
},
{
glyphname = acute;
lastChange = "2018-05-04 08:01:45 +0000";
layers = (
{
layerId = "2B3DFD70-41A3-4B85-88D0-92073D9863EC";
paths = (
{
closed = 1;
nodes = (
"124 499 LINE",
"433 580 LINE",
"442 542 LINE",
"128 479 LINE"
);
}
);
width = 600;
}
);
note = acute;
unicode = 00B4;
},
{
glyphname = uni00B5;
lastChange = "2018-05-04 08:01:45 +0000";
layers = (
{
layerId = "2B3DFD70-41A3-4B85-88D0-92073D9863EC";
paths = (
{
closed = 1;
nodes = (
"473 34 LINE",
"473 363 LINE",
"472 425 OFFCURVE",
"447 443 OFFCURVE",
"418 443 CURVE SMOOTH",
"387 443 OFFCURVE",
"366 412 OFFCURVE",
"346 370 CURVE",
"373 355 LINE",
"389 389 OFFCURVE",
"404 413 OFFCURVE",
"418 413 CURVE SMOOTH",
"434 413 OFFCURVE",
"443 397 OFFCURVE",
"443 363 CURVE SMOOTH",
"443 173 LINE",
"345 66 OFFCURVE",
"313 17 OFFCURVE",
"255 17 CURVE SMOOTH",
"201 17 OFFCURVE",
"158 50 OFFCURVE",
"158 110 CURVE SMOOTH",
"158 363 LINE",
"157 425 OFFCURVE",
"132 443 OFFCURVE",
"103 443 CURVE SMOOTH",
"72 443 OFFCURVE",
"51 412 OFFCURVE",
"31 370 CURVE",
"58 355 LINE",
"74 389 OFFCURVE",
"89 413 OFFCURVE",
"103 413 CURVE SMOOTH",
"119 413 OFFCURVE",
"128 397 OFFCURVE",
"128 363 CURVE SMOOTH",
"128 -160 LINE",
"158 -160 LINE",
"158 28 LINE",
"179 4 OFFCURVE",
"211 -13 OFFCURVE",
"255 -13 CURVE SMOOTH",
"326 -13 OFFCURVE",
"368 44 OFFCURVE",
"443 129 CURVE",
"443 0 LINE",
"558 1 LINE",
"558 34 LINE"
);
}
);
width = 600;
}
);
note = uni00B5;
unicode = 00B5;
},
{
glyphname = paragraph;
lastChange = "2018-05-04 08:01:45 +0000";
layers = (
{
layerId = "2B3DFD70-41A3-4B85-88D0-92073D9863EC";
paths = (
{
closed = 1;
nodes = (
"569 608 LINE",
"527 601 OFFCURVE",
"491 597 OFFCURVE",
"462 597 CURVE SMOOTH",
"281 600 LINE SMOOTH",
"153 603 OFFCURVE",
"66 535 OFFCURVE",
"66 415 CURVE SMOOTH",
"66 295 OFFCURVE",
"151 228 OFFCURVE",
"300 230 CURVE SMOOTH",
"351 231 LINE",
"351 0 LINE",
"381 0 LINE",
"381 568 LINE",
"443 567 LINE",
"443 95 LINE SMOOTH",
"443 -26 OFFCURVE",
"403 -95 OFFCURVE",
"303 -95 CURVE SMOOTH",
"222 -95 OFFCURVE",
"168 -34 OFFCURVE",
"168 35 CURVE",
"175 21 OFFCURVE",
"186 2 OFFCURVE",
"217 2 CURVE SMOOTH",
"251 2 OFFCURVE",
"273 25 OFFCURVE",
"273 56 CURVE SMOOTH",
"273 94 OFFCURVE",
"244 114 OFFCURVE",
"208 114 CURVE SMOOTH",
"175 114 OFFCURVE",
"138 82 OFFCURVE",
"137 34 CURVE SMOOTH",
"135 -62 OFFCURVE",
"218 -125 OFFCURVE",
"303 -125 CURVE SMOOTH",
"421 -125 OFFCURVE",
"473 -46 OFFCURVE",
"473 85 CURVE SMOOTH",
"473 566 LINE",
"503 567 OFFCURVE",
"537 572 OFFCURVE",
"576 579 CURVE"
);
},
{
closed = 1;
nodes = (
"351 261 LINE",
"300 260 LINE SMOOTH",
"175 258 OFFCURVE",
"96 312 OFFCURVE",
"96 415 CURVE SMOOTH",
"96 518 OFFCURVE",
"180 572 OFFCURVE",
"281 570 CURVE SMOOTH",
"351 569 LINE"
);
}
);
width = 600;
}
);
note = paragraph;
unicode = 00B6;
},
{
glyphname = periodcentered;
lastChange = "2018-05-04 08:01:45 +0000";
layers = (
{
layerId = "2B3DFD70-41A3-4B85-88D0-92073D9863EC";
paths = (
{
closed = 1;
nodes = (
"337 221 OFFCURVE",
"366 251 OFFCURVE",
"366 287 CURVE SMOOTH",
"366 323 OFFCURVE",
"337 354 OFFCURVE",
"301 354 CURVE SMOOTH",
"264 354 OFFCURVE",
"233 323 OFFCURVE",
"233 287 CURVE SMOOTH",
"233 252 OFFCURVE",
"264 221 OFFCURVE",
"301 221 CURVE SMOOTH"
);
}
);
width = 600;
}
);
note = periodcentered;
unicode = 00B7;
},
{
glyphname = cedilla;
lastChange = "2018-05-30 13:44:41 +0000";
layers = (
{
layerId = "2B3DFD70-41A3-4B85-88D0-92073D9863EC";
paths = (
{
closed = 1;
nodes = (
"152 -129 OFFCURVE",
"218 -150 OFFCURVE",
"265 -150 CURVE SMOOTH",
"313 -150 OFFCURVE",
"367 -137 OFFCURVE",
"367 -108 CURVE SMOOTH",
"367 -80 OFFCURVE",
"335 -70 OFFCURVE",
"285 -67 CURVE",
"285 10 LINE",
"309 10 LINE",
"309 -47 LINE",
"353 -52 OFFCURVE",
"391 -68 OFFCURVE",
"391 -108 CURVE SMOOTH",
"391 -156 OFFCURVE",
"320 -173 OFFCURVE",
"265 -173 CURVE SMOOTH",
"196 -173 OFFCURVE",
"131 -138 OFFCURVE",
"131 -84 CURVE SMOOTH",
"131 -56 OFFCURVE",
"146 -39 OFFCURVE",
"168 -39 CURVE SMOOTH",
"182 -39 OFFCURVE",
"198 -50 OFFCURVE",
"198 -66 CURVE SMOOTH",
"198 -82 OFFCURVE",
"186 -93 OFFCURVE",
"174 -93 CURVE SMOOTH",
"168 -93 OFFCURVE",
"160 -92 OFFCURVE",
"152 -83 CURVE"
);
}
);
width = 600;
}
);
note = cedilla;
unicode = 00B8;
},
{
glyphname = uni00B9;
lastChange = "2018-05-30 12:59:47 +0000";
layers = (
{
layerId = "2B3DFD70-41A3-4B85-88D0-92073D9863EC";
paths = (
{
closed = 1;
nodes = (
"39 436 LINE",
"94 479 OFFCURVE",
"107 493 OFFCURVE",
"144 551 CURVE",
"144 347 LINE",
"43 347 LINE",
"43 323 LINE",
"247 323 LINE",
"247 347 LINE",
"168 347 LINE",
"168 590 LINE",
"136 590 LINE",
"108 531 OFFCURVE",
"72 492 OFFCURVE",
"25 455 CURVE"
);
}
);
width = 600;
}
);
note = uni00B9;
unicode = 00B9;
},
{
glyphname = ordmasculine;
lastChange = "2018-05-04 08:01:45 +0000";
layers = (
{
layerId = "2B3DFD70-41A3-4B85-88D0-92073D9863EC";
paths = (
{
closed = 1;
nodes = (
"427 -13 OFFCURVE",
"529 88 OFFCURVE",
"529 216 CURVE SMOOTH",
"529 342 OFFCURVE",
"427 443 OFFCURVE",
"301 443 CURVE SMOOTH",
"174 443 OFFCURVE",
"72 342 OFFCURVE",
"72 216 CURVE SMOOTH",
"72 88 OFFCURVE",
"174 -13 OFFCURVE",
"301 -13 CURVE SMOOTH"
);
},
{
closed = 1;
nodes = (
"191 17 OFFCURVE",
"102 105 OFFCURVE",
"102 216 CURVE SMOOTH",
"102 325 OFFCURVE",
"191 413 OFFCURVE",
"301 413 CURVE SMOOTH",
"410 413 OFFCURVE",
"499 325 OFFCURVE",
"499 216 CURVE SMOOTH",
"499 105 OFFCURVE",
"410 17 OFFCURVE",
"301 17 CURVE SMOOTH"
);
}
);
width = 600;
}
);
note = ordmasculine;
unicode = 00BA;
},
{
glyphname = guillemotright;
lastChange = "2018-05-04 08:01:45 +0000";
layers = (
{
layerId = "2B3DFD70-41A3-4B85-88D0-92073D9863EC";
paths = (
{
closed = 1;
nodes = (
"274 298 OFFCURVE",
"183 362 OFFCURVE",
"122 443 CURVE",
"99 419 LINE",
"164 338 OFFCURVE",
"224 293 OFFCURVE",
"275 253 CURVE",
"224 213 OFFCURVE",
"164 168 OFFCURVE",
"99 87 CURVE",
"122 63 LINE",
"183 144 OFFCURVE",
"274 208 OFFCURVE",
"326 253 CURVE"
);
},
{
closed = 1;
nodes = (
"462 298 OFFCURVE",
"371 362 OFFCURVE",
"310 443 CURVE",
"287 419 LINE",
"352 338 OFFCURVE",
"412 293 OFFCURVE",
"463 253 CURVE",
"412 213 OFFCURVE",
"352 168 OFFCURVE",
"287 87 CURVE",
"310 63 LINE",
"371 144 OFFCURVE",
"462 208 OFFCURVE",
"514 253 CURVE"
);
}
);
width = 600;
}
);
note = guillemotright;
unicode = 00BB;
},
{
glyphname = onequarter;
lastChange = "2018-05-04 08:01:45 +0000";
layers = (
{
layerId = "2B3DFD70-41A3-4B85-88D0-92073D9863EC";
paths = (
{
closed = 1;
nodes = (
"512 603 LINE",
"81 1 LINE",
"101 -13 LINE",
"532 590 LINE"
);
},
{
closed = 1;
nodes = (
"54 436 LINE",
"109 479 OFFCURVE",
"122 493 OFFCURVE",
"159 551 CURVE",
"159 347 LINE",
"58 347 LINE",
"58 323 LINE",
"262 323 LINE",
"262 347 LINE",
"183 347 LINE",
"183 590 LINE",
"151 590 LINE",
"123 531 OFFCURVE",
"87 492 OFFCURVE",
"40 455 CURVE"
);
},
{
closed = 1;
nodes = (
"457 33 LINE",
"457 -14 LINE",
"481 -14 LINE",
"481 33 LINE",
"555 33 LINE",
"555 57 LINE",
"481 57 LINE",
"481 185 LINE",
"457 185 LINE",
"457 57 LINE",
"318 57 LINE",
"381 141 OFFCURVE",
"410 193 OFFCURVE",
"431 261 CURVE",
"409 268 LINE",
"387 195 OFFCURVE",
"345 129 OFFCURVE",
"290 60 CURVE",
"290 33 LINE"
);
}
);
width = 600;
}
);
note = onequarter;
unicode = 00BC;
},
{
glyphname = onehalf;
lastChange = "2018-05-04 08:01:45 +0000";
layers = (
{
layerId = "2B3DFD70-41A3-4B85-88D0-92073D9863EC";
paths = (
{
closed = 1;
nodes = (
"512 603 LINE",
"81 1 LINE",
"101 -13 LINE",
"532 590 LINE"
);
},
{
closed = 1;
nodes = (
"54 436 LINE",
"109 479 OFFCURVE",
"122 493 OFFCURVE",
"159 551 CURVE",
"159 347 LINE",
"58 347 LINE",
"58 323 LINE",
"262 323 LINE",
"262 347 LINE",
"183 347 LINE",
"183 590 LINE",
"151 590 LINE",
"123 531 OFFCURVE",
"87 492 OFFCURVE",
"40 455 CURVE"
);
},
{
closed = 1;
nodes = (
"358 219 OFFCURVE",
"388 249 OFFCURVE",
"439 249 CURVE SMOOTH",
"486 249 OFFCURVE",
"513 224 OFFCURVE",
"513 196 CURVE SMOOTH",
"513 166 OFFCURVE",
"497 148 OFFCURVE",
"466 136 CURVE SMOOTH",
"409 114 LINE SMOOTH",
"359 95 OFFCURVE",
"326 71 OFFCURVE",
"326 2 CURVE",
"351 -11 LINE",
"375 4 OFFCURVE",
"389 15 OFFCURVE",
"412 15 CURVE SMOOTH",
"449 15 OFFCURVE",
"448 -13 OFFCURVE",
"498 -13 CURVE SMOOTH",
"535 -13 OFFCURVE",
"558 12 OFFCURVE",
"558 69 CURVE SMOOTH",
"558 85 LINE",
"534 85 LINE",
"534 70 LINE SMOOTH",
"534 35 OFFCURVE",
"522 11 OFFCURVE",
"498 11 CURVE SMOOTH",
"467 11 OFFCURVE",
"453 39 OFFCURVE",
"412 39 CURVE SMOOTH",
"388 39 OFFCURVE",
"372 32 OFFCURVE",
"350 16 CURVE",
"350 41 OFFCURVE",
"364 71 OFFCURVE",
"419 92 CURVE SMOOTH",
"473 113 LINE SMOOTH",
"512 128 OFFCURVE",
"537 151 OFFCURVE",
"537 196 CURVE SMOOTH",
"537 240 OFFCURVE",
"495 273 OFFCURVE",
"439 273 CURVE SMOOTH",
"383 273 OFFCURVE",
"337 237 OFFCURVE",
"337 195 CURVE SMOOTH",
"337 174 OFFCURVE",
"350 156 OFFCURVE",
"372 156 CURVE SMOOTH",
"391 156 OFFCURVE",
"403 167 OFFCURVE",
"403 184 CURVE SMOOTH",
"403 201 OFFCURVE",
"392 209 OFFCURVE",
"379 209 CURVE SMOOTH",
"369 209 OFFCURVE",
"362 204 OFFCURVE",
"358 194 CURVE"
);
}
);
width = 600;
}
);
note = onehalf;
unicode = 00BD;
},
{
glyphname = threequarters;
lastChange = "2018-05-04 08:01:45 +0000";
layers = (
{
layerId = "2B3DFD70-41A3-4B85-88D0-92073D9863EC";
paths = (
{
closed = 1;
nodes = (
"512 603 LINE",
"81 1 LINE",
"101 -13 LINE",
"532 590 LINE"
);
},
{
closed = 1;
nodes = (
"70 362 OFFCURVE",
"110 338 OFFCURVE",
"159 338 CURVE SMOOTH",
"202 338 OFFCURVE",
"257 364 OFFCURVE",
"257 415 CURVE SMOOTH",
"257 461 OFFCURVE",
"207 484 OFFCURVE",
"159 478 CURVE",
"143 465 LINE",
"128 484 LINE",
"228 566 LINE",
"87 566 LINE",
"75 514 LINE",
"51 517 LINE",
"67 590 LINE",
"273 590 LINE",
"273 572 LINE",
"186 501 LINE",
"240 501 OFFCURVE",
"281 464 OFFCURVE",
"281 415 CURVE SMOOTH",
"281 348 OFFCURVE",
"214 314 OFFCURVE",
"159 314 CURVE SMOOTH",
"106 314 OFFCURVE",
"49 341 OFFCURVE",
"49 390 CURVE SMOOTH",
"49 411 OFFCURVE",
"62 427 OFFCURVE",
"84 427 CURVE SMOOTH",
"103 427 OFFCURVE",
"115 416 OFFCURVE",
"115 399 CURVE SMOOTH",
"115 382 OFFCURVE",
"104 374 OFFCURVE",
"91 374 CURVE SMOOTH",
"81 374 OFFCURVE",
"74 379 OFFCURVE",
"70 389 CURVE"
);
},
{
closed = 1;
nodes = (
"457 33 LINE",
"457 -14 LINE",
"481 -14 LINE",
"481 33 LINE",
"555 33 LINE",
"555 57 LINE",
"481 57 LINE",
"481 185 LINE",
"457 185 LINE",
"457 57 LINE",
"318 57 LINE",
"381 141 OFFCURVE",
"410 193 OFFCURVE",
"431 261 CURVE",
"409 268 LINE",
"387 195 OFFCURVE",
"345 129 OFFCURVE",
"290 60 CURVE",
"290 33 LINE"
);
}
);
width = 600;
}
);
note = threequarters;
unicode = 00BE;
},
{
glyphname = questiondown;
lastChange = "2018-06-06 13:31:32 +0000";
layers = (
{
layerId = "2B3DFD70-41A3-4B85-88D0-92073D9863EC";
paths = (
{
closed = 1;
nodes = (
"279 443 OFFCURVE",
"256 419 OFFCURVE",
"256 392 CURVE SMOOTH",
"256 365 OFFCURVE",
"279 341 OFFCURVE",
"307 341 CURVE SMOOTH",
"335 341 OFFCURVE",
"359 365 OFFCURVE",
"359 392 CURVE SMOOTH",
"359 419 OFFCURVE",
"335 443 OFFCURVE",
"307 443 CURVE SMOOTH"
);
},
{
closed = 1;
nodes = (
"83 -131 OFFCURVE",
"197 -173 OFFCURVE",
"290 -173 CURVE SMOOTH",
"410 -173 OFFCURVE",
"506 -112 OFFCURVE",
"506 -23 CURVE SMOOTH",
"506 17 OFFCURVE",
"475 38 OFFCURVE",
"450 38 CURVE SMOOTH",
"424 38 OFFCURVE",
"403 18 OFFCURVE",
"403 -8 CURVE SMOOTH",
"403 -27 OFFCURVE",
"422 -50 OFFCURVE",
"444 -50 CURVE SMOOTH",
"463 -50 OFFCURVE",
"472 -40 OFFCURVE",
"477 -37 CURVE",
"477 -93 OFFCURVE",
"395 -143 OFFCURVE",
"290 -143 CURVE SMOOTH",
"200 -143 OFFCURVE",
"114 -100 OFFCURVE",
"114 -16 CURVE SMOOTH",
"114 45 OFFCURVE",
"152 69 OFFCURVE",
"212 102 CURVE SMOOTH",
"265 131 LINE SMOOTH",
"340 172 OFFCURVE",
"383 189 OFFCURVE",
"383 236 CURVE SMOOTH",
"383 263 OFFCURVE",
"357 296 OFFCURVE",
"317 296 CURVE SMOOTH",
"288 296 OFFCURVE",
"268 287 OFFCURVE",
"240 261 CURVE",
"259 240 LINE",
"272 252 OFFCURVE",
"293 266 OFFCURVE",
"317 266 CURVE SMOOTH",
"339 266 OFFCURVE",
"353 253 OFFCURVE",
"353 236 CURVE SMOOTH",
"353 209 OFFCURVE",
"323 196 OFFCURVE",
"251 157 CURVE SMOOTH",
"199 129 LINE SMOOTH",
"139 97 OFFCURVE",
"85 66 OFFCURVE",
"84 -16 CURVE SMOOTH"
);
}
);
width = 600;
}
);
note = questiondown;
unicode = 00BF;
},
{
glyphname = Agrave;
lastChange = "2018-05-29 19:35:07 +0000";
layers = (
{
layerId = "2B3DFD70-41A3-4B85-88D0-92073D9863EC";
paths = (
{
closed = 1;
nodes = (
"452 655 LINE",
"448 633 LINE",
"134 696 LINE",
"143 736 LINE"
);
},
{
closed = 1;
nodes = (
"24 0 LINE",
"212 0 LINE",
"212 30 LINE",
"123 30 LINE",
"190 226 LINE",
"409 226 LINE",
"476 30 LINE",
"387 30 LINE",
"387 0 LINE",
"575 0 LINE",
"575 30 LINE",
"508 30 LINE",
"321 590 LINE",
"319 590 LINE SMOOTH",
"268 590 OFFCURVE",
"227 592 OFFCURVE",
"177 603 CURVE",
"170 575 LINE",
"202 568 OFFCURVE",
"234 565 OFFCURVE",
"269 562 CURVE",
"91 30 LINE",
"24 30 LINE"
);
},
{
closed = 1;
nodes = (
"200 256 LINE",
"300 559 LINE",
"399 256 LINE"
);
}
);
width = 600;
}
);
note = Agrave;
unicode = 00C0;
},
{
glyphname = Aacute;
lastChange = "2018-05-29 19:35:13 +0000";
layers = (
{
layerId = "2B3DFD70-41A3-4B85-88D0-92073D9863EC";
paths = (
{
closed = 1;
nodes = (
"134 655 LINE",
"443 736 LINE",
"452 696 LINE",
"138 633 LINE"
);
},
{
closed = 1;
nodes = (
"24 0 LINE",
"212 0 LINE",
"212 30 LINE",
"123 30 LINE",
"190 226 LINE",
"409 226 LINE",
"476 30 LINE",
"387 30 LINE",
"387 0 LINE",
"575 0 LINE",
"575 30 LINE",
"508 30 LINE",
"321 590 LINE",
"319 590 LINE SMOOTH",
"268 590 OFFCURVE",
"227 592 OFFCURVE",
"177 603 CURVE",
"170 575 LINE",
"202 568 OFFCURVE",
"234 565 OFFCURVE",
"269 562 CURVE",
"91 30 LINE",
"24 30 LINE"
);
},
{
closed = 1;
nodes = (
"200 256 LINE",
"300 559 LINE",
"399 256 LINE"
);
}
);
width = 600;
}
);
note = Aacute;
unicode = 00C1;
},
{
glyphname = Acircumflex;
lastChange = "2018-05-29 19:35:16 +0000";
layers = (
{
layerId = "2B3DFD70-41A3-4B85-88D0-92073D9863EC";
paths = (
{
closed = 1;
nodes = (
"299 747 LINE",
"505 641 LINE",
"499 624 LINE",
"299 709 LINE",
"99 624 LINE",
"94 641 LINE"
);
},
{
closed = 1;
nodes = (
"24 0 LINE",
"212 0 LINE",
"212 30 LINE",
"123 30 LINE",
"190 226 LINE",
"409 226 LINE",
"476 30 LINE",
"387 30 LINE",
"387 0 LINE",
"575 0 LINE",
"575 30 LINE",
"508 30 LINE",
"321 590 LINE",
"319 590 LINE SMOOTH",
"268 590 OFFCURVE",
"227 592 OFFCURVE",
"177 603 CURVE",
"170 575 LINE",
"202 568 OFFCURVE",
"234 565 OFFCURVE",
"269 562 CURVE",
"91 30 LINE",
"24 30 LINE"
);
},
{
closed = 1;
nodes = (
"200 256 LINE",
"300 559 LINE",
"399 256 LINE"
);
}
);
width = 600;
}
);
note = Acircumflex;
unicode = 00C2;
},
{
glyphname = Atilde;
lastChange = "2018-05-29 19:35:21 +0000";
layers = (
{
layerId = "2B3DFD70-41A3-4B85-88D0-92073D9863EC";
paths = (
{
closed = 1;
nodes = (
"316 681 OFFCURVE",
"299 754 OFFCURVE",
"227 754 CURVE SMOOTH",
"198 754 OFFCURVE",
"161 731 OFFCURVE",
"113 676 CURVE",
"134 656 LINE",
"174 703 OFFCURVE",
"200 724 OFFCURVE",
"227 724 CURVE SMOOTH",
"280 724 OFFCURVE",
"297 651 OFFCURVE",
"369 651 CURVE SMOOTH",
"398 651 OFFCURVE",
"435 672 OFFCURVE",
"482 728 CURVE",
"461 748 LINE",
"422 700 OFFCURVE",
"396 681 OFFCURVE",
"369 681 CURVE SMOOTH"
);
},
{
closed = 1;
nodes = (
"24 0 LINE",
"212 0 LINE",
"212 30 LINE",
"123 30 LINE",
"190 226 LINE",
"409 226 LINE",
"476 30 LINE",
"387 30 LINE",
"387 0 LINE",
"575 0 LINE",
"575 30 LINE",
"508 30 LINE",
"321 590 LINE",
"319 590 LINE SMOOTH",
"268 590 OFFCURVE",
"227 592 OFFCURVE",
"177 603 CURVE",
"170 575 LINE",
"202 568 OFFCURVE",
"234 565 OFFCURVE",
"269 562 CURVE",
"91 30 LINE",
"24 30 LINE"
);
},
{
closed = 1;
nodes = (
"200 256 LINE",
"300 559 LINE",
"399 256 LINE"
);
}
);
width = 600;
}
);
note = Atilde;
unicode = 00C3;
},
{
glyphname = Aring;
lastChange = "2018-05-29 19:35:28 +0000";
layers = (
{
layerId = "2B3DFD70-41A3-4B85-88D0-92073D9863EC";
paths = (
{
closed = 1;
nodes = (
"334 641 OFFCURVE",
"366 670 OFFCURVE",
"366 705 CURVE SMOOTH",
"366 741 OFFCURVE",
"334 769 OFFCURVE",
"299 769 CURVE SMOOTH",
"264 769 OFFCURVE",
"233 741 OFFCURVE",
"233 705 CURVE SMOOTH",
"233 670 OFFCURVE",
"264 641 OFFCURVE",
"299 641 CURVE SMOOTH"
);
},
{
closed = 1;
nodes = (
"274 661 OFFCURVE",
"255 680 OFFCURVE",
"255 705 CURVE SMOOTH",
"255 729 OFFCURVE",
"274 748 OFFCURVE",
"299 748 CURVE SMOOTH",
"323 748 OFFCURVE",
"342 729 OFFCURVE",
"342 705 CURVE SMOOTH",
"342 680 OFFCURVE",
"323 661 OFFCURVE",
"299 661 CURVE SMOOTH"
);
},
{
closed = 1;
nodes = (
"24 0 LINE",
"212 0 LINE",
"212 30 LINE",
"123 30 LINE",
"190 226 LINE",
"409 226 LINE",
"476 30 LINE",
"387 30 LINE",
"387 0 LINE",
"575 0 LINE",
"575 30 LINE",
"508 30 LINE",
"321 590 LINE",
"319 590 LINE SMOOTH",
"268 590 OFFCURVE",
"227 592 OFFCURVE",
"177 603 CURVE",
"170 575 LINE",
"202 568 OFFCURVE",
"234 565 OFFCURVE",
"269 562 CURVE",
"91 30 LINE",
"24 30 LINE"
);
},
{
closed = 1;
nodes = (
"200 256 LINE",
"300 559 LINE",
"399 256 LINE"
);
}
);
width = 600;
}
);
note = Aring;
unicode = 00C5;
},
{
glyphname = AE;
lastChange = "2018-05-29 19:35:49 +0000";
layers = (
{
layerId = "2B3DFD70-41A3-4B85-88D0-92073D9863EC";
paths = (
{
closed = 1;
nodes = (
"21 0 LINE",
"21 30 LINE",
"88 30 LINE",
"269 562 LINE",
"234 565 OFFCURVE",
"202 568 OFFCURVE",
"170 575 CURVE",
"177 603 LINE",
"227 592 OFFCURVE",
"268 590 OFFCURVE",
"319 590 CURVE SMOOTH",
"580 590 LINE",
"588 494 LINE",
"558 491 LINE",
"553 560 LINE",
"330 560 LINE",
"330 280 LINE",
"459 280 LINE",
"459 400 LINE",
"489 400 LINE",
"489 135 LINE",
"459 135 LINE",
"459 250 LINE",
"330 250 LINE",
"330 30 LINE",
"553 30 LINE",
"558 96 LINE",
"588 93 LINE",
"580 0 LINE",
"300 0 LINE",
"300 250 LINE",
"195 250 LINE",
"120 30 LINE",
"209 30 LINE",
"209 0 LINE"
);
},
{
closed = 1;
nodes = (
"205 280 LINE",
"300 280 LINE",
"300 559 LINE"
);
}
);
width = 600;
}
);
note = AE;
unicode = 00C6;
},
{
glyphname = Egrave;
lastChange = "2018-05-29 19:36:17 +0000";
layers = (
{
layerId = "2B3DFD70-41A3-4B85-88D0-92073D9863EC";
paths = (
{
closed = 1;
nodes = (
"471 655 LINE",
"467 633 LINE",
"153 696 LINE",
"162 736 LINE"
);
},
{
closed = 1;
nodes = (
"41 30 LINE",
"165 30 LINE",
"165 560 LINE",
"41 560 LINE",
"41 590 LINE",
"531 590 LINE",
"550 373 LINE",
"520 370 LINE",
"504 560 LINE",
"195 560 LINE",
"195 307 LINE",
"365 307 LINE",
"365 427 LINE",
"395 427 LINE",
"395 162 LINE",
"365 162 LINE",
"365 277 LINE",
"195 277 LINE",
"195 30 LINE",
"504 30 LINE",
"522 220 LINE",
"552 217 LINE",
"531 0 LINE",
"41 0 LINE"
);
}
);
width = 600;
}
);
note = Egrave;
unicode = 00C8;
},
{
glyphname = Eacute;
lastChange = "2018-05-29 19:36:20 +0000";
layers = (
{
anchors = (
{
name = "new anchor";
position = "{281, 514}";
}
);
layerId = "2B3DFD70-41A3-4B85-88D0-92073D9863EC";
paths = (
{
closed = 1;
nodes = (
"153 655 LINE",
"462 736 LINE",
"471 696 LINE",
"157 633 LINE"
);
},
{
closed = 1;
nodes = (
"41 30 LINE",
"165 30 LINE",
"165 560 LINE",
"41 560 LINE",
"41 590 LINE",
"531 590 LINE",
"550 373 LINE",
"520 370 LINE",
"504 560 LINE",
"195 560 LINE",
"195 307 LINE",
"365 307 LINE",
"365 427 LINE",
"395 427 LINE",
"395 162 LINE",
"365 162 LINE",
"365 277 LINE",
"195 277 LINE",
"195 30 LINE",
"504 30 LINE",
"522 220 LINE",
"552 217 LINE",
"531 0 LINE",
"41 0 LINE"
);
}
);
width = 600;
}
);
note = Eacute;
unicode = 00C9;
},
{
glyphname = Ecircumflex;
lastChange = "2018-05-29 19:36:22 +0000";
layers = (
{
layerId = "2B3DFD70-41A3-4B85-88D0-92073D9863EC";
paths = (
{
closed = 1;
nodes = (
"318 747 LINE",
"524 641 LINE",
"518 624 LINE",
"318 709 LINE",
"118 624 LINE",
"113 641 LINE"
);
},
{
closed = 1;
nodes = (
"41 30 LINE",
"165 30 LINE",
"165 560 LINE",
"41 560 LINE",
"41 590 LINE",
"531 590 LINE",
"550 373 LINE",
"520 370 LINE",
"504 560 LINE",
"195 560 LINE",
"195 307 LINE",
"365 307 LINE",
"365 427 LINE",
"395 427 LINE",
"395 162 LINE",
"365 162 LINE",
"365 277 LINE",
"195 277 LINE",
"195 30 LINE",
"504 30 LINE",
"522 220 LINE",
"552 217 LINE",
"531 0 LINE",
"41 0 LINE"
);
}
);
width = 600;
}
);
note = Ecircumflex;
unicode = 00CA;
},
{
glyphname = Igrave;
lastChange = "2018-05-29 19:37:04 +0000";
layers = (
{
layerId = "2B3DFD70-41A3-4B85-88D0-92073D9863EC";
paths = (
{
closed = 1;
nodes = (
"452 655 LINE",
"448 633 LINE",
"134 696 LINE",
"143 736 LINE"
);
},
{
closed = 1;
nodes = (
"315 560 LINE",
"315 30 LINE",
"498 30 LINE",
"498 0 LINE",
"102 0 LINE",
"102 30 LINE",
"285 30 LINE",
"285 560 LINE",
"102 560 LINE",
"102 590 LINE",
"498 590 LINE",
"498 560 LINE"
);
}
);
width = 600;
}
);
note = Igrave;
unicode = 00CC;
},
{
glyphname = Iacute;
lastChange = "2018-05-29 19:37:06 +0000";
layers = (
{
layerId = "2B3DFD70-41A3-4B85-88D0-92073D9863EC";
paths = (
{
closed = 1;
nodes = (
"134 655 LINE",
"443 736 LINE",
"452 696 LINE",
"138 633 LINE"
);
},
{
closed = 1;
nodes = (
"315 560 LINE",
"315 30 LINE",
"498 30 LINE",
"498 0 LINE",
"102 0 LINE",
"102 30 LINE",
"285 30 LINE",
"285 560 LINE",
"102 560 LINE",
"102 590 LINE",
"498 590 LINE",
"498 560 LINE"
);
}
);
width = 600;
}
);
note = Iacute;
unicode = 00CD;
},
{
glyphname = Icircumflex;
lastChange = "2018-05-29 19:37:09 +0000";
layers = (
{
layerId = "2B3DFD70-41A3-4B85-88D0-92073D9863EC";
paths = (
{
closed = 1;
nodes = (
"299 747 LINE",
"505 641 LINE",
"499 624 LINE",
"299 709 LINE",
"99 624 LINE",
"94 641 LINE"
);
},
{
closed = 1;
nodes = (
"315 560 LINE",
"315 30 LINE",
"498 30 LINE",
"498 0 LINE",
"102 0 LINE",
"102 30 LINE",
"285 30 LINE",
"285 560 LINE",
"102 560 LINE",
"102 590 LINE",
"498 590 LINE",
"498 560 LINE"
);
}
);
width = 600;
}
);
note = Icircumflex;
unicode = 00CE;
},
{
glyphname = Eth;
lastChange = "2018-05-29 19:37:51 +0000";
layers = (
{
layerId = "2B3DFD70-41A3-4B85-88D0-92073D9863EC";
paths = (
{
closed = 1;
nodes = (
"52 568 OFFCURVE",
"99 560 OFFCURVE",
"130 560 CURVE SMOOTH",
"131 560 LINE",
"131 324 LINE",
"40 324 LINE",
"40 295 LINE",
"131 295 LINE",
"131 30 LINE",
"38 30 LINE",
"38 0 LINE",
"279 0 LINE SMOOTH",
"356 0 OFFCURVE",
"420 22 OFFCURVE",
"469 61 CURVE SMOOTH",
"532 111 OFFCURVE",
"570 192 OFFCURVE",
"570 290 CURVE SMOOTH",
"570 378 OFFCURVE",
"541 456 OFFCURVE",
"488 511 CURVE SMOOTH",
"439 561 OFFCURVE",
"371 593 OFFCURVE",
"297 593 CURVE SMOOTH",
"254 593 OFFCURVE",
"224 589 OFFCURVE",
"169 589 CURVE SMOOTH",
"118 589 OFFCURVE",
"77 592 OFFCURVE",
"27 603 CURVE",
"20 575 LINE"
);
},
{
closed = 1;
nodes = (
"161 295 LINE",
"243 295 LINE",
"243 324 LINE",
"161 324 LINE",
"161 558 LINE",
"181 559 OFFCURVE",
"268 563 OFFCURVE",
"296 563 CURVE SMOOTH",
"437 563 OFFCURVE",
"540 446 OFFCURVE",
"540 290 CURVE SMOOTH",
"540 129 OFFCURVE",
"431 30 OFFCURVE",
"279 30 CURVE SMOOTH",
"161 30 LINE"
);
}
);
width = 600;
},
{
associatedMasterId = "2B3DFD70-41A3-4B85-88D0-92073D9863EC";
layerId = "9EAFCB29-474B-4836-A6B0-134DDE0B5354";
paths = (
{
closed = 1;
nodes = (
"445 561 OFFCURVE",
"377 593 OFFCURVE",
"303 593 CURVE SMOOTH",
"260 593 OFFCURVE",
"220 589 OFFCURVE",
"165 589 CURVE SMOOTH",
"114 589 OFFCURVE",
"73 592 OFFCURVE",
"23 603 CURVE",
"16 575 LINE",
"48 568 OFFCURVE",
"95 560 OFFCURVE",
"126 560 CURVE SMOOTH",
"127 560 LINE",
"127 325 LINE",
"40 325 LINE",
"40 295 LINE",
"127 295 LINE",
"127 30 LINE",
"34 30 LINE",
"34 0 LINE",
"285 0 LINE SMOOTH",
"362 0 OFFCURVE",
"426 22 OFFCURVE",
"475 61 CURVE SMOOTH",
"538 111 OFFCURVE",
"576 192 OFFCURVE",
"576 290 CURVE SMOOTH",
"576 378 OFFCURVE",
"547 456 OFFCURVE",
"494 511 CURVE SMOOTH"
);
},
{
closed = 1;
nodes = (
"157 30 LINE",
"157 295 LINE",
"243 295 LINE",
"243 325 LINE",
"157 325 LINE",
"157 558 LINE",
"177 559 OFFCURVE",
"274 563 OFFCURVE",
"302 563 CURVE SMOOTH",
"443 563 OFFCURVE",
"546 446 OFFCURVE",
"546 290 CURVE SMOOTH",
"546 129 OFFCURVE",
"437 30 OFFCURVE",
"285 30 CURVE SMOOTH"
);
}
);
visible = 1;
width = 600;
}
);
note = Eth;
unicode = 00D0;
},
{
glyphname = Ntilde;
lastChange = "2018-05-29 19:38:06 +0000";
layers = (
{
layerId = "2B3DFD70-41A3-4B85-88D0-92073D9863EC";
paths = (
{
closed = 1;
nodes = (
"299 699 OFFCURVE",
"316 626 OFFCURVE",
"388 626 CURVE SMOOTH",
"417 626 OFFCURVE",
"454 647 OFFCURVE",
"501 703 CURVE",
"480 723 LINE",
"441 675 OFFCURVE",
"415 656 OFFCURVE",
"388 656 CURVE SMOOTH",
"335 656 OFFCURVE",
"318 729 OFFCURVE",
"246 729 CURVE SMOOTH",
"217 729 OFFCURVE",
"180 706 OFFCURVE",
"132 651 CURVE",
"153 631 LINE",
"193 678 OFFCURVE",
"219 699 OFFCURVE",
"246 699 CURVE SMOOTH"
);
},
{
closed = 1;
nodes = (
"373 590 LINE",
"373 560 LINE",
"455 560 LINE",
"455 30 LINE",
"168 590 LINE",
"165 590 LINE SMOOTH",
"117 590 OFFCURVE",
"78 593 OFFCURVE",
"30 603 CURVE",
"23 575 LINE",
"51 569 OFFCURVE",
"92 562 OFFCURVE",
"122 560 CURVE",
"122 30 LINE",
"30 30 LINE",
"30 0 LINE",
"234 0 LINE",
"234 30 LINE",
"152 30 LINE",
"153 554 LINE",
"437 0 LINE",
"485 0 LINE",
"485 560 LINE",
"577 560 LINE",
"577 590 LINE"
);
}
);
width = 600;
}
);
note = Ntilde;
unicode = 00D1;
},
{
glyphname = Ograve;
lastChange = "2018-05-29 15:35:15 +0000";
layers = (
{
layerId = "2B3DFD70-41A3-4B85-88D0-92073D9863EC";
paths = (
{
closed = 1;
nodes = (
"452 656 LINE",
"448 634 LINE",
"134 697 LINE",
"143 737 LINE"
);
},
{
closed = 1;
nodes = (
"134 603 OFFCURVE",
"21 458 OFFCURVE",
"23 296 CURVE SMOOTH",
"25 120 OFFCURVE",
"142 -13 OFFCURVE",
"300 -13 CURVE SMOOTH",
"458 -13 OFFCURVE",
"577 120 OFFCURVE",
"577 296 CURVE SMOOTH",
"577 458 OFFCURVE",
"466 603 OFFCURVE",
"300 603 CURVE SMOOTH"
);
},
{
closed = 1;
nodes = (
"165 16 OFFCURVE",
"51 128 OFFCURVE",
"53 296 CURVE SMOOTH",
"55 463 OFFCURVE",
"166 572 OFFCURVE",
"300 573 CURVE SMOOTH",
"434 574 OFFCURVE",
"545 463 OFFCURVE",
"547 296 CURVE SMOOTH",
"549 128 OFFCURVE",
"435 18 OFFCURVE",
"300 17 CURVE SMOOTH"
);
}
);
width = 600;
}
);
note = Ograve;
unicode = 00D2;
},
{
glyphname = Oacute;
lastChange = "2018-05-29 15:35:19 +0000";
layers = (
{
layerId = "2B3DFD70-41A3-4B85-88D0-92073D9863EC";
paths = (
{
closed = 1;
nodes = (
"134 656 LINE",
"443 737 LINE",
"452 697 LINE",
"138 634 LINE"
);
},
{
closed = 1;
nodes = (
"134 603 OFFCURVE",
"21 458 OFFCURVE",
"23 296 CURVE SMOOTH",
"25 120 OFFCURVE",
"142 -13 OFFCURVE",
"300 -13 CURVE SMOOTH",
"458 -13 OFFCURVE",
"577 120 OFFCURVE",
"577 296 CURVE SMOOTH",
"577 458 OFFCURVE",
"466 603 OFFCURVE",
"300 603 CURVE SMOOTH"
);
},
{
closed = 1;
nodes = (
"165 16 OFFCURVE",
"51 128 OFFCURVE",
"53 296 CURVE SMOOTH",
"55 463 OFFCURVE",
"166 572 OFFCURVE",
"300 573 CURVE SMOOTH",
"434 574 OFFCURVE",
"545 463 OFFCURVE",
"547 296 CURVE SMOOTH",
"549 128 OFFCURVE",
"435 18 OFFCURVE",
"300 17 CURVE SMOOTH"
);
}
);
width = 600;
}
);
note = Oacute;
unicode = 00D3;
},
{
glyphname = Ocircumflex;
lastChange = "2018-05-29 15:39:06 +0000";
layers = (
{
layerId = "2B3DFD70-41A3-4B85-88D0-92073D9863EC";
paths = (
{
closed = 1;
nodes = (
"299 748 LINE",
"505 642 LINE",
"499 625 LINE",
"299 710 LINE",
"99 625 LINE",
"94 642 LINE"
);
},
{
closed = 1;
nodes = (
"134 603 OFFCURVE",
"21 458 OFFCURVE",
"23 296 CURVE SMOOTH",
"25 120 OFFCURVE",
"142 -13 OFFCURVE",
"300 -13 CURVE SMOOTH",
"458 -13 OFFCURVE",
"577 120 OFFCURVE",
"577 296 CURVE SMOOTH",
"577 458 OFFCURVE",
"466 603 OFFCURVE",
"300 603 CURVE SMOOTH"
);
},
{
closed = 1;
nodes = (
"165 16 OFFCURVE",
"51 128 OFFCURVE",
"53 296 CURVE SMOOTH",
"55 463 OFFCURVE",
"166 572 OFFCURVE",
"300 573 CURVE SMOOTH",
"434 574 OFFCURVE",
"545 463 OFFCURVE",
"547 296 CURVE SMOOTH",
"549 128 OFFCURVE",
"435 18 OFFCURVE",
"300 17 CURVE SMOOTH"
);
}
);
width = 600;
}
);
note = Ocircumflex;
unicode = 00D4;
},
{
glyphname = Otilde;
lastChange = "2018-05-04 08:01:45 +0000";
layers = (
{
layerId = "2B3DFD70-41A3-4B85-88D0-92073D9863EC";
paths = (
{
closed = 1;
nodes = (
"316 682 OFFCURVE",
"299 755 OFFCURVE",
"227 755 CURVE SMOOTH",
"198 755 OFFCURVE",
"161 732 OFFCURVE",
"113 677 CURVE",
"134 657 LINE",
"174 704 OFFCURVE",
"200 725 OFFCURVE",
"227 725 CURVE SMOOTH",
"280 725 OFFCURVE",
"297 652 OFFCURVE",
"369 652 CURVE SMOOTH",
"398 652 OFFCURVE",
"435 673 OFFCURVE",
"482 729 CURVE",
"461 749 LINE",
"422 701 OFFCURVE",
"396 682 OFFCURVE",
"369 682 CURVE SMOOTH"
);
},
{
closed = 1;
nodes = (
"134 603 OFFCURVE",
"21 458 OFFCURVE",
"23 296 CURVE SMOOTH",
"25 120 OFFCURVE",
"142 -13 OFFCURVE",
"300 -13 CURVE SMOOTH",
"458 -13 OFFCURVE",
"577 120 OFFCURVE",
"577 296 CURVE SMOOTH",
"577 458 OFFCURVE",
"466 603 OFFCURVE",
"300 603 CURVE SMOOTH"
);
},
{
closed = 1;
nodes = (
"165 16 OFFCURVE",
"51 128 OFFCURVE",
"53 296 CURVE SMOOTH",
"55 463 OFFCURVE",
"166 572 OFFCURVE",
"300 573 CURVE SMOOTH",
"434 574 OFFCURVE",
"545 463 OFFCURVE",
"547 296 CURVE SMOOTH",
"549 128 OFFCURVE",
"435 18 OFFCURVE",
"300 17 CURVE SMOOTH"
);
}
);
width = 600;
}
);
note = Otilde;
unicode = 00D5;
},
{
glyphname = multiply;
lastChange = "2018-05-04 08:01:45 +0000";
layers = (
{
layerId = "2B3DFD70-41A3-4B85-88D0-92073D9863EC";
paths = (
{
closed = 1;
nodes = (
"137 356 LINE",
"159 378 LINE",
"300 236 LINE",
"441 378 LINE",
"463 356 LINE",
"321 215 LINE",
"463 74 LINE",
"441 52 LINE",
"300 194 LINE",
"159 52 LINE",
"137 74 LINE",
"279 215 LINE"
);
}
);
width = 600;
}
);
note = multiply;
unicode = 00D7;
},
{
glyphname = Oslash;
lastChange = "2018-05-04 08:01:45 +0000";
layers = (
{
layerId = "2B3DFD70-41A3-4B85-88D0-92073D9863EC";
paths = (
{
closed = 1;
nodes = (
"525 584 LINE",
"502 603 LINE",
"452 532 LINE",
"410 568 OFFCURVE",
"359 590 OFFCURVE",
"300 590 CURVE SMOOTH",
"152 590 OFFCURVE",
"54 449 OFFCURVE",
"56 296 CURVE SMOOTH",
"57 210 OFFCURVE",
"84 135 OFFCURVE",
"130 81 CURVE",
"76 6 LINE",
"99 -13 LINE",
"151 60 LINE",
"191 23 OFFCURVE",
"242 1 OFFCURVE",
"300 1 CURVE SMOOTH",
"441 1 OFFCURVE",
"554 130 OFFCURVE",
"554 296 CURVE SMOOTH",
"554 378 OFFCURVE",
"524 456 OFFCURVE",
"473 511 CURVE"
);
},
{
closed = 1;
nodes = (
"86 451 OFFCURVE",
"183 559 OFFCURVE",
"300 560 CURVE SMOOTH",
"349 560 OFFCURVE",
"396 541 OFFCURVE",
"434 508 CURVE",
"148 106 LINE",
"110 153 OFFCURVE",
"86 219 OFFCURVE",
"86 296 CURVE SMOOTH"
);
},
{
closed = 1;
nodes = (
"251 31 OFFCURVE",
"205 50 OFFCURVE",
"168 84 CURVE",
"456 487 LINE",
"497 440 OFFCURVE",
"524 374 OFFCURVE",
"524 296 CURVE SMOOTH",
"524 139 OFFCURVE",
"418 32 OFFCURVE",
"300 31 CURVE SMOOTH"
);
}
);
width = 600;
}
);
note = Oslash;
unicode = 00D8;
},
{
glyphname = Ugrave;
lastChange = "2018-05-29 19:38:20 +0000";
layers = (
{
layerId = "2B3DFD70-41A3-4B85-88D0-92073D9863EC";
paths = (
{
closed = 1;
nodes = (
"452 655 LINE",
"448 633 LINE",
"134 696 LINE",
"143 736 LINE"
);
},
{
closed = 1;
nodes = (
"33 560 LINE",
"104 560 LINE",
"104 208 LINE SMOOTH",
"104 75 OFFCURVE",
"177 -13 OFFCURVE",
"300 -13 CURVE SMOOTH",
"423 -13 OFFCURVE",
"496 75 OFFCURVE",
"496 208 CURVE SMOOTH",
"496 560 LINE",
"567 560 LINE",
"567 590 LINE",
"368 590 LINE",
"368 560 LINE",
"466 560 LINE",
"466 208 LINE SMOOTH",
"466 95 OFFCURVE",
"410 17 OFFCURVE",
"300 17 CURVE SMOOTH",
"190 17 OFFCURVE",
"134 95 OFFCURVE",
"134 208 CURVE SMOOTH",
"134 560 LINE",
"232 560 LINE",
"232 590 LINE",
"33 590 LINE"
);
}
);
width = 600;
}
);
note = Ugrave;
unicode = 00D9;
},
{
glyphname = Uacute;
lastChange = "2018-05-29 19:38:23 +0000";
layers = (
{
layerId = "2B3DFD70-41A3-4B85-88D0-92073D9863EC";
paths = (
{
closed = 1;
nodes = (
"134 655 LINE",
"443 736 LINE",
"452 696 LINE",
"138 633 LINE"
);
},
{
closed = 1;
nodes = (
"33 560 LINE",
"104 560 LINE",
"104 208 LINE SMOOTH",
"104 75 OFFCURVE",
"177 -13 OFFCURVE",
"300 -13 CURVE SMOOTH",
"423 -13 OFFCURVE",
"496 75 OFFCURVE",
"496 208 CURVE SMOOTH",
"496 560 LINE",
"567 560 LINE",
"567 590 LINE",
"368 590 LINE",
"368 560 LINE",
"466 560 LINE",
"466 208 LINE SMOOTH",
"466 95 OFFCURVE",
"410 17 OFFCURVE",
"300 17 CURVE SMOOTH",
"190 17 OFFCURVE",
"134 95 OFFCURVE",
"134 208 CURVE SMOOTH",
"134 560 LINE",
"232 560 LINE",
"232 590 LINE",
"33 590 LINE"
);
}
);
width = 600;
}
);
note = Uacute;
unicode = 00DA;
},
{
glyphname = Ucircumflex;
lastChange = "2018-05-29 19:38:25 +0000";
layers = (
{
layerId = "2B3DFD70-41A3-4B85-88D0-92073D9863EC";
paths = (
{
closed = 1;
nodes = (
"299 747 LINE",
"505 641 LINE",
"499 624 LINE",
"299 709 LINE",
"99 624 LINE",
"94 641 LINE"
);
},
{
closed = 1;
nodes = (
"33 560 LINE",
"104 560 LINE",
"104 208 LINE SMOOTH",
"104 75 OFFCURVE",
"177 -13 OFFCURVE",
"300 -13 CURVE SMOOTH",
"423 -13 OFFCURVE",
"496 75 OFFCURVE",
"496 208 CURVE SMOOTH",
"496 560 LINE",
"567 560 LINE",
"567 590 LINE",
"368 590 LINE",
"368 560 LINE",
"466 560 LINE",
"466 208 LINE SMOOTH",
"466 95 OFFCURVE",
"410 17 OFFCURVE",
"300 17 CURVE SMOOTH",
"190 17 OFFCURVE",
"134 95 OFFCURVE",
"134 208 CURVE SMOOTH",
"134 560 LINE",
"232 560 LINE",
"232 590 LINE",
"33 590 LINE"
);
}
);
width = 600;
}
);
note = Ucircumflex;
unicode = 00DB;
},
{
glyphname = Yacute;
lastChange = "2018-05-29 19:38:39 +0000";
layers = (
{
layerId = "2B3DFD70-41A3-4B85-88D0-92073D9863EC";
paths = (
{
closed = 1;
nodes = (
"134 654 LINE",
"443 735 LINE",
"452 697 LINE",
"138 634 LINE"
);
},
{
closed = 1;
nodes = (
"32 560 LINE",
"32 590 LINE",
"240 590 LINE",
"240 560 LINE",
"139 560 LINE",
"300 263 LINE",
"461 560 LINE",
"360 560 LINE",
"360 590 LINE",
"568 590 LINE",
"568 560 LINE",
"495 560 LINE",
"316 229 LINE",
"316 30 LINE",
"435 30 LINE",
"435 0 LINE",
"165 0 LINE",
"165 30 LINE",
"284 30 LINE",
"284 229 LINE",
"105 560 LINE"
);
}
);
width = 600;
}
);
note = Yacute;
unicode = 00DD;
},
{
glyphname = Thorn;
lastChange = "2018-05-04 08:01:45 +0000";
layers = (
{
layerId = "2B3DFD70-41A3-4B85-88D0-92073D9863EC";
paths = (
{
closed = 1;
nodes = (
"279 0 LINE",
"279 30 LINE",
"175 30 LINE",
"175 134 LINE",
"338 135 LINE SMOOTH",
"458 135 OFFCURVE",
"541 195 OFFCURVE",
"541 295 CURVE SMOOTH",
"541 395 OFFCURVE",
"458 455 OFFCURVE",
"338 455 CURVE SMOOTH",
"175 455 LINE",
"175 590 LINE",
"38 590 LINE",
"38 560 LINE",
"145 560 LINE",
"145 30 LINE",
"38 30 LINE",
"38 0 LINE"
);
},
{
closed = 1;
nodes = (
"175 425 LINE",
"338 425 LINE SMOOTH",
"435 425 OFFCURVE",
"511 381 OFFCURVE",
"511 295 CURVE SMOOTH",
"511 211 OFFCURVE",
"435 164 OFFCURVE",
"338 164 CURVE SMOOTH",
"175 164 LINE"
);
}
);
width = 600;
}
);
note = Thorn;
unicode = 00DE;
},
{
glyphname = germandbls;
lastChange = "2018-05-29 19:39:02 +0000";
layers = (
{
layerId = "2B3DFD70-41A3-4B85-88D0-92073D9863EC";
paths = (
{
closed = 1;
nodes = (
"499 -13 OFFCURVE",
"554 79 OFFCURVE",
"554 177 CURVE SMOOTH",
"554 249 OFFCURVE",
"493 323 OFFCURVE",
"408 332 CURVE",
"462 343 OFFCURVE",
"494 399 OFFCURVE",
"494 448 CURVE SMOOTH",
"494 533 OFFCURVE",
"426 603 OFFCURVE",
"338 603 CURVE SMOOTH",
"209 603 OFFCURVE",
"133 512 OFFCURVE",
"133 372 CURVE SMOOTH",
"133 30 LINE",
"40 30 LINE",
"40 0 LINE",
"230 0 LINE",
"230 30 LINE",
"163 30 LINE",
"163 372 LINE SMOOTH",
"163 491 OFFCURVE",
"223 573 OFFCURVE",
"338 573 CURVE SMOOTH",
"405 573 OFFCURVE",
"464 520 OFFCURVE",
"464 448 CURVE SMOOTH",
"464 393 OFFCURVE",
"417 343 OFFCURVE",
"338 343 CURVE SMOOTH",
"245 343 LINE",
"245 313 LINE",
"349 313 LINE SMOOTH",
"454 313 OFFCURVE",
"524 252 OFFCURVE",
"524 177 CURVE SMOOTH",
"524 96 OFFCURVE",
"484 17 OFFCURVE",
"410 17 CURVE SMOOTH",
"338 17 OFFCURVE",
"279 60 OFFCURVE",
"279 150 CURVE",
"289 137 OFFCURVE",
"301 131 OFFCURVE",
"312 131 CURVE SMOOTH",
"337 131 OFFCURVE",
"357 153 OFFCURVE",
"357 173 CURVE SMOOTH",
"357 199 OFFCURVE",
"338 221 OFFCURVE",
"309 221 CURVE SMOOTH",
"274 221 OFFCURVE",
"248 188 OFFCURVE",
"248 156 CURVE SMOOTH",
"248 40 OFFCURVE",
"325 -13 OFFCURVE",
"410 -13 CURVE SMOOTH"
);
}
);
width = 600;
}
);
note = germandbls;
unicode = 00DF;
},
{
glyphname = agrave;
lastChange = "2018-05-29 15:30:28 +0000";
layers = (
{
layerId = "2B3DFD70-41A3-4B85-88D0-92073D9863EC";
paths = (
{
closed = 1;
nodes = (
"440 509 LINE",
"436 487 LINE",
"122 550 LINE",
"131 590 LINE"
);
},
{
closed = 1;
nodes = (
"421 67 LINE SMOOTH",
"422 5 OFFCURVE",
"447 -13 OFFCURVE",
"476 -13 CURVE SMOOTH",
"520 -13 OFFCURVE",
"541 44 OFFCURVE",
"569 107 CURVE",
"542 120 LINE",
"518 66 OFFCURVE",
"498 17 OFFCURVE",
"476 17 CURVE SMOOTH",
"460 17 OFFCURVE",
"451 33 OFFCURVE",
"451 67 CURVE SMOOTH",
"451 317 LINE SMOOTH",
"451 404 OFFCURVE",
"351 443 OFFCURVE",
"255 443 CURVE SMOOTH",
"171 443 OFFCURVE",
"80 396 OFFCURVE",
"80 330 CURVE SMOOTH",
"80 298 OFFCURVE",
"96 271 OFFCURVE",
"129 271 CURVE SMOOTH",
"160 271 OFFCURVE",
"184 285 OFFCURVE",
"184 321 CURVE SMOOTH",
"184 348 OFFCURVE",
"159 360 OFFCURVE",
"140 360 CURVE SMOOTH",
"134 360 OFFCURVE",
"120 357 OFFCURVE",
"112 352 CURVE",
"138 392 OFFCURVE",
"196 413 OFFCURVE",
"255 413 CURVE SMOOTH",
"330 413 OFFCURVE",
"421 386 OFFCURVE",
"421 317 CURVE SMOOTH",
"421 251 OFFCURVE",
"358 248 OFFCURVE",
"253 243 CURVE SMOOTH",
"147 238 OFFCURVE",
"45 204 OFFCURVE",
"43 112 CURVE SMOOTH",
"41 33 OFFCURVE",
"102 -13 OFFCURVE",
"184 -13 CURVE SMOOTH",
"270 -13 OFFCURVE",
"336 22 OFFCURVE",
"421 91 CURVE"
);
},
{
closed = 1;
nodes = (
"73 181 OFFCURVE",
"164 213 OFFCURVE",
"253 213 CURVE SMOOTH",
"313 213 OFFCURVE",
"391 219 OFFCURVE",
"421 251 CURVE",
"421 131 LINE",
"339 62 OFFCURVE",
"275 17 OFFCURVE",
"185 17 CURVE SMOOTH",
"116 17 OFFCURVE",
"73 49 OFFCURVE",
"73 112 CURVE SMOOTH"
);
}
);
width = 600;
}
);
note = agrave;
unicode = 00E0;
},
{
glyphname = aacute;
lastChange = "2018-05-29 15:33:59 +0000";
layers = (
{
layerId = "2B3DFD70-41A3-4B85-88D0-92073D9863EC";
paths = (
{
closed = 1;
nodes = (
"122 509 LINE",
"431 590 LINE",
"440 550 LINE",
"126 487 LINE"
);
},
{
closed = 1;
nodes = (
"421 67 LINE SMOOTH",
"422 5 OFFCURVE",
"447 -13 OFFCURVE",
"476 -13 CURVE SMOOTH",
"520 -13 OFFCURVE",
"541 44 OFFCURVE",
"569 107 CURVE",
"542 120 LINE",
"518 66 OFFCURVE",
"498 17 OFFCURVE",
"476 17 CURVE SMOOTH",
"460 17 OFFCURVE",
"451 33 OFFCURVE",
"451 67 CURVE SMOOTH",
"451 317 LINE SMOOTH",
"451 404 OFFCURVE",
"351 443 OFFCURVE",
"255 443 CURVE SMOOTH",
"171 443 OFFCURVE",
"80 396 OFFCURVE",
"80 330 CURVE SMOOTH",
"80 298 OFFCURVE",
"96 271 OFFCURVE",
"129 271 CURVE SMOOTH",
"160 271 OFFCURVE",
"184 285 OFFCURVE",
"184 321 CURVE SMOOTH",
"184 348 OFFCURVE",
"159 360 OFFCURVE",
"140 360 CURVE SMOOTH",
"134 360 OFFCURVE",
"120 357 OFFCURVE",
"112 352 CURVE",
"138 392 OFFCURVE",
"196 413 OFFCURVE",
"255 413 CURVE SMOOTH",
"330 413 OFFCURVE",
"421 386 OFFCURVE",
"421 317 CURVE SMOOTH",
"421 251 OFFCURVE",
"358 248 OFFCURVE",
"253 243 CURVE SMOOTH",
"147 238 OFFCURVE",
"45 204 OFFCURVE",
"43 112 CURVE SMOOTH",
"41 33 OFFCURVE",
"102 -13 OFFCURVE",
"184 -13 CURVE SMOOTH",
"270 -13 OFFCURVE",
"336 22 OFFCURVE",
"421 91 CURVE"
);
},
{
closed = 1;
nodes = (
"73 181 OFFCURVE",
"164 213 OFFCURVE",
"253 213 CURVE SMOOTH",
"313 213 OFFCURVE",
"391 219 OFFCURVE",
"421 251 CURVE",
"421 131 LINE",
"339 62 OFFCURVE",
"275 17 OFFCURVE",
"185 17 CURVE SMOOTH",
"116 17 OFFCURVE",
"73 49 OFFCURVE",
"73 112 CURVE SMOOTH"
);
}
);
width = 600;
}
);
note = aacute;
unicode = 00E1;
},
{
glyphname = acircumflex;
lastChange = "2018-05-29 15:39:19 +0000";
layers = (
{
layerId = "2B3DFD70-41A3-4B85-88D0-92073D9863EC";
paths = (
{
closed = 1;
nodes = (
"287 601 LINE",
"493 495 LINE",
"487 478 LINE",
"287 563 LINE",
"87 478 LINE",
"82 495 LINE"
);
},
{
closed = 1;
nodes = (
"421 67 LINE SMOOTH",
"422 5 OFFCURVE",
"447 -13 OFFCURVE",
"476 -13 CURVE SMOOTH",
"520 -13 OFFCURVE",
"541 44 OFFCURVE",
"569 107 CURVE",
"542 120 LINE",
"518 66 OFFCURVE",
"498 17 OFFCURVE",
"476 17 CURVE SMOOTH",
"460 17 OFFCURVE",
"451 33 OFFCURVE",
"451 67 CURVE SMOOTH",
"451 317 LINE SMOOTH",
"451 404 OFFCURVE",
"351 443 OFFCURVE",
"255 443 CURVE SMOOTH",
"171 443 OFFCURVE",
"80 396 OFFCURVE",
"80 330 CURVE SMOOTH",
"80 298 OFFCURVE",
"96 271 OFFCURVE",
"129 271 CURVE SMOOTH",
"160 271 OFFCURVE",
"184 285 OFFCURVE",
"184 321 CURVE SMOOTH",
"184 348 OFFCURVE",
"159 360 OFFCURVE",
"140 360 CURVE SMOOTH",
"134 360 OFFCURVE",
"120 357 OFFCURVE",
"112 352 CURVE",
"138 392 OFFCURVE",
"196 413 OFFCURVE",
"255 413 CURVE SMOOTH",
"330 413 OFFCURVE",
"421 386 OFFCURVE",
"421 317 CURVE SMOOTH",
"421 251 OFFCURVE",
"358 248 OFFCURVE",
"253 243 CURVE SMOOTH",
"147 238 OFFCURVE",
"45 204 OFFCURVE",
"43 112 CURVE SMOOTH",
"41 33 OFFCURVE",
"102 -13 OFFCURVE",
"184 -13 CURVE SMOOTH",
"270 -13 OFFCURVE",
"336 22 OFFCURVE",
"421 91 CURVE"
);
},
{
closed = 1;
nodes = (
"73 181 OFFCURVE",
"164 213 OFFCURVE",
"253 213 CURVE SMOOTH",
"313 213 OFFCURVE",
"391 219 OFFCURVE",
"421 251 CURVE",
"421 131 LINE",
"339 62 OFFCURVE",
"275 17 OFFCURVE",
"185 17 CURVE SMOOTH",
"116 17 OFFCURVE",
"73 49 OFFCURVE",
"73 112 CURVE SMOOTH"
);
}
);
width = 600;
}
);
note = acircumflex;
unicode = 00E2;
},
{
glyphname = atilde;
lastChange = "2018-05-04 08:01:45 +0000";
layers = (
{
layerId = "2B3DFD70-41A3-4B85-88D0-92073D9863EC";
paths = (
{
closed = 1;
nodes = (
"304 535 OFFCURVE",
"287 608 OFFCURVE",
"215 608 CURVE SMOOTH",
"186 608 OFFCURVE",
"149 585 OFFCURVE",
"101 530 CURVE",
"122 510 LINE",
"162 557 OFFCURVE",
"188 578 OFFCURVE",
"215 578 CURVE SMOOTH",
"268 578 OFFCURVE",
"285 505 OFFCURVE",
"357 505 CURVE SMOOTH",
"386 505 OFFCURVE",
"423 526 OFFCURVE",
"470 582 CURVE",
"449 602 LINE",
"410 554 OFFCURVE",
"384 535 OFFCURVE",
"357 535 CURVE SMOOTH"
);
},
{
closed = 1;
nodes = (
"421 67 LINE SMOOTH",
"422 5 OFFCURVE",
"447 -13 OFFCURVE",
"476 -13 CURVE SMOOTH",
"520 -13 OFFCURVE",
"541 44 OFFCURVE",
"569 107 CURVE",
"542 120 LINE",
"518 66 OFFCURVE",
"498 17 OFFCURVE",
"476 17 CURVE SMOOTH",
"460 17 OFFCURVE",
"451 33 OFFCURVE",
"451 67 CURVE SMOOTH",
"451 317 LINE SMOOTH",
"451 404 OFFCURVE",
"351 443 OFFCURVE",
"255 443 CURVE SMOOTH",
"171 443 OFFCURVE",
"80 396 OFFCURVE",
"80 330 CURVE SMOOTH",
"80 298 OFFCURVE",
"96 271 OFFCURVE",
"129 271 CURVE SMOOTH",
"160 271 OFFCURVE",
"184 285 OFFCURVE",
"184 321 CURVE SMOOTH",
"184 348 OFFCURVE",
"159 360 OFFCURVE",
"140 360 CURVE SMOOTH",
"134 360 OFFCURVE",
"120 357 OFFCURVE",
"112 352 CURVE",
"138 392 OFFCURVE",
"196 413 OFFCURVE",
"255 413 CURVE SMOOTH",
"330 413 OFFCURVE",
"421 386 OFFCURVE",
"421 317 CURVE SMOOTH",
"421 251 OFFCURVE",
"358 248 OFFCURVE",
"253 243 CURVE SMOOTH",
"147 238 OFFCURVE",
"45 204 OFFCURVE",
"43 112 CURVE SMOOTH",
"41 33 OFFCURVE",
"102 -13 OFFCURVE",
"184 -13 CURVE SMOOTH",
"270 -13 OFFCURVE",
"336 22 OFFCURVE",
"421 91 CURVE"
);
},
{
closed = 1;
nodes = (
"73 181 OFFCURVE",
"164 213 OFFCURVE",
"253 213 CURVE SMOOTH",
"313 213 OFFCURVE",
"391 219 OFFCURVE",
"421 251 CURVE",
"421 131 LINE",
"339 62 OFFCURVE",
"275 17 OFFCURVE",
"185 17 CURVE SMOOTH",
"116 17 OFFCURVE",
"73 49 OFFCURVE",
"73 112 CURVE SMOOTH"
);
}
);
width = 600;
}
);
note = atilde;
unicode = 00E3;
},
{
glyphname = adieresis;
lastChange = "2018-05-29 14:52:53 +0000";
layers = (
{
layerId = "2B3DFD70-41A3-4B85-88D0-92073D9863EC";
paths = (
{
closed = 1;
nodes = (
"421 67 LINE SMOOTH",
"422 5 OFFCURVE",
"447 -13 OFFCURVE",
"476 -13 CURVE SMOOTH",
"520 -13 OFFCURVE",
"541 44 OFFCURVE",
"569 107 CURVE",
"542 120 LINE",
"518 66 OFFCURVE",
"498 17 OFFCURVE",
"476 17 CURVE SMOOTH",
"460 17 OFFCURVE",
"451 33 OFFCURVE",
"451 67 CURVE SMOOTH",
"451 317 LINE SMOOTH",
"451 404 OFFCURVE",
"351 443 OFFCURVE",
"255 443 CURVE SMOOTH",
"171 443 OFFCURVE",
"80 396 OFFCURVE",
"80 330 CURVE SMOOTH",
"80 298 OFFCURVE",
"96 271 OFFCURVE",
"129 271 CURVE SMOOTH",
"160 271 OFFCURVE",
"184 285 OFFCURVE",
"184 321 CURVE SMOOTH",
"184 348 OFFCURVE",
"159 360 OFFCURVE",
"140 360 CURVE SMOOTH",
"134 360 OFFCURVE",
"120 357 OFFCURVE",
"112 352 CURVE",
"138 392 OFFCURVE",
"196 413 OFFCURVE",
"255 413 CURVE SMOOTH",
"330 413 OFFCURVE",
"421 386 OFFCURVE",
"421 317 CURVE SMOOTH",
"421 251 OFFCURVE",
"358 248 OFFCURVE",
"253 243 CURVE SMOOTH",
"147 238 OFFCURVE",
"45 204 OFFCURVE",
"43 112 CURVE SMOOTH",
"41 33 OFFCURVE",
"102 -13 OFFCURVE",
"184 -13 CURVE SMOOTH",
"270 -13 OFFCURVE",
"336 22 OFFCURVE",
"421 91 CURVE"
);
},
{
closed = 1;
nodes = (
"73 181 OFFCURVE",
"164 213 OFFCURVE",
"253 213 CURVE SMOOTH",
"313 213 OFFCURVE",
"391 219 OFFCURVE",
"421 251 CURVE",
"421 131 LINE",
"339 62 OFFCURVE",
"275 17 OFFCURVE",
"185 17 CURVE SMOOTH",
"116 17 OFFCURVE",
"73 49 OFFCURVE",
"73 112 CURVE SMOOTH"
);
},
{
closed = 1;
nodes = (
"218 488 OFFCURVE",
"241 512 OFFCURVE",
"241 539 CURVE SMOOTH",
"241 566 OFFCURVE",
"218 590 OFFCURVE",
"190 590 CURVE SMOOTH",
"162 590 OFFCURVE",
"138 566 OFFCURVE",
"138 539 CURVE SMOOTH",
"138 512 OFFCURVE",
"162 488 OFFCURVE",
"190 488 CURVE SMOOTH"
);
},
{
closed = 1;
nodes = (
"399 488 OFFCURVE",
"422 512 OFFCURVE",
"422 539 CURVE SMOOTH",
"422 566 OFFCURVE",
"399 590 OFFCURVE",
"371 590 CURVE SMOOTH",
"343 590 OFFCURVE",
"319 566 OFFCURVE",
"319 539 CURVE SMOOTH",
"319 512 OFFCURVE",
"343 488 OFFCURVE",
"371 488 CURVE SMOOTH"
);
}
);
width = 600;
}
);
unicode = 00E4;
},
{
glyphname = aring;
lastChange = "2018-05-04 08:01:45 +0000";
layers = (
{
layerId = "2B3DFD70-41A3-4B85-88D0-92073D9863EC";
paths = (
{
closed = 1;
nodes = (
"322 495 OFFCURVE",
"354 524 OFFCURVE",
"354 559 CURVE SMOOTH",
"354 595 OFFCURVE",
"322 623 OFFCURVE",
"287 623 CURVE SMOOTH",
"252 623 OFFCURVE",
"221 595 OFFCURVE",
"221 559 CURVE SMOOTH",
"221 524 OFFCURVE",
"252 495 OFFCURVE",
"287 495 CURVE SMOOTH"
);
},
{
closed = 1;
nodes = (
"262 515 OFFCURVE",
"243 534 OFFCURVE",
"243 559 CURVE SMOOTH",
"243 583 OFFCURVE",
"262 602 OFFCURVE",
"287 602 CURVE SMOOTH",
"311 602 OFFCURVE",
"330 583 OFFCURVE",
"330 559 CURVE SMOOTH",
"330 534 OFFCURVE",
"311 515 OFFCURVE",
"287 515 CURVE SMOOTH"
);
},
{
closed = 1;
nodes = (
"421 67 LINE SMOOTH",
"422 5 OFFCURVE",
"447 -13 OFFCURVE",
"476 -13 CURVE SMOOTH",
"520 -13 OFFCURVE",
"541 44 OFFCURVE",
"569 107 CURVE",
"542 120 LINE",
"518 66 OFFCURVE",
"498 17 OFFCURVE",
"476 17 CURVE SMOOTH",
"460 17 OFFCURVE",
"451 33 OFFCURVE",
"451 67 CURVE SMOOTH",
"451 317 LINE SMOOTH",
"451 404 OFFCURVE",
"351 443 OFFCURVE",
"255 443 CURVE SMOOTH",
"171 443 OFFCURVE",
"80 396 OFFCURVE",
"80 330 CURVE SMOOTH",
"80 298 OFFCURVE",
"96 271 OFFCURVE",
"129 271 CURVE SMOOTH",
"160 271 OFFCURVE",
"184 285 OFFCURVE",
"184 321 CURVE SMOOTH",
"184 348 OFFCURVE",
"159 360 OFFCURVE",
"140 360 CURVE SMOOTH",
"134 360 OFFCURVE",
"120 357 OFFCURVE",
"112 352 CURVE",
"138 392 OFFCURVE",
"196 413 OFFCURVE",
"255 413 CURVE SMOOTH",
"330 413 OFFCURVE",
"421 386 OFFCURVE",
"421 317 CURVE SMOOTH",
"421 251 OFFCURVE",
"358 248 OFFCURVE",
"253 243 CURVE SMOOTH",
"147 238 OFFCURVE",
"45 204 OFFCURVE",
"43 112 CURVE SMOOTH",
"41 33 OFFCURVE",
"102 -13 OFFCURVE",
"184 -13 CURVE SMOOTH",
"270 -13 OFFCURVE",
"336 22 OFFCURVE",
"421 91 CURVE"
);
},
{
closed = 1;
nodes = (
"73 181 OFFCURVE",
"164 213 OFFCURVE",
"253 213 CURVE SMOOTH",
"313 213 OFFCURVE",
"391 219 OFFCURVE",
"421 251 CURVE",
"421 131 LINE",
"339 62 OFFCURVE",
"275 17 OFFCURVE",
"185 17 CURVE SMOOTH",
"116 17 OFFCURVE",
"73 49 OFFCURVE",
"73 112 CURVE SMOOTH"
);
}
);
width = 600;
}
);
note = aring;
unicode = 00E5;
},
{
glyphname = ae;
lastChange = "2018-05-04 08:01:45 +0000";
layers = (
{
layerId = "2B3DFD70-41A3-4B85-88D0-92073D9863EC";
paths = (
{
closed = 1;
nodes = (
"4 33 OFFCURVE",
"71 -13 OFFCURVE",
"127 -13 CURVE SMOOTH",
"197 -13 OFFCURVE",
"239 28 OFFCURVE",
"293 89 CURVE",
"321 28 OFFCURVE",
"369 -13 OFFCURVE",
"429 -13 CURVE SMOOTH",
"511 -13 OFFCURVE",
"545 43 OFFCURVE",
"599 136 CURVE",
"573 151 LINE",
"525 66 OFFCURVE",
"494 17 OFFCURVE",
"429 17 CURVE SMOOTH",
"345 17 OFFCURVE",
"296 116 OFFCURVE",
"296 227 CURVE",
"581 227 LINE",
"581 238 LINE SMOOTH",
"581 356 OFFCURVE",
"521 443 OFFCURVE",
"429 443 CURVE SMOOTH",
"366 443 OFFCURVE",
"319 411 OFFCURVE",
"296 362 CURVE",
"281 414 OFFCURVE",
"220 443 OFFCURVE",
"168 443 CURVE SMOOTH",
"91 443 OFFCURVE",
"21 408 OFFCURVE",
"21 332 CURVE SMOOTH",
"21 300 OFFCURVE",
"40 279 OFFCURVE",
"65 279 CURVE SMOOTH",
"92 279 OFFCURVE",
"117 293 OFFCURVE",
"117 325 CURVE SMOOTH",
"117 348 OFFCURVE",
"100 364 OFFCURVE",
"81 364 CURVE SMOOTH",
"71 364 OFFCURVE",
"61 359 OFFCURVE",
"53 354 CURVE",
"61 391 OFFCURVE",
"112 413 OFFCURVE",
"168 413 CURVE SMOOTH",
"215 413 OFFCURVE",
"277 386 OFFCURVE",
"277 317 CURVE SMOOTH",
"277 270 OFFCURVE",
"251 243 OFFCURVE",
"196 243 CURVE SMOOTH",
"89 243 OFFCURVE",
"8 204 OFFCURVE",
"6 112 CURVE SMOOTH"
);
},
{
closed = 1;
nodes = (
"298 257 LINE",
"312 354 OFFCURVE",
"341 413 OFFCURVE",
"429 413 CURVE SMOOTH",
"499 413 OFFCURVE",
"543 348 OFFCURVE",
"551 257 CURVE"
);
},
{
closed = 1;
nodes = (
"36 184 OFFCURVE",
"105 213 OFFCURVE",
"196 213 CURVE SMOOTH",
"231 213 OFFCURVE",
"252 222 OFFCURVE",
"267 236 CURVE",
"266 190 OFFCURVE",
"268 150 OFFCURVE",
"280 117 CURVE",
"229 61 OFFCURVE",
"184 17 OFFCURVE",
"128 17 CURVE SMOOTH",
"86 17 OFFCURVE",
"36 50 OFFCURVE",
"36 112 CURVE SMOOTH"
);
}
);
width = 600;
}
);
note = ae;
unicode = 00E6;
},
{
glyphname = ccedilla;
lastChange = "2018-05-04 08:01:45 +0000";
layers = (
{
layerId = "2B3DFD70-41A3-4B85-88D0-92073D9863EC";
paths = (
{
closed = 1;
nodes = (
"524 205 LINE",
"506 91 OFFCURVE",
"422 17 OFFCURVE",
"305 17 CURVE SMOOTH",
"178 17 OFFCURVE",
"89 101 OFFCURVE",
"89 219 CURVE SMOOTH",
"89 339 OFFCURVE",
"164 413 OFFCURVE",
"281 413 CURVE SMOOTH",
"357 413 OFFCURVE",
"439 370 OFFCURVE",
"443 310 CURVE",
"433 326 OFFCURVE",
"417 331 OFFCURVE",
"401 331 CURVE SMOOTH",
"377 331 OFFCURVE",
"354 304 OFFCURVE",
"354 279 CURVE SMOOTH",
"354 247 OFFCURVE",
"380 229 OFFCURVE",
"411 229 CURVE SMOOTH",
"445 229 OFFCURVE",
"471 260 OFFCURVE",
"471 309 CURVE SMOOTH",
"471 384 OFFCURVE",
"379 443 OFFCURVE",
"282 443 CURVE SMOOTH",
"147 443 OFFCURVE",
"59 358 OFFCURVE",
"59 219 CURVE SMOOTH",
"59 86 OFFCURVE",
"156 -9 OFFCURVE",
"297 -13 CURVE",
"297 -67 LINE",
"347 -70 OFFCURVE",
"379 -80 OFFCURVE",
"379 -108 CURVE SMOOTH",
"379 -137 OFFCURVE",
"325 -150 OFFCURVE",
"277 -150 CURVE SMOOTH",
"230 -150 OFFCURVE",
"164 -129 OFFCURVE",
"164 -83 CURVE",
"172 -92 OFFCURVE",
"180 -93 OFFCURVE",
"186 -93 CURVE SMOOTH",
"198 -93 OFFCURVE",
"210 -82 OFFCURVE",
"210 -66 CURVE SMOOTH",
"210 -50 OFFCURVE",
"194 -39 OFFCURVE",
"180 -39 CURVE SMOOTH",
"158 -39 OFFCURVE",
"143 -56 OFFCURVE",
"143 -84 CURVE SMOOTH",
"143 -138 OFFCURVE",
"208 -173 OFFCURVE",
"277 -173 CURVE SMOOTH",
"332 -173 OFFCURVE",
"403 -156 OFFCURVE",
"403 -108 CURVE SMOOTH",
"403 -68 OFFCURVE",
"365 -52 OFFCURVE",
"321 -47 CURVE",
"321 -13 LINE",
"444 -6 OFFCURVE",
"537 79 OFFCURVE",
"554 201 CURVE"
);
}
);
width = 600;
}
);
note = ccedilla;
unicode = 00E7;
},
{
glyphname = egrave;
lastChange = "2018-05-29 15:33:38 +0000";
layers = (
{
layerId = "2B3DFD70-41A3-4B85-88D0-92073D9863EC";
paths = (
{
closed = 1;
nodes = (
"66 96 OFFCURVE",
"167 -13 OFFCURVE",
"289 -13 CURVE SMOOTH",
"395 -13 OFFCURVE",
"475 43 OFFCURVE",
"529 136 CURVE",
"503 151 LINE",
"456 66 OFFCURVE",
"378 17 OFFCURVE",
"289 17 CURVE SMOOTH",
"181 17 OFFCURVE",
"96 116 OFFCURVE",
"96 227 CURVE",
"501 227 LINE",
"501 238 LINE SMOOTH",
"501 356 OFFCURVE",
"405 443 OFFCURVE",
"289 443 CURVE SMOOTH",
"156 443 OFFCURVE",
"66 365 OFFCURVE",
"66 223 CURVE SMOOTH"
);
},
{
closed = 1;
nodes = (
"98 257 LINE",
"112 354 OFFCURVE",
"177 413 OFFCURVE",
"289 413 CURVE SMOOTH",
"383 413 OFFCURVE",
"460 348 OFFCURVE",
"470 257 CURVE"
);
},
{
closed = 1;
nodes = (
"123 550 LINE",
"132 590 LINE",
"441 509 LINE",
"437 487 LINE"
);
}
);
width = 600;
},
{
associatedMasterId = "2B3DFD70-41A3-4B85-88D0-92073D9863EC";
layerId = "2BAF2BA4-AA0E-4289-9E85-3559A492EA63";
paths = (
{
closed = 1;
nodes = (
"441 509 LINE",
"437 487 LINE",
"123 550 LINE",
"132 590 LINE"
);
},
{
closed = 1;
nodes = (
"66 96 OFFCURVE",
"167 -13 OFFCURVE",
"289 -13 CURVE SMOOTH",
"395 -13 OFFCURVE",
"475 43 OFFCURVE",
"529 136 CURVE",
"503 151 LINE",
"456 66 OFFCURVE",
"378 17 OFFCURVE",
"289 17 CURVE SMOOTH",
"181 17 OFFCURVE",
"96 116 OFFCURVE",
"96 227 CURVE",
"501 227 LINE",
"501 238 LINE SMOOTH",
"501 356 OFFCURVE",
"405 443 OFFCURVE",
"289 443 CURVE SMOOTH",
"156 443 OFFCURVE",
"66 365 OFFCURVE",
"66 223 CURVE SMOOTH"
);
},
{
closed = 1;
nodes = (
"98 257 LINE",
"112 354 OFFCURVE",
"177 413 OFFCURVE",
"289 413 CURVE SMOOTH",
"383 413 OFFCURVE",
"460 348 OFFCURVE",
"470 257 CURVE"
);
}
);
width = 600;
}
);
note = egrave;
unicode = 00E8;
},
{
glyphname = eacute;
lastChange = "2018-05-29 15:30:14 +0000";
layers = (
{
layerId = "2B3DFD70-41A3-4B85-88D0-92073D9863EC";
paths = (
{
closed = 1;
nodes = (
"123 509 LINE",
"432 590 LINE",
"441 550 LINE",
"127 487 LINE"
);
},
{
closed = 1;
nodes = (
"66 96 OFFCURVE",
"167 -13 OFFCURVE",
"289 -13 CURVE SMOOTH",
"395 -13 OFFCURVE",
"475 43 OFFCURVE",
"529 136 CURVE",
"503 151 LINE",
"456 66 OFFCURVE",
"378 17 OFFCURVE",
"289 17 CURVE SMOOTH",
"181 17 OFFCURVE",
"96 116 OFFCURVE",
"96 227 CURVE",
"501 227 LINE",
"501 238 LINE SMOOTH",
"501 356 OFFCURVE",
"405 443 OFFCURVE",
"289 443 CURVE SMOOTH",
"156 443 OFFCURVE",
"66 365 OFFCURVE",
"66 223 CURVE SMOOTH"
);
},
{
closed = 1;
nodes = (
"98 257 LINE",
"112 354 OFFCURVE",
"177 413 OFFCURVE",
"289 413 CURVE SMOOTH",
"383 413 OFFCURVE",
"460 348 OFFCURVE",
"470 257 CURVE"
);
}
);
width = 600;
}
);
note = eacute;
unicode = 00E9;
},
{
glyphname = ecircumflex;
lastChange = "2018-05-29 15:39:31 +0000";
layers = (
{
layerId = "2B3DFD70-41A3-4B85-88D0-92073D9863EC";
paths = (
{
closed = 1;
nodes = (
"288 601 LINE",
"494 495 LINE",
"488 478 LINE",
"288 563 LINE",
"88 478 LINE",
"83 495 LINE"
);
},
{
closed = 1;
nodes = (
"66 96 OFFCURVE",
"167 -13 OFFCURVE",
"289 -13 CURVE SMOOTH",
"395 -13 OFFCURVE",
"475 43 OFFCURVE",
"529 136 CURVE",
"503 151 LINE",
"456 66 OFFCURVE",
"378 17 OFFCURVE",
"289 17 CURVE SMOOTH",
"181 17 OFFCURVE",
"96 116 OFFCURVE",
"96 227 CURVE",
"501 227 LINE",
"501 238 LINE SMOOTH",
"501 356 OFFCURVE",
"405 443 OFFCURVE",
"289 443 CURVE SMOOTH",
"156 443 OFFCURVE",
"66 365 OFFCURVE",
"66 223 CURVE SMOOTH"
);
},
{
closed = 1;
nodes = (
"98 257 LINE",
"112 354 OFFCURVE",
"177 413 OFFCURVE",
"289 413 CURVE SMOOTH",
"383 413 OFFCURVE",
"460 348 OFFCURVE",
"470 257 CURVE"
);
}
);
width = 600;
}
);
note = ecircumflex;
unicode = 00EA;
},
{
glyphname = igrave;
lastChange = "2018-05-29 15:34:09 +0000";
layers = (
{
layerId = "2B3DFD70-41A3-4B85-88D0-92073D9863EC";
paths = (
{
closed = 1;
nodes = (
"455 509 LINE",
"451 487 LINE",
"137 550 LINE",
"146 590 LINE"
);
},
{
closed = 1;
nodes = (
"320 30 LINE",
"509 30 LINE",
"509 0 LINE",
"90 0 LINE",
"90 30 LINE",
"290 30 LINE",
"290 430 LINE",
"320 430 LINE"
);
}
);
width = 600;
}
);
note = igrave;
unicode = 00EC;
},
{
glyphname = iacute;
lastChange = "2018-05-29 15:34:12 +0000";
layers = (
{
layerId = "2B3DFD70-41A3-4B85-88D0-92073D9863EC";
paths = (
{
closed = 1;
nodes = (
"137 509 LINE",
"446 590 LINE",
"455 550 LINE",
"141 487 LINE"
);
},
{
closed = 1;
nodes = (
"320 30 LINE",
"509 30 LINE",
"509 0 LINE",
"90 0 LINE",
"90 30 LINE",
"290 30 LINE",
"290 430 LINE",
"320 430 LINE"
);
}
);
width = 600;
}
);
note = iacute;
unicode = 00ED;
},
{
glyphname = icircumflex;
lastChange = "2018-06-06 13:42:55 +0000";
layers = (
{
layerId = "2B3DFD70-41A3-4B85-88D0-92073D9863EC";
paths = (
{
closed = 1;
nodes = (
"302 601 LINE",
"508 495 LINE",
"502 478 LINE",
"302 563 LINE",
"102 478 LINE",
"97 495 LINE"
);
},
{
closed = 1;
nodes = (
"320 30 LINE",
"509 30 LINE",
"509 0 LINE",
"90 0 LINE",
"90 30 LINE",
"290 30 LINE",
"290 430 LINE",
"320 430 LINE"
);
}
);
width = 600;
}
);
note = icircumflex;
unicode = 00EE;
},
{
glyphname = idieresis;
lastChange = "2018-06-06 13:47:35 +0000";
layers = (
{
layerId = "2B3DFD70-41A3-4B85-88D0-92073D9863EC";
paths = (
{
closed = 1;
nodes = (
"291 430 LINE",
"291 30 LINE",
"90 30 LINE",
"90 0 LINE",
"509 0 LINE",
"509 30 LINE",
"321 30 LINE",
"321 430 LINE"
);
},
{
closed = 1;
nodes = (
"244 488 OFFCURVE",
"267 512 OFFCURVE",
"267 539 CURVE SMOOTH",
"267 566 OFFCURVE",
"244 590 OFFCURVE",
"216 590 CURVE SMOOTH",
"188 590 OFFCURVE",
"164 566 OFFCURVE",
"164 539 CURVE SMOOTH",
"164 512 OFFCURVE",
"188 488 OFFCURVE",
"216 488 CURVE SMOOTH"
);
},
{
closed = 1;
nodes = (
"425 488 OFFCURVE",
"448 512 OFFCURVE",
"448 539 CURVE SMOOTH",
"448 566 OFFCURVE",
"425 590 OFFCURVE",
"397 590 CURVE SMOOTH",
"369 590 OFFCURVE",
"345 566 OFFCURVE",
"345 539 CURVE SMOOTH",
"345 512 OFFCURVE",
"369 488 OFFCURVE",
"397 488 CURVE SMOOTH"
);
}
);
width = 600;
},
{
associatedMasterId = "2B3DFD70-41A3-4B85-88D0-92073D9863EC";
layerId = "E0FDF44F-D6AC-4A3D-83D1-8F7CD787CEFA";
paths = (
{
closed = 1;
nodes = (
"291 430 LINE",
"291 30 LINE",
"90 30 LINE",
"90 0 LINE",
"509 0 LINE",
"509 30 LINE",
"321 30 LINE",
"321 430 LINE"
);
},
{
closed = 1;
nodes = (
"244 501 OFFCURVE",
"267 525 OFFCURVE",
"267 552 CURVE SMOOTH",
"267 579 OFFCURVE",
"244 603 OFFCURVE",
"216 603 CURVE SMOOTH",
"188 603 OFFCURVE",
"164 579 OFFCURVE",
"164 552 CURVE SMOOTH",
"164 525 OFFCURVE",
"188 501 OFFCURVE",
"216 501 CURVE SMOOTH"
);
},
{
closed = 1;
nodes = (
"425 501 OFFCURVE",
"448 525 OFFCURVE",
"448 552 CURVE SMOOTH",
"448 579 OFFCURVE",
"425 603 OFFCURVE",
"397 603 CURVE SMOOTH",
"369 603 OFFCURVE",
"345 579 OFFCURVE",
"345 552 CURVE SMOOTH",
"345 525 OFFCURVE",
"369 501 OFFCURVE",
"397 501 CURVE SMOOTH"
);
}
);
width = 600;
}
);
unicode = 00EF;
},
{
glyphname = eth;
lastChange = "2018-05-04 08:01:45 +0000";
layers = (
{
layerId = "2B3DFD70-41A3-4B85-88D0-92073D9863EC";
paths = (
{
closed = 1;
nodes = (
"38 70 OFFCURVE",
"124 -13 OFFCURVE",
"244 -13 CURVE SMOOTH",
"312 -13 OFFCURVE",
"382 44 OFFCURVE",
"433 109 CURVE",
"432 67 LINE",
"433 5 OFFCURVE",
"458 -13 OFFCURVE",
"487 -13 CURVE SMOOTH",
"529 -13 OFFCURVE",
"552 44 OFFCURVE",
"580 107 CURVE",
"553 120 LINE",
"529 66 OFFCURVE",
"507 17 OFFCURVE",
"487 17 CURVE SMOOTH",
"471 17 OFFCURVE",
"462 33 OFFCURVE",
"462 67 CURVE SMOOTH",
"463 476 LINE",
"520 476 LINE",
"520 506 LINE",
"463 506 LINE",
"463 590 LINE",
"310 590 LINE",
"310 560 LINE",
"433 560 LINE",
"433 506 LINE",
"249 506 LINE",
"249 476 LINE",
"433 476 LINE",
"433 280 LINE",
"383 350 OFFCURVE",
"312 403 OFFCURVE",
"244 403 CURVE SMOOTH",
"124 403 OFFCURVE",
"38 306 OFFCURVE",
"38 195 CURVE SMOOTH"
);
},
{
closed = 1;
nodes = (
"68 289 OFFCURVE",
"142 373 OFFCURVE",
"244 373 CURVE SMOOTH",
"312 373 OFFCURVE",
"366 316 OFFCURVE",
"432 238 CURVE",
"432 152 LINE",
"368 78 OFFCURVE",
"312 17 OFFCURVE",
"244 17 CURVE SMOOTH",
"142 17 OFFCURVE",
"68 84 OFFCURVE",
"68 195 CURVE SMOOTH"
);
}
);
width = 600;
}
);
note = eth;
unicode = 00F0;
},
{
glyphname = ntilde;
lastChange = "2018-05-04 08:01:45 +0000";
layers = (
{
layerId = "2B3DFD70-41A3-4B85-88D0-92073D9863EC";
paths = (
{
closed = 1;
nodes = (
"313 510 OFFCURVE",
"296 583 OFFCURVE",
"224 583 CURVE SMOOTH",
"195 583 OFFCURVE",
"158 560 OFFCURVE",
"110 505 CURVE",
"131 485 LINE",
"171 532 OFFCURVE",
"197 553 OFFCURVE",
"224 553 CURVE SMOOTH",
"277 553 OFFCURVE",
"294 480 OFFCURVE",
"366 480 CURVE SMOOTH",
"395 480 OFFCURVE",
"432 501 OFFCURVE",
"479 557 CURVE",
"458 577 LINE",
"419 529 OFFCURVE",
"393 510 OFFCURVE",
"366 510 CURVE SMOOTH"
);
},
{
closed = 1;
nodes = (
"132 30 LINE",
"44 30 LINE",
"44 0 LINE",
"246 0 LINE",
"246 30 LINE",
"162 30 LINE",
"162 261 LINE",
"270 369 OFFCURVE",
"300 413 OFFCURVE",
"354 413 CURVE SMOOTH",
"413 413 OFFCURVE",
"450 377 OFFCURVE",
"450 310 CURVE SMOOTH",
"450 30 LINE",
"366 30 LINE",
"366 0 LINE",
"567 0 LINE",
"567 30 LINE",
"480 30 LINE",
"480 310 LINE SMOOTH",
"480 394 OFFCURVE",
"432 443 OFFCURVE",
"354 443 CURVE SMOOTH",
"287 443 OFFCURVE",
"245 386 OFFCURVE",
"162 303 CURVE",
"162 363 LINE",
"161 425 OFFCURVE",
"136 443 OFFCURVE",
"107 443 CURVE SMOOTH",
"63 443 OFFCURVE",
"42 386 OFFCURVE",
"14 323 CURVE",
"41 310 LINE",
"65 364 OFFCURVE",
"85 413 OFFCURVE",
"107 413 CURVE SMOOTH",
"123 413 OFFCURVE",
"132 397 OFFCURVE",
"132 363 CURVE SMOOTH"
);
}
);
width = 600;
}
);
note = ntilde;
unicode = 00F1;
},
{
glyphname = ograve;
lastChange = "2018-05-29 15:34:18 +0000";
layers = (
{
layerId = "2B3DFD70-41A3-4B85-88D0-92073D9863EC";
paths = (
{
closed = 1;
nodes = (
"453 509 LINE",
"449 487 LINE",
"135 550 LINE",
"144 590 LINE"
);
},
{
closed = 1;
nodes = (
"427 -13 OFFCURVE",
"529 88 OFFCURVE",
"529 216 CURVE SMOOTH",
"529 342 OFFCURVE",
"427 443 OFFCURVE",
"301 443 CURVE SMOOTH",
"174 443 OFFCURVE",
"72 342 OFFCURVE",
"72 216 CURVE SMOOTH",
"72 88 OFFCURVE",
"174 -13 OFFCURVE",
"301 -13 CURVE SMOOTH"
);
},
{
closed = 1;
nodes = (
"191 17 OFFCURVE",
"102 105 OFFCURVE",
"102 216 CURVE SMOOTH",
"102 325 OFFCURVE",
"191 413 OFFCURVE",
"301 413 CURVE SMOOTH",
"410 413 OFFCURVE",
"499 325 OFFCURVE",
"499 216 CURVE SMOOTH",
"499 105 OFFCURVE",
"410 17 OFFCURVE",
"301 17 CURVE SMOOTH"
);
}
);
width = 600;
}
);
note = ograve;
unicode = 00F2;
},
{
glyphname = oacute;
lastChange = "2018-05-29 15:34:21 +0000";
layers = (
{
layerId = "2B3DFD70-41A3-4B85-88D0-92073D9863EC";
paths = (
{
closed = 1;
nodes = (
"135 509 LINE",
"444 590 LINE",
"453 550 LINE",
"139 487 LINE"
);
},
{
closed = 1;
nodes = (
"427 -13 OFFCURVE",
"529 88 OFFCURVE",
"529 216 CURVE SMOOTH",
"529 342 OFFCURVE",
"427 443 OFFCURVE",
"301 443 CURVE SMOOTH",
"174 443 OFFCURVE",
"72 342 OFFCURVE",
"72 216 CURVE SMOOTH",
"72 88 OFFCURVE",
"174 -13 OFFCURVE",
"301 -13 CURVE SMOOTH"
);
},
{
closed = 1;
nodes = (
"191 17 OFFCURVE",
"102 105 OFFCURVE",
"102 216 CURVE SMOOTH",
"102 325 OFFCURVE",
"191 413 OFFCURVE",
"301 413 CURVE SMOOTH",
"410 413 OFFCURVE",
"499 325 OFFCURVE",
"499 216 CURVE SMOOTH",
"499 105 OFFCURVE",
"410 17 OFFCURVE",
"301 17 CURVE SMOOTH"
);
}
);
width = 600;
}
);
note = oacute;
unicode = 00F3;
},
{
glyphname = ocircumflex;
lastChange = "2018-05-29 15:39:43 +0000";
layers = (
{
layerId = "2B3DFD70-41A3-4B85-88D0-92073D9863EC";
paths = (
{
closed = 1;
nodes = (
"300 601 LINE",
"506 495 LINE",
"500 478 LINE",
"300 563 LINE",
"100 478 LINE",
"95 495 LINE"
);
},
{
closed = 1;
nodes = (
"427 -13 OFFCURVE",
"529 88 OFFCURVE",
"529 216 CURVE SMOOTH",
"529 342 OFFCURVE",
"427 443 OFFCURVE",
"301 443 CURVE SMOOTH",
"174 443 OFFCURVE",
"72 342 OFFCURVE",
"72 216 CURVE SMOOTH",
"72 88 OFFCURVE",
"174 -13 OFFCURVE",
"301 -13 CURVE SMOOTH"
);
},
{
closed = 1;
nodes = (
"191 17 OFFCURVE",
"102 105 OFFCURVE",
"102 216 CURVE SMOOTH",
"102 325 OFFCURVE",
"191 413 OFFCURVE",
"301 413 CURVE SMOOTH",
"410 413 OFFCURVE",
"499 325 OFFCURVE",
"499 216 CURVE SMOOTH",
"499 105 OFFCURVE",
"410 17 OFFCURVE",
"301 17 CURVE SMOOTH"
);
}
);
width = 600;
}
);
note = ocircumflex;
unicode = 00F4;
},
{
glyphname = otilde;
lastChange = "2018-05-04 08:01:45 +0000";
layers = (
{
layerId = "2B3DFD70-41A3-4B85-88D0-92073D9863EC";
paths = (
{
closed = 1;
nodes = (
"317 535 OFFCURVE",
"300 608 OFFCURVE",
"228 608 CURVE SMOOTH",
"199 608 OFFCURVE",
"162 585 OFFCURVE",
"114 530 CURVE",
"135 510 LINE",
"175 557 OFFCURVE",
"201 578 OFFCURVE",
"228 578 CURVE SMOOTH",
"281 578 OFFCURVE",
"298 505 OFFCURVE",
"370 505 CURVE SMOOTH",
"399 505 OFFCURVE",
"436 526 OFFCURVE",
"483 582 CURVE",
"462 602 LINE",
"423 554 OFFCURVE",
"397 535 OFFCURVE",
"370 535 CURVE SMOOTH"
);
},
{
closed = 1;
nodes = (
"427 -13 OFFCURVE",
"529 88 OFFCURVE",
"529 216 CURVE SMOOTH",
"529 342 OFFCURVE",
"427 443 OFFCURVE",
"301 443 CURVE SMOOTH",
"174 443 OFFCURVE",
"72 342 OFFCURVE",
"72 216 CURVE SMOOTH",
"72 88 OFFCURVE",
"174 -13 OFFCURVE",
"301 -13 CURVE SMOOTH"
);
},
{
closed = 1;
nodes = (
"191 17 OFFCURVE",
"102 105 OFFCURVE",
"102 216 CURVE SMOOTH",
"102 325 OFFCURVE",
"191 413 OFFCURVE",
"301 413 CURVE SMOOTH",
"410 413 OFFCURVE",
"499 325 OFFCURVE",
"499 216 CURVE SMOOTH",
"499 105 OFFCURVE",
"410 17 OFFCURVE",
"301 17 CURVE SMOOTH"
);
}
);
width = 600;
}
);
note = otilde;
unicode = 00F5;
},
{
glyphname = divide;
lastChange = "2018-05-04 08:01:45 +0000";
layers = (
{
layerId = "2B3DFD70-41A3-4B85-88D0-92073D9863EC";
paths = (
{
closed = 1;
nodes = (
"334 322 OFFCURVE",
"360 350 OFFCURVE",
"360 381 CURVE SMOOTH",
"360 414 OFFCURVE",
"334 441 OFFCURVE",
"301 441 CURVE SMOOTH",
"268 441 OFFCURVE",
"240 414 OFFCURVE",
"240 381 CURVE SMOOTH",
"240 350 OFFCURVE",
"268 322 OFFCURVE",
"301 322 CURVE SMOOTH"
);
},
{
closed = 1;
nodes = (
"541 200 LINE",
"60 200 LINE",
"60 230 LINE",
"541 230 LINE"
);
},
{
closed = 1;
nodes = (
"334 -11 OFFCURVE",
"360 16 OFFCURVE",
"360 48 CURVE SMOOTH",
"360 80 OFFCURVE",
"334 108 OFFCURVE",
"301 108 CURVE SMOOTH",
"268 108 OFFCURVE",
"240 80 OFFCURVE",
"240 48 CURVE SMOOTH",
"240 16 OFFCURVE",
"268 -11 OFFCURVE",
"301 -11 CURVE SMOOTH"
);
}
);
width = 600;
}
);
note = divide;
unicode = 00F7;
},
{
glyphname = oslash;
lastChange = "2018-05-04 08:01:45 +0000";
layers = (
{
layerId = "2B3DFD70-41A3-4B85-88D0-92073D9863EC";
paths = (
{
closed = 1;
nodes = (
"568 582 LINE",
"543 598 LINE",
"417 413 LINE",
"383 433 OFFCURVE",
"343 444 OFFCURVE",
"301 444 CURVE SMOOTH",
"174 444 OFFCURVE",
"72 343 OFFCURVE",
"72 217 CURVE SMOOTH",
"72 143 OFFCURVE",
"106 78 OFFCURVE",
"160 36 CURVE",
"33 -150 LINE",
"57 -167 LINE",
"184 19 LINE",
"218 -1 OFFCURVE",
"258 -13 OFFCURVE",
"301 -13 CURVE SMOOTH",
"427 -13 OFFCURVE",
"529 89 OFFCURVE",
"529 217 CURVE SMOOTH",
"529 290 OFFCURVE",
"495 355 OFFCURVE",
"441 396 CURVE"
);
},
{
closed = 1;
nodes = (
"102 326 OFFCURVE",
"191 414 OFFCURVE",
"301 414 CURVE SMOOTH",
"337 414 OFFCURVE",
"371 404 OFFCURVE",
"400 388 CURVE",
"177 61 LINE",
"131 97 OFFCURVE",
"102 153 OFFCURVE",
"102 217 CURVE SMOOTH"
);
},
{
closed = 1;
nodes = (
"265 18 OFFCURVE",
"231 28 OFFCURVE",
"201 44 CURVE",
"424 371 LINE",
"470 335 OFFCURVE",
"499 280 OFFCURVE",
"499 217 CURVE SMOOTH",
"499 106 OFFCURVE",
"410 18 OFFCURVE",
"301 18 CURVE SMOOTH"
);
}
);
width = 600;
}
);
note = oslash;
unicode = 00F8;
},
{
glyphname = ugrave;
lastChange = "2018-05-29 15:34:26 +0000";
layers = (
{
layerId = "2B3DFD70-41A3-4B85-88D0-92073D9863EC";
paths = (
{
closed = 1;
nodes = (
"441 510 LINE",
"132 591 LINE",
"123 551 LINE",
"437 488 LINE"
);
},
{
closed = 1;
nodes = (
"473 34 LINE",
"473 363 LINE",
"472 425 OFFCURVE",
"447 443 OFFCURVE",
"418 443 CURVE SMOOTH",
"376 443 OFFCURVE",
"353 386 OFFCURVE",
"325 323 CURVE",
"352 310 LINE",
"376 364 OFFCURVE",
"398 413 OFFCURVE",
"418 413 CURVE SMOOTH",
"434 413 OFFCURVE",
"443 397 OFFCURVE",
"443 363 CURVE SMOOTH",
"443 173 LINE",
"345 66 OFFCURVE",
"313 17 OFFCURVE",
"255 17 CURVE SMOOTH",
"201 17 OFFCURVE",
"158 50 OFFCURVE",
"158 110 CURVE SMOOTH",
"158 321 LINE",
"158 363 LINE",
"157 425 OFFCURVE",
"132 443 OFFCURVE",
"103 443 CURVE SMOOTH",
"61 443 OFFCURVE",
"38 386 OFFCURVE",
"10 323 CURVE",
"37 310 LINE",
"61 364 OFFCURVE",
"83 413 OFFCURVE",
"103 413 CURVE SMOOTH",
"119 413 OFFCURVE",
"128 397 OFFCURVE",
"128 363 CURVE SMOOTH",
"128 110 LINE SMOOTH",
"128 52 OFFCURVE",
"169 -13 OFFCURVE",
"255 -13 CURVE SMOOTH",
"326 -13 OFFCURVE",
"368 44 OFFCURVE",
"443 129 CURVE",
"443 0 LINE",
"558 1 LINE",
"558 34 LINE"
);
}
);
width = 600;
}
);
note = ugrave;
unicode = 00F9;
},
{
glyphname = uacute;
lastChange = "2018-05-29 15:34:30 +0000";
layers = (
{
layerId = "2B3DFD70-41A3-4B85-88D0-92073D9863EC";
paths = (
{
closed = 1;
nodes = (
"441 551 LINE",
"432 591 LINE",
"123 510 LINE",
"127 488 LINE"
);
},
{
closed = 1;
nodes = (
"473 34 LINE",
"473 363 LINE",
"472 425 OFFCURVE",
"447 443 OFFCURVE",
"418 443 CURVE SMOOTH",
"376 443 OFFCURVE",
"353 386 OFFCURVE",
"325 323 CURVE",
"352 310 LINE",
"376 364 OFFCURVE",
"398 413 OFFCURVE",
"418 413 CURVE SMOOTH",
"434 413 OFFCURVE",
"443 397 OFFCURVE",
"443 363 CURVE SMOOTH",
"443 173 LINE",
"345 66 OFFCURVE",
"313 17 OFFCURVE",
"255 17 CURVE SMOOTH",
"201 17 OFFCURVE",
"158 50 OFFCURVE",
"158 110 CURVE SMOOTH",
"158 321 LINE",
"158 363 LINE",
"157 425 OFFCURVE",
"132 443 OFFCURVE",
"103 443 CURVE SMOOTH",
"61 443 OFFCURVE",
"38 386 OFFCURVE",
"10 323 CURVE",
"37 310 LINE",
"61 364 OFFCURVE",
"83 413 OFFCURVE",
"103 413 CURVE SMOOTH",
"119 413 OFFCURVE",
"128 397 OFFCURVE",
"128 363 CURVE SMOOTH",
"128 110 LINE SMOOTH",
"128 52 OFFCURVE",
"169 -13 OFFCURVE",
"255 -13 CURVE SMOOTH",
"326 -13 OFFCURVE",
"368 44 OFFCURVE",
"443 129 CURVE",
"443 0 LINE",
"558 1 LINE",
"558 34 LINE"
);
}
);
width = 600;
}
);
note = uacute;
unicode = 00FA;
},
{
glyphname = ucircumflex;
lastChange = "2018-05-29 15:39:49 +0000";
layers = (
{
layerId = "2B3DFD70-41A3-4B85-88D0-92073D9863EC";
paths = (
{
closed = 1;
nodes = (
"288 564 LINE",
"488 479 LINE",
"494 496 LINE",
"288 602 LINE",
"83 496 LINE",
"88 479 LINE"
);
},
{
closed = 1;
nodes = (
"473 34 LINE",
"473 363 LINE",
"472 425 OFFCURVE",
"447 443 OFFCURVE",
"418 443 CURVE SMOOTH",
"376 443 OFFCURVE",
"353 386 OFFCURVE",
"325 323 CURVE",
"352 310 LINE",
"376 364 OFFCURVE",
"398 413 OFFCURVE",
"418 413 CURVE SMOOTH",
"434 413 OFFCURVE",
"443 397 OFFCURVE",
"443 363 CURVE SMOOTH",
"443 173 LINE",
"345 66 OFFCURVE",
"313 17 OFFCURVE",
"255 17 CURVE SMOOTH",
"201 17 OFFCURVE",
"158 50 OFFCURVE",
"158 110 CURVE SMOOTH",
"158 321 LINE",
"158 363 LINE",
"157 425 OFFCURVE",
"132 443 OFFCURVE",
"103 443 CURVE SMOOTH",
"61 443 OFFCURVE",
"38 386 OFFCURVE",
"10 323 CURVE",
"37 310 LINE",
"61 364 OFFCURVE",
"83 413 OFFCURVE",
"103 413 CURVE SMOOTH",
"119 413 OFFCURVE",
"128 397 OFFCURVE",
"128 363 CURVE SMOOTH",
"128 110 LINE SMOOTH",
"128 52 OFFCURVE",
"169 -13 OFFCURVE",
"255 -13 CURVE SMOOTH",
"326 -13 OFFCURVE",
"368 44 OFFCURVE",
"443 129 CURVE",
"443 0 LINE",
"558 1 LINE",
"558 34 LINE"
);
}
);
width = 600;
}
);
note = ucircumflex;
unicode = 00FB;
},
{
glyphname = yacute;
lastChange = "2018-05-29 15:34:35 +0000";
layers = (
{
layerId = "2B3DFD70-41A3-4B85-88D0-92073D9863EC";
paths = (
{
closed = 1;
nodes = (
"148 509 LINE",
"457 590 LINE",
"466 550 LINE",
"152 487 LINE"
);
},
{
closed = 1;
nodes = (
"48 -134 OFFCURVE",
"109 -173 OFFCURVE",
"169 -173 CURVE SMOOTH",
"250 -173 OFFCURVE",
"290 -113 OFFCURVE",
"340 11 CURVE SMOOTH",
"498 400 LINE",
"575 400 LINE",
"575 430 LINE",
"378 430 LINE",
"378 400 LINE",
"465 400 LINE",
"315 27 LINE",
"163 400 LINE",
"250 400 LINE",
"250 430 LINE",
"54 430 LINE",
"54 400 LINE",
"131 400 LINE",
"298 -9 LINE",
"276 -55 LINE SMOOTH",
"244 -121 OFFCURVE",
"211 -143 OFFCURVE",
"169 -143 CURVE SMOOTH",
"109 -143 OFFCURVE",
"77 -99 OFFCURVE",
"77 -43 CURVE",
"87 -60 OFFCURVE",
"109 -69 OFFCURVE",
"133 -69 CURVE SMOOTH",
"158 -69 OFFCURVE",
"181 -44 OFFCURVE",
"181 -17 CURVE SMOOTH",
"181 22 OFFCURVE",
"155 41 OFFCURVE",
"116 41 CURVE SMOOTH",
"85 41 OFFCURVE",
"45 6 OFFCURVE",
"46 -40 CURVE SMOOTH"
);
}
);
width = 600;
}
);
note = yacute;
unicode = 00FD;
},
{
glyphname = thorn;
lastChange = "2018-05-04 08:01:45 +0000";
layers = (
{
layerId = "2B3DFD70-41A3-4B85-88D0-92073D9863EC";
paths = (
{
closed = 1;
nodes = (
"33 -160 LINE",
"264 -160 LINE",
"264 -127 LINE",
"156 -127 LINE",
"154 109 LINE",
"205 44 OFFCURVE",
"275 -13 OFFCURVE",
"343 -13 CURVE SMOOTH",
"463 -13 OFFCURVE",
"549 90 OFFCURVE",
"549 215 CURVE SMOOTH",
"549 346 OFFCURVE",
"463 443 OFFCURVE",
"343 443 CURVE SMOOTH",
"275 443 OFFCURVE",
"204 390 OFFCURVE",
"154 320 CURVE",
"154 590 LINE",
"35 590 LINE",
"35 560 LINE",
"124 560 LINE",
"125 -127 LINE",
"33 -127 LINE"
);
},
{
closed = 1;
nodes = (
"155 278 LINE",
"221 356 OFFCURVE",
"275 413 OFFCURVE",
"343 413 CURVE SMOOTH",
"445 413 OFFCURVE",
"519 329 OFFCURVE",
"519 215 CURVE SMOOTH",
"519 104 OFFCURVE",
"445 17 OFFCURVE",
"343 17 CURVE SMOOTH",
"275 17 OFFCURVE",
"219 78 OFFCURVE",
"155 152 CURVE"
);
}
);
width = 600;
}
);
note = thorn;
unicode = 00FE;
},
{
glyphname = ydieresis;
lastChange = "2018-05-29 14:52:25 +0000";
layers = (
{
layerId = "2B3DFD70-41A3-4B85-88D0-92073D9863EC";
paths = (
{
closed = 1;
nodes = (
"48 -134 OFFCURVE",
"109 -173 OFFCURVE",
"169 -173 CURVE SMOOTH",
"250 -173 OFFCURVE",
"290 -113 OFFCURVE",
"340 11 CURVE SMOOTH",
"498 400 LINE",
"575 400 LINE",
"575 430 LINE",
"378 430 LINE",
"378 400 LINE",
"465 400 LINE",
"315 27 LINE",
"163 400 LINE",
"250 400 LINE",
"250 430 LINE",
"54 430 LINE",
"54 400 LINE",
"131 400 LINE",
"298 -9 LINE",
"276 -55 LINE SMOOTH",
"244 -121 OFFCURVE",
"211 -143 OFFCURVE",
"169 -143 CURVE SMOOTH",
"109 -143 OFFCURVE",
"77 -99 OFFCURVE",
"77 -43 CURVE",
"87 -60 OFFCURVE",
"109 -69 OFFCURVE",
"133 -69 CURVE SMOOTH",
"158 -69 OFFCURVE",
"181 -44 OFFCURVE",
"181 -17 CURVE SMOOTH",
"181 22 OFFCURVE",
"155 41 OFFCURVE",
"116 41 CURVE SMOOTH",
"85 41 OFFCURVE",
"45 6 OFFCURVE",
"46 -40 CURVE SMOOTH"
);
},
{
closed = 1;
nodes = (
"258 488 OFFCURVE",
"281 512 OFFCURVE",
"281 539 CURVE SMOOTH",
"281 566 OFFCURVE",
"258 590 OFFCURVE",
"230 590 CURVE SMOOTH",
"202 590 OFFCURVE",
"178 566 OFFCURVE",
"178 539 CURVE SMOOTH",
"178 512 OFFCURVE",
"202 488 OFFCURVE",
"230 488 CURVE SMOOTH"
);
},
{
closed = 1;
nodes = (
"439 488 OFFCURVE",
"462 512 OFFCURVE",
"462 539 CURVE SMOOTH",
"462 566 OFFCURVE",
"439 590 OFFCURVE",
"411 590 CURVE SMOOTH",
"383 590 OFFCURVE",
"359 566 OFFCURVE",
"359 539 CURVE SMOOTH",
"359 512 OFFCURVE",
"383 488 OFFCURVE",
"411 488 CURVE SMOOTH"
);
}
);
width = 600;
}
);
unicode = 00FF;
},
{
glyphname = dotlessi;
lastChange = "2018-05-04 08:01:45 +0000";
layers = (
{
layerId = "2B3DFD70-41A3-4B85-88D0-92073D9863EC";
paths = (
{
closed = 1;
nodes = (
"320 30 LINE",
"509 30 LINE",
"509 0 LINE",
"90 0 LINE",
"90 30 LINE",
"290 30 LINE",
"290 430 LINE",
"320 430 LINE"
);
}
);
width = 600;
}
);
note = dotlessi;
unicode = 0131;
},
